<svg width="241" height="60" viewBox="0 0 241 60" fill="none" xmlns="http://www.w3.org/2000/svg">
<path d="M18.5563 18.5126C25.8858 11.2004 36.7822 9.61841 45.6591 13.7622C44.5112 11.315 42.9254 9.02462 40.8975 7.00147C31.5402 -2.33382 16.3754 -2.33382 7.01802 7.00147C-2.33934 16.3368 -2.33934 31.4658 7.01802 40.8011C9.04169 42.82 11.3417 44.4063 13.7948 45.5515C9.63689 36.6954 11.2269 25.8248 18.5563 18.5126Z" fill="black"/>
<path d="M18.5563 18.5126C25.8858 11.2004 36.7822 9.61841 45.6591 13.7622C44.5112 11.315 42.9254 9.02462 40.8975 7.00147C31.5402 -2.33382 16.3754 -2.33382 7.01802 7.00147C-2.33934 16.3368 -2.33934 31.4658 7.01802 40.8011C9.04169 42.82 11.3417 44.4063 13.7948 45.5515C9.63689 36.6954 11.2269 25.8248 18.5563 18.5126Z" fill="black"/>
<path d="M59.4548 35.3593C59.4421 29.2602 57.1038 23.1653 52.44 18.5125C50.4163 16.4936 48.1163 14.9073 45.6632 13.7621C47.1597 16.9517 47.9122 20.3999 47.9207 23.8482L47.9335 47.812C47.9335 47.812 25.5498 47.8035 23.9768 47.7993C23.964 47.7993 23.9513 47.7993 23.9385 47.7993C23.9045 47.7993 23.8875 47.7993 23.8875 47.7993C20.4354 47.7866 16.9875 47.0401 13.8032 45.5471C14.951 47.9944 16.5368 50.289 18.5647 52.3079C23.2243 56.9565 29.3208 59.2892 35.4258 59.3062C35.4258 59.3062 35.4428 59.3062 35.4769 59.3062C35.4896 59.3062 35.5024 59.3062 35.5151 59.3062C37.0881 59.3062 59.4718 59.3189 59.4718 59.3189C59.4718 59.3189 59.4633 35.3551 59.4591 35.3551L59.4548 35.3593Z" fill="black"/>
<path d="M80.982 44.2507C79.4269 44.2507 77.9812 43.966 76.6451 43.3965C75.3309 42.827 74.1919 42.0384 73.2281 41.0309C72.2862 40.0014 71.5963 38.8076 71.1582 37.4496L74.8709 35.8397C75.4623 37.2415 76.3165 38.3476 77.4336 39.1581C78.5507 39.9466 79.8102 40.3409 81.212 40.3409C82.0006 40.3409 82.6796 40.2204 83.2491 39.9795C83.8405 39.7166 84.2895 39.3662 84.5962 38.9281C84.9247 38.49 85.089 37.9643 85.089 37.351C85.089 36.6282 84.87 36.0368 84.4319 35.5768C84.0157 35.0949 83.3805 34.7226 82.5263 34.4597L77.8279 32.9484C75.9223 32.357 74.4876 31.4699 73.5238 30.2871C72.56 29.1043 72.0782 27.7134 72.0782 26.1144C72.0782 24.7125 72.4177 23.475 73.0967 22.4017C73.7976 21.3284 74.7614 20.4961 75.988 19.9047C77.2365 19.2914 78.6602 18.9847 80.2592 18.9847C81.7268 18.9847 83.0739 19.2476 84.3005 19.7732C85.5271 20.277 86.5785 20.9889 87.4546 21.9089C88.3527 22.8069 89.0207 23.8693 89.4588 25.0959L85.779 26.7386C85.2971 25.512 84.5743 24.5702 83.6105 23.9131C82.6467 23.234 81.5296 22.8945 80.2592 22.8945C79.5145 22.8945 78.8574 23.026 78.2879 23.2888C77.7184 23.5297 77.2694 23.8802 76.9408 24.3402C76.6341 24.7783 76.4808 25.304 76.4808 25.9173C76.4808 26.5963 76.6999 27.1986 77.1379 27.7243C77.576 28.2281 78.2441 28.6224 79.1421 28.9071L83.6434 30.3199C85.5928 30.9551 87.0494 31.8313 88.0132 32.9484C88.9988 34.0655 89.4917 35.4454 89.4917 37.0882C89.4917 38.49 89.1302 39.7276 88.4074 40.8009C87.6846 41.8742 86.688 42.7174 85.4176 43.3308C84.1471 43.9441 82.6686 44.2507 80.982 44.2507ZM97.7864 43.8564V19.379H114.05V23.3217H102.255V29.5971H113.393V33.5398H102.255V39.9138H114.05V43.8564H97.7864ZM130.337 44.2507C128.782 44.2507 127.337 43.966 126 43.3965C124.686 42.827 123.547 42.0384 122.583 41.0309C121.642 40.0014 120.952 38.8076 120.514 37.4496L124.226 35.8397C124.818 37.2415 125.672 38.3476 126.789 39.1581C127.906 39.9466 129.166 40.3409 130.567 40.3409C131.356 40.3409 132.035 40.2204 132.604 39.9795C133.196 39.7166 133.645 39.3662 133.952 38.9281C134.28 38.49 134.444 37.9643 134.444 37.351C134.444 36.6282 134.225 36.0368 133.787 35.5768C133.371 35.0949 132.736 34.7226 131.882 34.4597L127.183 32.9484C125.278 32.357 123.843 31.4699 122.879 30.2871C121.915 29.1043 121.434 27.7134 121.434 26.1144C121.434 24.7125 121.773 23.475 122.452 22.4017C123.153 21.3284 124.117 20.4961 125.343 19.9047C126.592 19.2914 128.016 18.9847 129.615 18.9847C131.082 18.9847 132.429 19.2476 133.656 19.7732C134.882 20.277 135.934 20.9889 136.81 21.9089C137.708 22.8069 138.376 23.8693 138.814 25.0959L135.134 26.7386C134.652 25.512 133.93 24.5702 132.966 23.9131C132.002 23.234 130.885 22.8945 129.615 22.8945C128.87 22.8945 128.213 23.026 127.643 23.2888C127.074 23.5297 126.625 23.8802 126.296 24.3402C125.989 24.7783 125.836 25.304 125.836 25.9173C125.836 26.5963 126.055 27.1986 126.493 27.7243C126.931 28.2281 127.599 28.6224 128.497 28.9071L132.999 30.3199C134.948 30.9551 136.405 31.8313 137.369 32.9484C138.354 34.0655 138.847 35.4454 138.847 37.0882C138.847 38.49 138.486 39.7276 137.763 40.8009C137.04 41.8742 136.043 42.7174 134.773 43.3308C133.502 43.9441 132.024 44.2507 130.337 44.2507ZM155.881 44.2507C154.326 44.2507 152.881 43.966 151.544 43.3965C150.23 42.827 149.091 42.0384 148.127 41.0309C147.186 40.0014 146.496 38.8076 146.058 37.4496L149.77 35.8397C150.362 37.2415 151.216 38.3476 152.333 39.1581C153.45 39.9466 154.71 40.3409 156.111 40.3409C156.9 40.3409 157.579 40.2204 158.148 39.9795C158.74 39.7166 159.189 39.3662 159.496 38.9281C159.824 38.49 159.988 37.9643 159.988 37.351C159.988 36.6282 159.769 36.0368 159.331 35.5768C158.915 35.0949 158.28 34.7226 157.426 34.4597L152.727 32.9484C150.822 32.357 149.387 31.4699 148.423 30.2871C147.459 29.1043 146.978 27.7134 146.978 26.1144C146.978 24.7125 147.317 23.475 147.996 22.4017C148.697 21.3284 149.661 20.4961 150.887 19.9047C152.136 19.2914 153.56 18.9847 155.159 18.9847C156.626 18.9847 157.973 19.2476 159.2 19.7732C160.426 20.277 161.478 20.9889 162.354 21.9089C163.252 22.8069 163.92 23.8693 164.358 25.0959L160.678 26.7386C160.196 25.512 159.474 24.5702 158.51 23.9131C157.546 23.234 156.429 22.8945 155.159 22.8945C154.414 22.8945 153.757 23.026 153.187 23.2888C152.618 23.5297 152.169 23.8802 151.84 24.3402C151.533 24.7783 151.38 25.304 151.38 25.9173C151.38 26.5963 151.599 27.1986 152.037 27.7243C152.475 28.2281 153.143 28.6224 154.041 28.9071L158.543 30.3199C160.492 30.9551 161.949 31.8313 162.912 32.9484C163.898 34.0655 164.391 35.4454 164.391 37.0882C164.391 38.49 164.03 39.7276 163.307 40.8009C162.584 41.8742 161.587 42.7174 160.317 43.3308C159.046 43.9441 157.568 44.2507 155.881 44.2507ZM170.425 43.8564L178.869 19.379H184.651L193.095 43.8564H188.233L186.491 38.5995H177.029L175.255 43.8564H170.425ZM178.31 34.6569H185.21L181.136 22.4674H182.384L178.31 34.6569ZM200.091 43.8564V19.379H204.362L213.529 31.8313H211.492L220.461 19.379H224.732V43.8564H220.231V24.4716L221.973 24.8987L212.674 37.2853H212.149L203.081 24.8987L204.559 24.4716V43.8564H200.091ZM233.688 43.8564V19.379H238.157V43.8564H233.688Z" fill="black"/>
<path d="M62.6227 56.0979V55.6171H65.4878V56.0979H64.3327V59.319H63.776V56.0979H62.6227Z" fill="black"/>
<path d="M66.1209 55.6171H66.7987L67.9772 58.4947H68.0206L69.1992 55.6171H69.877V59.319H69.3456V56.6402H69.3112L68.2195 59.3136H67.7784L66.6866 56.6383H66.6523V59.319H66.1209V55.6171Z" fill="black"/>
</svg>
