<svg width="188" height="125" viewBox="0 0 188 125" fill="none" xmlns="http://www.w3.org/2000/svg">
<g clip-path="url(#clip0_2047_2719)">
<rect width="188" height="125" rx="8" fill="#059FDF"/>
<g filter="url(#filter0_f_2047_2719)">
<ellipse cx="112.392" cy="142.5" rx="112.392" ry="67.4279" fill="#83CEDF"/>
</g>
<circle cx="129.895" cy="79.6069" r="13.0456" fill="#FEF0D5"/>
<circle cx="116.017" cy="88.9643" r="7.05778" fill="#FEF0D5"/>
<circle cx="146.551" cy="86.9013" r="16.6561" fill="#FEF0D5"/>
<circle cx="127.816" cy="98.9136" r="10.7478" fill="#FEF0D5"/>
<circle cx="106.216" cy="111.254" r="19.5001" fill="#FEF0D5"/>
<rect x="41.7144" y="100.946" width="22.292" height="53.1843" fill="#0D97D0"/>
<rect x="30.7983" y="111.877" width="22.292" height="48.2152" fill="#0D97D0"/>
<path d="M69.9479 50.4791C69.948 51.8722 69.948 54.7552 69.9479 55.1428H71.2198V50.4791L71.9466 49.5707L71.2198 48.7833V46.6635H69.9479V48.7833L69.0396 49.5707L69.9479 50.4791Z" fill="#FED293"/>
<mask id="mask0_2047_2719" style="mask-type:alpha" maskUnits="userSpaceOnUse" x="46" y="28" width="48" height="132">
<path d="M93.9998 119.397V141.897L46.5 159.897V116.897V79.8967L48.5 72.8967V49.3967L49.2358 47.3967V44.8967L49.9998 43.8967L50.4998 38.8967L50.9998 33.8967L52.4998 28.3967L53.4998 33.8967L54.4998 38.8967V52.8967H59.9998V55.8967H63.9998V52.8967H76.4998V55.8967H80.4998V52.8967H85.9998V42.8967V38.8967L87.4998 33.8967L88.4998 28.3967L88.9998 33.8967L89.9998 38.3967V43.8967L90.9998 44.8967V47.3967L91.4998 49.3967V55.8967V72.8967L92.9998 79.8967L92.4998 110.897V117.897L93.9998 119.397Z" fill="#FED293"/>
</mask>
<g mask="url(#mask0_2047_2719)">
<path d="M93.9998 119.397V141.897L46.5 159.897V116.897V79.8967L48.5 72.8967V49.3967L49.2358 47.3967V44.8967L49.9998 43.8967L50.4998 38.8967L50.9998 33.8967L52.4998 28.3967L53.4998 33.8967L54.4998 38.8967V52.8967H59.9998V55.8967H63.9998V52.8967H76.4998V55.8967H80.4998V52.8967H85.9998V42.8967V38.8967L87.4998 33.8967L88.4998 28.3967L88.9998 33.8967L89.9998 38.3967V43.8967L90.9998 44.8967V47.3967L91.4998 49.3967V55.8967V72.8967L92.9998 79.8967L92.4998 110.897V117.897L93.9998 119.397Z" fill="#FED293"/>
<rect x="86.0249" y="51.6641" width="6.12793" height="0.472656" fill="#E1B49A"/>
<rect x="51.0017" y="51.6641" width="6.12793" height="0.472656" fill="#E1B49A"/>
<rect x="86.0249" y="44.3423" width="6.12793" height="0.472656" fill="#E1B49A"/>
<rect x="51.0017" y="44.3423" width="6.12793" height="0.472656" fill="#E1B49A"/>
<rect x="84.771" y="38.8898" width="6.12793" height="0.472656" fill="#E1B49A"/>
<rect x="49.7478" y="38.8898" width="6.12793" height="0.472656" fill="#E1B49A"/>
<rect x="86.0249" y="50.6846" width="6.12793" height="0.472656" fill="#E1B49A"/>
<rect x="51.0017" y="50.6846" width="6.12793" height="0.472656" fill="#E1B49A"/>
<rect x="86.0249" y="43.3629" width="6.12793" height="0.472656" fill="#E1B49A"/>
<rect x="51.0017" y="43.3629" width="6.12793" height="0.472656" fill="#E1B49A"/>
<rect x="84.771" y="37.9103" width="6.12793" height="0.472656" fill="#E1B49A"/>
<rect x="49.7478" y="37.9103" width="6.12793" height="0.472656" fill="#E1B49A"/>
<rect x="33.231" y="25.3738" width="18.2798" height="145.262" fill="#0081C6"/>
<path d="M46.5 80.1351L48.3224 72.8554L51.2511 71.8048L50.1707 79.4449L46.5 80.1351Z" fill="#86B2CB"/>
</g>
<path d="M50.6479 79.5221C51.0743 78.0143 51.2628 71.2018 52.1 68.332L56.2296 112.192L50.6479 141.826V79.5221Z" fill="#FED293"/>
<mask id="mask1_2047_2719" style="mask-type:alpha" maskUnits="userSpaceOnUse" x="64" y="68" width="13" height="24">
<path d="M64.0063 74.4365C64.0063 70.8885 66.8825 68.0124 70.4304 68.0124C73.9783 68.0124 76.8545 70.8885 76.8545 74.4365V91.2015H64.0063V74.4365Z" fill="#FFC36D"/>
</mask>
<g mask="url(#mask1_2047_2719)">
<path d="M64.0063 74.4365C64.0063 70.8885 66.8825 68.0124 70.4304 68.0124C73.9783 68.0124 76.8545 70.8885 76.8545 74.4365V91.2015H64.0063V74.4365Z" fill="#E1B49A"/>
<path d="M64.0063 75.4457C64.0063 71.8978 66.8825 69.0217 70.4304 69.0217C73.9783 69.0217 76.8545 71.8978 76.8545 75.4457V91.2015H64.0063V75.4457Z" fill="#FED293"/>
<mask id="mask2_2047_2719" style="mask-type:alpha" maskUnits="userSpaceOnUse" x="64" y="69" width="13" height="23">
<path d="M64.0063 75.4457C64.0063 71.8978 66.8825 69.0217 70.4304 69.0217C73.9783 69.0217 76.8545 71.8978 76.8545 75.4457V91.2015H64.0063V75.4457Z" fill="#FED293"/>
</mask>
<g mask="url(#mask2_2047_2719)">
<path d="M57.9857 75.4457C57.9857 71.9807 60.7947 69.1717 64.2598 69.1717C67.7248 69.1717 70.5338 71.9807 70.5338 75.4457V91.0515H57.9857V75.4457Z" stroke="#E1B49A" stroke-width="0.3"/>
<path d="M70.5804 75.4457C70.5804 71.9807 73.3894 69.1717 76.8545 69.1717C80.3196 69.1717 83.1286 71.9807 83.1286 75.4457V91.0515H70.5804V75.4457Z" stroke="#E1B49A" stroke-width="0.3"/>
</g>
</g>
<path d="M64.2193 110.276C64.2193 106.811 67.0283 104.002 70.4934 104.002C73.9585 104.002 76.7675 106.811 76.7675 110.276V126.891H64.2193V110.276Z" stroke="#E1B49A" stroke-width="0.3"/>
<path d="M86.2905 73.8121L86.2903 59.8806H85.588V73.8121L84.7964 79.626V97.2939H55.2593V97.6725H87.1758V79.626L86.2905 73.8121Z" fill="#E1B49A"/>
<path d="M87.2485 100.946H54.9907V101.325H87.2485V100.946Z" fill="#E1B49A"/>
<path d="M86.291 59.8806H54.6953V60.2588H86.291V59.8806Z" fill="#E1B49A"/>
<path d="M87.2485 101.862H54.9907V102.24H87.2485V101.862Z" fill="#E1B49A"/>
<path d="M86.291 60.7958H54.6953V61.174H86.291V60.7958Z" fill="#E1B49A"/>
<path d="M87.1758 120.144L87.1758 102.24L84.8682 102.24L84.8682 120.144L87.1758 120.144Z" fill="#E1B49A"/>
<path d="M86.0249 53.6589H81.4145V56.6266H75.6522V53.6589H65.0489V56.6266H59.1424V53.6589H54.5898" stroke="#E1B49A" stroke-width="0.3"/>
<rect x="54.5176" y="52.5573" width="0.741699" height="77.2209" fill="#E1B49A"/>
<path d="M69.6953 90.593H64.0796L64.3406 74.5607C64.8695 72.5637 65.8208 71.2295 66.9794 70.5724C68.5467 71.2777 69.4015 73.5158 69.6953 74.5607V90.593Z" fill="#85B3C9"/>
<path d="M76.5679 90.593H70.9521L71.2131 74.5607C71.7421 72.5637 72.6933 71.2295 73.852 70.5724C75.4193 71.2777 76.2741 73.5158 76.5679 74.5607V90.593Z" fill="#85B3C9"/>
<rect x="66.8267" y="70.2452" width="0.234375" height="20.5361" fill="#FED293"/>
<rect x="73.6992" y="70.2452" width="0.234375" height="20.5361" fill="#FED293"/>
<rect x="69.9819" y="81.6722" width="0.234375" height="5.90234" transform="rotate(90 69.9819 81.6722)" fill="#FED293"/>
<rect x="76.8545" y="81.6722" width="0.234375" height="5.90234" transform="rotate(90 76.8545 81.6722)" fill="#FED293"/>
<rect x="70.4272" y="34.9438" width="0.262695" height="12.4014" fill="#FAD194"/>
<path d="M72.1611 36.1103C71.6247 35.5122 70.9064 35.2767 70.6143 35.2338V37.3704L71.7187 37.1781C72.2171 37.582 72.9001 37.9131 73.3532 38.2048C73.8434 38.5204 74.251 39.2828 74.3799 39.489C74.483 39.654 75.4269 40.8969 75.9511 41.4212C75.4441 40.2868 74.394 38.3079 74.2496 38.2048C74.0691 38.0759 72.8316 36.858 72.1611 36.1103Z" fill="#015792"/>
<mask id="mask3_2047_2719" style="mask-type:alpha" maskUnits="userSpaceOnUse" x="-10" y="-1" width="47" height="135">
<path d="M29.5 71.5C28 67.3333 19.5 47.1 -2.5 -0.5L-9.5 24L-1.5 133.5H37V76.5H32.5H24.5V75.5V74.5L25.5 74H26.5L27.5 73.5L28 73L28.5 72.5L29.5 71.5Z" fill="#FFCB80"/>
</mask>
<g mask="url(#mask3_2047_2719)">
<path d="M29.5 71.5C28 67.3333 19.5 47.1 -2.5 -0.5L-9.5 24L-1.5 133.5H37V76.5H32.5H24.5V75.5V74.5L25.5 74H26.5L27.5 73.5L28 73L28.5 72.5L29.5 71.5Z" fill="#FFCB80"/>
<path d="M-6.1709 3.28613L28.6489 74.7908L27.7446 75.0723L-6.1709 8.10495V3.28613Z" fill="#0081C6"/>
<path d="M-9.10425 6.37161L27.4479 77.0064L26.5507 77.3099L-8.98681 11.189L-9.10425 6.37161Z" fill="#0081C6"/>
<rect x="24.4692" y="75.0723" width="3.60986" height="64.5528" fill="#0081C6"/>
</g>
<mask id="mask4_2047_2719" style="mask-type:alpha" maskUnits="userSpaceOnUse" x="65" y="8" width="157" height="165">
<path d="M65 131.5V119.5L100.5 110.5V108.5C108.833 105.833 126.9 99.1 132.5 93.5C134.1 93.1 136.5 93.3333 137.5 93.5L144.5 86V78L146 77L149 57H151.5L153.5 64.5H160.5L177.5 40.5V38L174 36.5L176 33.5L177 33V27L175.5 26.5L176 16.5H182V18.5L188.5 8L221.5 43C212.497 85.3983 195.036 169.344 195.933 171.94C196.024 171.968 196.047 171.988 196 172C195.972 172.007 195.949 171.987 195.933 171.94C192.943 171.009 116.821 161.353 78 156.5L65 131.5Z" fill="#0081C6"/>
</mask>
<g mask="url(#mask4_2047_2719)">
<path d="M65 131.5V119.5L100.5 110.5V108.5C108.833 105.833 126.9 99.1 132.5 93.5C134.1 93.1 136.5 93.3333 137.5 93.5L144.5 86V78L146 77L149 57H151.5L153.5 64.5H160.5L177.5 40.5V38L174 36.5L176 33.5L177 33V27L175.5 26.5L176 16.5H182V18.5L188.5 8L221.5 43C212.497 85.3983 195.036 169.344 195.933 171.94C196.024 171.968 196.047 171.988 196 172C195.972 172.007 195.949 171.987 195.933 171.94C192.943 171.009 116.821 161.353 78 156.5L65 131.5Z" fill="#0081C6"/>
<rect x="100.406" y="83.6937" width="32.0928" height="76.0458" fill="#0A98E4"/>
<rect x="144.574" y="43.7108" width="9.03125" height="109.759" fill="#0A98E4"/>
<path d="M152.034 67.6635L148.724 56.2349L154.556 54.895L161.492 57.2595L160.546 67.6635H152.034Z" fill="#0081C6"/>
<path d="M153.471 75.2979L160.588 63.945V153.47H153.471V75.2979Z" fill="#0081C6"/>
<rect x="182.21" y="-14.6975" width="2.03271" height="159.4" fill="#00486F"/>
</g>
<mask id="mask5_2047_2719" style="mask-type:alpha" maskUnits="userSpaceOnUse" x="14" y="67" width="6" height="30">
<path d="M19.5577 96.3684V77.163L14.103 67.5035V92.6227L19.5577 96.3684Z" fill="#0081C6"/>
</mask>
<g mask="url(#mask5_2047_2719)">
<path d="M19.5577 96.3684V77.163L14.103 67.5035V95.8001L19.5577 96.3684Z" fill="#0081C6"/>
<rect x="9.89014" y="77.1281" width="15.4395" height="22.6522" fill="#AFC3C1"/>
</g>
<mask id="mask6_2047_2719" style="mask-type:alpha" maskUnits="userSpaceOnUse" x="1" y="50" width="6" height="39">
<path d="M6.96488 88.9345V62.271L1.51025 50.1626V85.1889L6.96488 88.9345Z" fill="#0081C6"/>
</mask>
<g mask="url(#mask6_2047_2719)">
<path d="M6.96488 88.9345V59.3778L1.51025 44.512V88.06L6.96488 88.9345Z" fill="#0081C6"/>
<rect x="-2.70264" y="62.271" width="15.4395" height="30.0755" fill="#AFC3C1"/>
</g>
<mask id="mask7_2047_2719" style="mask-type:alpha" maskUnits="userSpaceOnUse" x="13" y="98" width="6" height="25">
<path d="M18.8894 101.916V122.505H13.6831V98.8398L18.8894 101.916Z" fill="#0081C6"/>
</mask>
<g mask="url(#mask7_2047_2719)">
<path d="M18.8894 101.916V122.505H13.6831V98.8398L18.8894 101.916Z" fill="#0081C6"/>
<rect x="10.6064" y="101.862" width="11.3594" height="24.0303" fill="#AFC3C1"/>
</g>
<mask id="mask8_2047_2719" style="mask-type:alpha" maskUnits="userSpaceOnUse" x="1" y="94" width="6" height="29">
<path d="M6.96483 97.1124V122.505H1.75854V94.4241L6.96483 97.1124Z" fill="#0081C6"/>
</mask>
<g mask="url(#mask8_2047_2719)">
<path d="M6.96483 94.7613V122.505H1.75854V90.6157L6.96483 94.7613Z" fill="#0081C6"/>
<rect x="-1.31812" y="97.1124" width="11.3594" height="28.7795" fill="#AFC3C1"/>
</g>
<path d="M68.9419 122.472L70.3076 122.125V135.862H68.9419V122.472Z" fill="#00486F"/>
<path d="M71.7131 121.754L73.0789 121.407V135.145H71.7131V121.754Z" fill="#00486F"/>
<path d="M76.9175 120.834L78.2832 120.487V134.224H76.9175V120.834Z" fill="#00486F"/>
<path d="M88.5131 118.056L89.8788 117.709V131.446H88.5131V118.056Z" fill="#00486F"/>
<path d="M79.9141 120.142L81.2798 119.858V133.532H79.9141V120.142Z" fill="#00486F"/>
<path d="M91.5098 117.364L92.8755 117.08V130.754H91.5098V117.364Z" fill="#00486F"/>
<path d="M103.606 113.932L106.216 113.305V124.138L103.606 124.616V113.932Z" fill="#0081C6"/>
<path d="M107.313 112.875L109.923 111.877V122.997L107.313 123.71V112.875Z" fill="#0081C6"/>
<path d="M121.685 108.17L124.466 107.03V118.15L121.685 119.006V108.17Z" fill="#0081C6"/>
<path d="M125.107 106.873L127.816 105.247V116.368L125.107 117.709V106.873Z" fill="#0081C6"/>
<mask id="mask9_2047_2719" style="mask-type:alpha" maskUnits="userSpaceOnUse" x="145" y="92" width="75" height="33">
<ellipse cx="182.362" cy="108.448" rx="37.1121" ry="16.1295" fill="#3C7534"/>
</mask>
<g mask="url(#mask9_2047_2719)">
<ellipse cx="182.362" cy="108.448" rx="37.1121" ry="16.1295" fill="#3C7534"/>
<ellipse cx="189.093" cy="121.82" rx="32.4072" ry="11.1479" fill="#065E32"/>
<ellipse cx="161.809" cy="88.0478" rx="32.4072" ry="11.1479" transform="rotate(-11.6756 161.809 88.0478)" fill="#CBB500"/>
</g>
<mask id="mask10_2047_2719" style="mask-type:alpha" maskUnits="userSpaceOnUse" x="145" y="113" width="44" height="21">
<ellipse cx="166.644" cy="123.523" rx="21.8936" ry="9.51528" transform="rotate(-12.0065 166.644 123.523)" fill="#3C7534"/>
</mask>
<g mask="url(#mask10_2047_2719)">
<ellipse cx="166.644" cy="123.523" rx="21.8936" ry="9.51528" transform="rotate(-12.0065 166.644 123.523)" fill="#3C7534"/>
<ellipse cx="172.169" cy="130.413" rx="19.118" ry="6.57648" transform="rotate(-12.0065 172.169 130.413)" fill="#065E32"/>
<ellipse cx="152.281" cy="114.274" rx="19.118" ry="6.57649" transform="rotate(-23.6821 152.281 114.274)" fill="#CBB500"/>
</g>
</g>
<defs>
<filter id="filter0_f_2047_2719" x="-40" y="35.0723" width="304.783" height="214.856" filterUnits="userSpaceOnUse" color-interpolation-filters="sRGB">
<feFlood flood-opacity="0" result="BackgroundImageFix"/>
<feBlend mode="normal" in="SourceGraphic" in2="BackgroundImageFix" result="shape"/>
<feGaussianBlur stdDeviation="20" result="effect1_foregroundBlur_2047_2719"/>
</filter>
<clipPath id="clip0_2047_2719">
<rect width="188" height="125" rx="8" fill="white"/>
</clipPath>
</defs>
</svg>
