<svg width="188" height="126" viewBox="0 0 188 126" fill="none" xmlns="http://www.w3.org/2000/svg">
<g clip-path="url(#clip0_2122_2833)">
<rect y="0.582764" width="188" height="125" rx="8" fill="#6397FD"/>
<circle cx="192.158" cy="47.1126" r="35.3411" fill="#E5E5E5"/>
<circle cx="160.668" cy="75.5337" r="27.3323" fill="#E5E5E5"/>
<circle cx="10.0852" cy="85.3031" r="43.3337" fill="#E5E5E5"/>
<circle cx="-3.74905" cy="34.3969" r="22.6255" fill="#E5E5E5"/>
<rect x="166.706" y="66.7024" width="67.0482" height="123.869" fill="#3C7DFA"/>
<rect x="135.785" y="75.5337" width="67.0482" height="126.474" fill="#3C7DFA"/>
<rect x="-11.1978" y="66.7024" width="36.5655" height="149.347" fill="#3C7DFA"/>
<rect x="18.8765" y="101.372" width="47.155" height="132.045" fill="#3C7DFA"/>
<path d="M12.2938 363.439L21.9403 418.828L165.246 414.682L184.055 375.3L181.212 351.008L152.01 345.888L150.226 325.279L151.475 319.747L146.989 281.518L141.059 242.461V174.946L154.11 169.9L164.028 128.66L160.548 117.35V111.607L165.246 103.255L162.636 98.0349L157.59 95.0767L152.022 103.255C145.061 94.2067 131.036 75.9707 130.619 75.4139C130.201 74.8571 121.628 67.4096 117.394 63.7554L112.87 48.6168L107.128 28.2579L125.573 22.1677L104.17 21.2976L117.394 8.0731L97.2095 13.9893L90.5972 12.0753L70.7604 -3.97389L77.8947 10.8572L52.1416 4.07093L70.7604 17.4695L52.1416 22.1677L70.7604 24.9518L58.5798 34.8702L70.7604 32.9561L73.7185 36.9583L76.5026 50.5309V57.4912L60.5942 52.3213L26.3362 -35.7218L18.1538 -37.6856C18.0447 -29.8304 17.892 -12.0909 18.1538 -3.97389C18.4811 6.17234 37.7917 42.175 37.7917 52.3213C37.7917 62.4675 38.4463 59.1945 37.7917 68.3589C37.1371 77.5232 43.3557 98.7976 46.3014 106.98C49.2471 115.162 45.3195 121.381 43.3557 126.618C41.3919 131.855 42.7011 147.892 43.3557 155.42C44.0103 162.948 50.5563 174.403 49.9017 183.24C49.378 190.31 51.2962 234.11 52.3208 255.126L56.9805 260.091L59.3485 278.806L57.5916 302.257L60.4943 304.549L59.7304 312.187L50.4111 335.944L47.5084 341.062L30.9643 347.258L26.919 359.705L12.2938 363.439Z" fill="#FD7C8E"/>
<path fill-rule="evenodd" clip-rule="evenodd" d="M10.5876 361.446C11.0813 367.8 12.012 380.083 12.8792 392.513L184.85 398.63V375.616L185.482 362.259C185.155 360.485 184.981 356.69 184.924 349.944L165.797 346.119C165.771 346.121 165.745 346.122 165.719 346.122C165.368 346.122 164.987 346.034 164.611 345.882L154.997 343.959C154.953 343.706 154.907 343.441 154.86 343.165C154.046 342.851 153.525 342.347 153.525 341.795C153.525 341.008 153.001 338.124 152.476 335.633C150.982 328.163 150.685 325.281 152.201 323.294V315.574C151.864 313.485 151.61 310.295 151.296 305.214C151.034 300.362 150.247 295.642 149.723 294.724C147.887 291.709 147.756 283.186 149.592 279.515C150.51 277.548 151.296 275.319 151.165 274.664L151.165 274.66C151.033 273.868 150.509 270.726 149.985 267.452C149.81 266.36 149.606 265.136 149.403 263.912C148.995 261.465 148.587 259.017 148.412 257.618C148.15 255.389 147.625 252.243 147.232 250.407C146.838 248.571 146.183 243.327 145.658 238.607C144.872 230.608 144.872 227.068 145.527 220.906C145.658 219.464 145.265 213.563 144.609 207.794C142.512 188.782 142.905 177.506 145.396 179.08C146.052 179.473 149.854 179.998 153.788 180.26C159.95 180.522 161.261 180.129 164.146 177.113C165.981 175.277 168.342 170.426 169.259 166.493C171.226 159.019 171.357 138.827 169.653 131.747C169.448 130.876 169.223 129.966 169.017 129.133C168.696 127.832 168.421 126.719 168.342 126.24C168.21 125.322 166.506 122.962 164.539 120.864L160.999 117.193L164.277 110.899C166.113 107.359 167.555 103.557 167.555 102.377C167.555 99.4922 162.31 94.3787 159.294 94.3787C156.672 94.3787 156.672 94.5098 159.426 97.3943C162.966 101.197 162.966 102.377 159.688 107.753C156.541 112.997 156.41 115.751 159.163 120.077C162.048 124.404 160.212 125.978 157.065 121.913L154.443 118.635V122.175C154.443 124.404 153.788 125.715 152.87 125.453C151.952 125.322 151.296 125.715 151.427 126.502C151.559 128.076 147.494 132.009 146.707 131.091C146.445 130.698 146.052 131.353 145.921 132.402C145.396 135.287 139.758 146.956 139.103 146.301C137.267 144.465 137.66 137.385 139.758 132.271C144.872 120.602 148.15 113.259 150.641 108.015L153.394 102.639L149.985 97.1321C148.15 94.2475 146.576 90.7074 146.576 89.2651C146.576 87.8228 145.396 85.8561 143.823 84.8072C142.38 83.7582 141.069 81.9226 140.807 80.8737C140.414 77.5958 137.529 74.9734 129.138 70.2533C119.828 65.0086 114.19 57.9283 117.731 55.6994C118.386 55.306 117.862 53.3393 116.682 51.2414C114.846 47.9635 114.846 46.9146 116.288 44.1611C117.862 41.1454 117.731 40.621 113.928 37.0808C108.421 32.2295 109.47 29.6072 118.124 26.7226C121.926 25.5426 125.598 23.9692 126.253 23.3136C127.04 22.5269 126.909 22.3958 125.598 22.7892C124.549 23.0514 120.615 23.707 117.075 24.1003C111.175 24.7559 110.257 24.4937 109.077 21.8713C107.897 19.3801 108.421 18.2001 113.01 13.3488L118.386 7.57967L111.83 11.2509C105.537 14.66 97.4076 16.4956 98.8499 14.1355C99.2432 13.611 98.5876 12.6932 97.5387 12.2999C95.1786 11.382 94.7853 7.05521 96.752 2.07279C98.8499 -3.4341 95.9653 -2.90963 93.4741 2.59725C91.114 7.97302 87.8361 11.5132 85.6071 11.6443C83.5093 11.6443 78.9202 6.79297 74.9867 0.49939C73.02 -2.6474 70.791 -5.26972 70.1354 -5.26972C69.4798 -5.26972 69.4798 -4.48303 70.2665 -3.69633C71.0532 -2.77851 71.7088 -1.46735 71.8399 -0.680656C71.971 -0.0250778 72.7577 2.07279 73.5444 3.90841C77.609 13.7421 74.9867 14.9222 62.0062 8.6286C56.6304 6.00628 51.7791 3.90841 51.2547 3.90841C49.8124 3.90841 56.8927 9.54642 63.7107 14.0044C69.4798 17.6756 70.9221 20.8224 66.9886 21.0847C56.5162 21.6127 53.309 21.8454 51.7771 20.3555C51.0266 19.6256 50.6782 18.4823 50.0746 16.7578C49.1568 14.0044 45.4855 5.74404 41.8143 -1.59847C38.2741 -9.0721 33.9473 -19.8236 32.3739 -25.5928C30.8005 -31.3619 28.7027 -37.6554 27.5226 -39.6222C24.638 -44.4735 26.867 -49.3248 32.505 -50.5048C36.4385 -51.4227 36.5696 -51.6849 35.7829 -55.8806C35.3896 -58.634 35.5207 -60.3386 36.4385 -60.3386C37.0941 -60.3386 37.7497 -61.2564 37.7497 -62.3053C37.7497 -63.3542 35.6518 -64.7965 32.6361 -65.5832C29.3582 -66.3699 27.2604 -67.8122 26.867 -69.5167C26.2114 -72.2701 27.1293 -73.4502 33.2917 -76.4659C36.3074 -78.0393 37.6186 -79.7438 38.143 -82.8906C38.4053 -85.2507 38.5364 -87.4796 38.2741 -87.7419C38.0119 -88.0041 35.914 -86.2996 33.554 -83.8084L29.3582 -79.3504L28.5715 -83.415C26.9981 -90.6264 24.2447 -92.8554 22.9335 -87.873C22.5402 -86.2996 19.7867 -84.0706 16.2466 -82.4972C10.2153 -79.8749 8.90409 -77.5148 11.3953 -73.5813C13.4932 -70.3034 11.3953 -66.8944 6.15065 -65.5832C0.905998 -64.1409 -1.97856 -61.6497 1.56158 -61.6497C3.92167 -61.6497 4.31502 -57.5851 2.21716 -55.4873C1.16823 -54.4383 1.6927 -53.5205 3.79056 -51.9471C5.49507 -50.7671 7.59293 -49.8493 8.37963 -49.8493C10.6086 -49.8493 11.7886 -46.178 10.3464 -43.5557C8.64186 -40.2778 9.8219 -31.2307 12.0509 -29.9196C13.0998 -29.264 14.2799 -25.855 14.8043 -21.9215C15.7221 -14.4479 16.64 -5.53196 16.64 -3.04075C16.9022 0.761627 20.5734 -1.59847 21.4913 -5.92531C22.5402 -11.4322 23.9825 -11.9567 24.3758 -6.97424C25.1625 5.48181 28.0471 19.3801 30.1449 21.8713C30.9316 22.7892 31.1939 23.5759 30.6694 23.5759C30.276 23.5759 31.0627 25.5426 32.3739 27.7716C33.6851 30.1317 35.5207 34.3274 36.4385 37.212C37.8808 41.801 38.2741 42.1944 41.9454 41.4077C45.7478 40.621 45.8789 40.621 43.2566 42.9811C40.372 45.4723 38.0119 51.6348 36.8319 59.6328C35.5207 69.0732 35.914 72.6134 38.2741 71.6955C39.3231 71.3022 39.9786 71.8267 39.9786 73.1378C39.9786 79.6936 42.2076 80.7426 44.3055 75.3668C46.01 70.7777 46.7967 71.3022 45.7478 76.2846C44.4366 82.5782 44.6988 84.545 46.9278 84.545C48.5012 84.545 48.8946 86.2495 48.8946 92.4119C48.8946 100.541 50.0746 104.212 52.3036 102.77C53.877 101.852 55.8437 97.001 56.7615 92.0186C57.0238 90.0518 58.2038 86.1183 59.3839 83.2338L61.3506 77.9891L60.4328 83.2338C60.0394 86.1183 58.5972 91.7563 57.1549 95.6898C52.0413 110.637 52.9592 116.668 58.7283 105.392C60.4328 102.115 62.2684 99.2299 62.7929 98.8366C63.3174 98.5744 59.9083 105.917 55.3193 115.226C50.5991 124.535 46.5345 133.845 46.1411 135.811C45.7478 137.778 45.2233 139.876 44.83 140.4C44.5677 140.925 44.83 141.712 45.4855 142.105C46.1411 142.498 46.9278 141.187 47.3212 139.22C48.3701 134.107 61.6128 114.571 69.6109 106.441C77.2157 98.7055 89.1473 89.134 95.3097 85.8561C101.734 82.5782 106.192 81.1359 105.275 82.5782C104.881 83.3649 103.832 83.8894 103.177 83.8894C98.4565 83.8894 77.0846 103.557 66.7264 117.324C62.3995 123.093 56.2371 132.271 54.9259 135.025L53.3525 138.303L55.7126 135.287C57.0238 133.582 60.9573 129.124 64.3663 125.453C70.1354 119.16 70.3976 119.029 67.2508 123.88C63.0551 130.173 60.8261 135.156 58.7283 142.892C57.9416 146.17 56.2371 149.71 55.1881 150.89C52.0413 154.561 48.6323 165.444 49.0257 171.344C49.0713 172.438 49.1169 173.66 49.1625 174.881C49.248 177.172 49.3335 179.462 49.419 180.915C49.419 183.013 50.2057 184.849 51.1235 184.849C51.9102 184.849 52.3036 184.587 51.9102 184.062C51.5169 183.669 51.648 181.178 52.3036 178.555C52.7443 176.792 53.2444 174.259 53.6841 172.031C53.8985 170.945 54.0985 169.931 54.2703 169.115C55.4504 160.986 58.9905 151.545 62.7929 145.907C64.8907 142.892 66.5953 140.138 66.5953 139.745C66.5953 139.352 68.0375 136.991 69.7421 134.369C73.02 129.649 74.4622 129.649 73.6755 134.369C73.4133 135.811 72.8888 139.876 72.4955 143.416C71.971 146.956 71.3154 151.021 71.0532 152.594C70.9491 153.219 70.7828 154.113 70.5956 155.12C70.3116 156.648 69.9792 158.435 69.7421 159.937C69.3487 162.428 68.562 166.755 67.9064 169.639C66.333 176.589 68.4309 173.835 71.1843 165.181C72.4955 161.248 74.0689 157.183 74.8556 156.266C75.5112 155.479 75.6423 154.692 75.1178 154.692C74.5934 154.692 74.7245 153.905 75.3801 152.988C76.1667 152.201 77.7401 148.136 79.0513 144.203C80.3625 140.269 81.8047 136.336 82.3292 135.68C82.9848 134.894 83.3782 133.845 83.3782 133.32C83.5093 132.009 92.6874 112.997 95.1786 109.064C98.3254 104.081 98.1943 106.572 94.7853 116.8C91.5074 125.978 86.6561 143.154 85.476 148.792C85.2138 150.234 84.1648 153.119 83.1159 155.348C82.067 157.446 80.4936 164.001 79.7069 169.771C78.7891 175.54 77.8713 181.309 77.609 182.62C77.3468 183.931 74.3311 189.569 70.791 195.076C64.8907 204.254 64.2352 206.09 63.7107 214.35C63.1862 223.135 61.6128 227.724 54.5326 242.147C50.7302 249.883 50.7302 254.865 54.2703 261.945C55.9748 265.354 57.6793 270.992 58.0727 274.532C58.7283 281.613 59.9083 284.104 60.1706 279.121C60.4328 273.221 60.695 270.074 63.3174 246.474C63.426 245.442 63.5796 243.757 63.7595 241.784C64.0141 238.994 64.3213 235.625 64.6285 232.706C64.8496 230.551 65.0706 228.256 65.272 226.165C65.5485 223.295 65.788 220.808 65.9397 219.595C66.2019 217.366 66.5953 213.432 66.7264 210.81C66.9886 207.139 68.2998 204.647 72.1021 200.976C76.6912 196.518 76.9535 196.387 76.429 199.403C75.6423 204.123 73.02 249.883 72.6266 266.928C72.3644 276.499 73.5444 282.531 75.5112 281.35C76.0356 281.088 77.2157 281.219 78.1335 281.744C80.7558 283.317 76.5601 287.906 65.6774 295.118C57.0238 301.018 56.106 302.067 57.8105 303.771C59.2527 305.345 59.3839 306.787 58.466 311.114C58.2913 311.918 58.0979 312.787 57.9033 313.662C57.3677 316.068 56.8228 318.517 56.6304 319.768C56.2371 321.472 54.6637 325.668 53.0903 328.946C48.8946 337.599 48.8946 337.73 51.1235 335.895C52.3036 334.977 54.5326 331.175 56.2371 327.372C59.2527 320.423 59.515 319.636 59.9083 317.276C59.9083 316.49 60.5639 315.965 61.2195 315.965C62.6618 315.965 58.3349 336.55 56.6304 338.255C55.9748 338.911 53.7459 339.828 51.648 340.353C48.6323 341.008 48.1079 340.877 48.8946 339.435C49.5501 338.255 49.0257 338.517 47.4523 339.828C46.01 341.008 42.9943 342.32 40.7653 342.844C35.7829 343.631 29.8827 345.729 29.8827 346.777C29.8827 347.04 31.1939 346.909 32.8984 346.253C34.4718 345.597 38.143 344.811 41.0276 344.417C43.9121 344.024 47.19 343.368 48.239 342.975C49.2879 342.582 52.3036 342.057 54.7948 341.664C57.286 341.271 60.8261 340.615 62.6618 340.222C63.7954 339.979 65.4792 339.686 67.0954 339.405C68.0961 339.231 69.0709 339.061 69.8732 338.911C70.378 338.821 70.9298 338.726 71.5028 338.626C73.4602 338.286 75.6646 337.904 77.0846 337.599C78.2183 337.356 79.9022 337.063 81.5184 336.782C82.5191 336.608 83.4938 336.439 84.296 336.288C84.8003 336.199 85.3516 336.103 85.924 336.004C87.8818 335.664 90.087 335.281 91.5074 334.977C92.7903 334.702 94.6496 334.363 96.3692 334.05C97.11 333.915 97.8249 333.784 98.4565 333.666L101.997 333.01V342.844C101.997 349.408 101.997 351.59 100.944 352.394C100.419 352.795 99.6337 352.853 98.4565 352.94C96.7337 352.94 94.392 353.117 92.5931 353.253C92.2014 353.282 91.8355 353.31 91.5074 353.333C89.6717 353.464 82.9848 353.989 76.429 354.513C75.5277 354.587 74.5904 354.663 73.6346 354.741C67.7771 355.217 61.229 355.749 58.0727 356.087C54.5326 356.349 47.4523 356.873 42.3387 357.267C26.867 358.447 13.6243 360.151 11.2642 361.2C11.0152 361.307 10.7903 361.39 10.5876 361.446ZM21.0979 -79.8749C22.278 -80.7927 23.3269 -81.8416 23.3269 -82.1039C23.3269 -83.1528 22.278 -82.4972 20.5734 -80.3994C18.8689 -78.3015 19 -78.1704 21.0979 -79.8749ZM10.2153 -59.683C11.002 -59.1585 11.5264 -60.0763 11.5264 -61.5186C11.5264 -64.7965 10.7397 -65.0587 9.8219 -62.3053C9.29744 -61.2564 9.55967 -60.0763 10.2153 -59.683ZM13.8865 -61.1253C14.5421 -60.7319 15.0666 -61.2564 15.0666 -62.3053C15.0666 -64.5343 14.6732 -64.7965 13.4932 -63.092C13.0998 -62.4364 13.2309 -61.5186 13.8865 -61.1253ZM6.15065 -58.634C7.19958 -57.5851 7.59293 -57.9785 7.59293 -60.0763C7.59293 -63.2231 6.93735 -63.7476 5.49507 -61.5186C5.10172 -60.7319 5.36395 -59.4207 6.15065 -58.634ZM24.9003 -24.2816C25.8181 -23.3638 26.0803 -24.1505 25.4247 -26.9039C24.1136 -32.1486 21.8846 -34.3775 22.8024 -29.3951C23.1958 -27.2973 24.1136 -25.0683 24.9003 -24.2816ZM91.2451 23.0514C93.0807 23.0514 93.7363 22.658 92.9496 21.8713C92.2941 21.2158 89.0161 20.5602 85.7382 20.298C80.6247 20.0357 79.7069 20.4291 79.7069 22.3958C79.7069 23.8381 80.1002 24.887 80.7558 25.0181C81.0267 25.0181 81.6825 25.1231 82.5423 25.2607C83.3471 25.3895 84.3307 25.5469 85.3449 25.6737C87.8361 26.0671 88.7539 25.8048 88.6228 24.6248C88.3606 23.5759 89.4095 22.9203 91.2451 23.0514ZM70.1354 29.8694C71.971 29.0827 78.3957 22.9203 78.3957 22.0025C78.3957 19.9046 75.5112 21.0847 72.4955 24.2314C70.9221 26.0671 69.2176 26.9849 68.9554 26.3293C68.8242 25.5426 64.8907 24.6248 60.4328 24.2314C51.5169 23.4447 51.1235 23.9692 56.2371 31.1806C58.2038 33.934 58.5972 34.0652 63.8418 32.0984C65.2401 31.6121 66.582 31.1257 67.6714 30.7309C68.9316 30.2741 69.8541 29.9398 70.1354 29.8694ZM89.934 32.8851C91.114 33.8029 90.7207 33.0162 88.885 31.0495C84.5582 26.4604 79.3135 25.6737 76.2979 28.9516C74.0689 31.4428 74.0689 31.574 76.8223 32.3606C80.3625 33.2785 80.6247 36.163 77.0846 37.0808C75.2489 37.6053 74.7245 38.5231 75.2489 41.1454C76.2979 46.9146 78.2646 51.1103 80.3625 51.897C83.7715 53.3393 84.0337 51.5036 81.0181 47.1768C78.3957 43.5056 78.2646 42.85 79.9691 37.6053C82.067 31.574 85.8694 29.8694 89.934 32.8851ZM73.2822 41.9321C72.6266 41.9321 71.4466 40.0965 70.6599 37.9987C70.0043 35.7697 69.2176 34.1963 68.9554 34.3274C68.6931 34.4585 66.333 34.7207 63.5796 34.983C59.3839 35.5074 58.8594 35.9008 60.1706 37.4742C60.9573 38.5231 61.3506 39.3098 60.8261 39.3098C60.4328 39.3098 61.0884 41.1454 62.3995 43.5056C63.8418 46.1279 66.4641 48.2257 69.6109 49.2747L74.4622 50.9792V46.3901C74.4622 44.03 73.9378 41.9321 73.2822 41.9321ZM84.0337 38.6542C82.7226 42.1944 84.8204 42.5877 87.9672 39.5721L90.7207 36.6875H87.8361C86.2627 36.6875 84.5582 37.6053 84.0337 38.6542ZM115.633 60.944L113.404 57.6661C112.128 55.8807 110.357 52.7308 109.175 50.6295L109.077 50.4547L107.11 46.5212L107.897 50.4547C108.29 52.5526 110.257 55.8305 112.093 57.6661L115.633 60.944ZM84.8204 68.1554C85.6071 68.1554 89.1473 60.6818 89.4095 58.1906C89.5406 57.6661 88.6228 57.1416 87.4427 57.0105C86.0005 56.7483 85.6071 57.535 86.0005 60.4195C86.3938 63.0419 85.8694 64.4841 84.4271 65.0086C82.4603 65.7953 82.7226 68.1554 84.8204 68.1554ZM109.995 77.0713C109.47 77.9891 107.766 78.2514 105.93 77.858C99.5055 76.4157 89.5406 76.0224 86.6561 77.3335C82.5914 79.0381 82.8537 80.4803 86.9183 79.4314C91.5074 78.2514 90.9829 79.1692 85.3449 82.7093C82.7226 84.4138 77.8713 88.3473 74.5934 91.4941L68.562 97.2632L75.1178 92.8053C84.8204 86.2495 95.8342 81.267 102.39 80.4803C109.077 79.5625 111.568 81.6604 106.979 84.0205C103.046 86.1183 94.7853 92.543 88.885 98.0499L84.296 102.377L88.885 99.3611C91.3762 97.6566 95.572 94.772 98.1943 92.6741C105.799 86.905 105.668 88.6095 98.0632 96.6076L90.8518 103.95L98.8499 97.5255C109.339 89.134 113.01 83.7582 111.83 79.0381C111.306 76.8091 110.65 76.0224 109.995 77.0713ZM116.944 77.4647C115.633 79.5625 126.778 79.3003 128.875 77.0713C129.269 76.6779 126.909 76.4157 123.631 76.4157C120.353 76.4157 117.337 76.9402 116.944 77.4647ZM127.04 100.934C125.466 97.6566 123.5 93.9853 122.582 92.6741C120.746 90.4452 118.255 89.3962 119.566 91.4941C120.222 92.6741 121.009 96.6076 122.32 106.179C122.713 109.457 123.369 112.997 123.631 114.046C123.8 114.723 124.079 116.33 124.396 118.16C124.57 119.164 124.756 120.236 124.942 121.257C126.647 133.189 128.613 141.581 129.793 141.581C131.367 141.581 130.318 131.222 127.564 117.98C127.171 116.144 126.515 112.604 126.122 110.113L125.466 105.524L127.433 109.457C129.138 112.735 131.891 119.16 132.809 121.913C132.883 122.136 133.168 122.779 133.543 123.628C133.831 124.279 134.172 125.05 134.513 125.847C135.825 128.862 135.956 128.862 135.956 126.371C136.087 123.618 133.465 114.833 130.842 109.457C130.187 108.015 128.482 104.212 127.04 100.934ZM65.6774 95.8209C66.8575 94.9031 67.9064 93.8542 67.9064 93.592C67.9064 92.543 66.8575 93.1986 65.153 95.2965C63.4485 97.3943 63.5796 97.5255 65.6774 95.8209ZM117.924 113.852C116.887 106.059 116.24 101.2 115.895 99.3611C114.846 92.0186 114.453 98.4433 114.715 117.062C115.764 181.702 116.288 202.812 116.682 204.516C117.599 208.188 119.697 210.417 125.991 214.743L132.285 219.07L131.629 214.743C131.236 212.383 130.056 207.794 128.875 204.647C125.86 196.125 125.204 190.88 123.631 167.148C123.237 160.592 122.582 153.25 122.32 150.759C122.057 148.267 121.533 143.547 121.14 140.269C120.579 134.774 119.539 126.497 118.757 120.279C118.625 119.227 118.5 118.235 118.386 117.324C118.224 116.108 118.07 114.951 117.924 113.852ZM111.568 123.224C110.913 122.175 110.519 115.751 110.519 109.064C110.519 102.508 110.388 97.001 110.126 97.001C110.104 97.001 110.084 97.001 110.064 97.0033C109.717 97.044 109.453 97.789 104.619 111.424C101.866 119.16 100.817 120.995 101.341 117.324C102.128 111.948 102.914 108.146 103.308 108.146C103.412 108.146 103.599 107.316 103.87 106.118C103.939 105.811 104.014 105.479 104.095 105.13C104.357 103.557 104.357 102.246 104.095 102.246C103.308 102.246 91.5074 137.778 90.7207 142.367L90.0651 146.17L93.343 142.236C95.9653 139.22 96.4898 137.385 95.9653 133.976C95.1786 130.042 95.4408 129.649 100.161 127.682C103.046 126.502 106.848 125.453 108.946 125.322C111.699 125.191 112.355 124.798 111.568 123.224ZM109.864 191.405C110.781 202.156 111.83 181.833 111.83 156.003C111.83 131.485 111.568 129.124 109.601 128.731C107.504 128.338 106.717 128.993 106.979 131.222C107.241 132.665 108.946 167.935 109.208 177.637C109.362 180.556 109.515 183.924 109.643 186.715C109.733 188.688 109.809 190.373 109.864 191.405ZM105.143 191.405C104.619 173.704 104.095 152.594 104.095 144.465C104.095 136.467 103.701 129.78 103.177 129.78C101.472 129.78 100.685 131.747 100.685 135.811C100.685 138.303 99.5055 142.236 98.1943 144.727C97.957 145.134 97.7411 145.498 97.5434 145.872C95.4469 149.833 95.3912 154.874 93.4741 223.528C93.0807 236.509 92.4252 250.407 92.0318 254.341L91.2451 261.552L94.3919 258.798C99.8988 253.947 104.226 251.849 105.668 253.292C106.979 254.603 106.979 248.44 105.143 191.405ZM145.396 157.052C145.527 154.692 146.183 151.545 147.232 148.267C148.543 143.941 147.101 144.99 145.134 149.71C142.905 155.348 142.643 157.183 144.085 158.101C144.741 158.495 145.265 157.97 145.396 157.052ZM84.5582 267.19L84.6893 216.186C84.6893 188.127 84.4271 165.181 84.1648 165.181C83.9026 165.181 83.6404 165.968 83.5093 166.755C83.5093 167.673 83.247 169.639 82.9848 171.082C82.4603 173.573 81.1492 183.013 80.3625 190.094C80.1711 191.433 79.8402 194.726 79.4716 198.396C79.3349 199.755 79.1931 201.167 79.0513 202.55C78.7439 205.47 78.3915 208.84 78.0997 211.631C77.8935 213.603 77.7176 215.286 77.609 216.317C77.3468 218.808 76.6912 232.969 76.2979 247.654L75.3801 274.401L79.9691 270.73L84.5582 267.19ZM109.995 201.37C109.995 202.812 110.388 203.205 110.781 202.156C111.175 201.238 111.044 200.058 110.65 199.665C110.257 199.141 109.864 199.927 109.995 201.37ZM97.5387 293.282C97.8009 291.84 98.3254 285.153 98.7188 278.466C99.3743 267.977 99.2432 266.141 97.5387 266.141C96.4898 266.141 95.1786 266.797 94.7853 267.583C94.2608 268.37 93.7363 278.728 93.4741 290.791C93.343 302.854 92.8185 315.31 92.4252 318.587C91.7696 323.045 92.0318 322.521 93.4741 316.621C94.3919 312.294 95.7031 305.869 96.0964 302.329C96.2197 301.497 96.343 300.636 96.4646 299.786C96.8602 297.023 97.2378 294.385 97.5387 293.282ZM139.627 278.073C138.578 277.286 137.005 274.795 136.087 272.697C134.12 267.977 131.76 267.452 133.465 272.172C134.776 275.319 135.169 277.417 136.611 287.513C137.005 290.266 138.84 295.249 140.545 298.527C143.561 304.165 143.823 308.098 141.069 308.098C138.971 308.098 141.332 310.589 145.396 312.818L149.33 314.785L148.412 308.492C148.018 305.083 147.494 301.936 147.232 301.542C146.97 301.149 146.445 297.609 145.921 293.675C145.003 286.071 142.774 280.826 139.627 278.073ZM121.271 312.032C120.746 304.427 119.96 292.626 119.566 285.808C118.78 273.877 117.862 268.763 117.599 275.45C117.337 282.924 114.453 303.378 113.142 308.098C112.879 309.147 112.224 312.163 111.83 314.654C111.437 317.145 110.388 319.899 109.601 320.816C108.815 321.734 108.552 322.521 109.077 322.521C109.47 322.521 108.421 324.75 106.717 327.503L103.57 332.617L111.568 334.321C116.026 335.239 120.353 335.895 121.009 335.764C122.451 335.633 122.451 332.224 121.271 312.032ZM75.7734 316.49C76.6912 315.572 77.609 309.278 78.0024 302.329C78.3957 295.38 78.3957 289.742 77.8713 289.742C77.6424 289.742 77.4629 289.722 77.3183 289.784C76.7174 290.041 76.7206 291.709 76.2979 302.067C76.1667 308.492 75.5112 314.654 75.1178 315.834C74.4622 317.407 74.7245 317.539 75.7734 316.49ZM65.0219 329.732C66.4641 328.159 69.2176 319.899 70.1354 314.523C70.9221 308.885 69.4798 309.803 68.4309 315.572C67.9064 318.325 66.7264 322.914 65.6774 325.799C64.6285 328.683 64.3663 330.388 65.0219 329.732ZM83.6404 332.224C84.4271 331.437 84.6893 329.863 84.1648 328.683C82.8537 325.274 80.6247 326.061 75.6423 331.306C73.2822 333.928 72.2333 335.37 73.5444 334.453C74.7245 333.535 75.7734 333.141 75.7734 333.666C75.7734 334.19 76.6912 333.928 77.7401 333.01C78.7891 332.092 79.7069 331.83 79.7069 332.486C79.7069 333.141 80.3625 332.748 81.0181 331.699C82.067 329.995 82.3292 329.995 82.3292 331.568C82.3292 332.879 82.7226 333.141 83.6404 332.224Z" fill="#061C8B"/>
<path d="M152.201 295.651V293.027C151.378 294.25 151.126 295.165 151.559 295.511C151.741 295.618 151.959 295.661 152.201 295.651Z" fill="#061C8B"/>
</g>
<defs>
<clipPath id="clip0_2122_2833">
<rect y="0.582764" width="188" height="125" rx="8" fill="white"/>
</clipPath>
</defs>
</svg>
