<svg width="188" height="126" viewBox="0 0 188 126" fill="none" xmlns="http://www.w3.org/2000/svg">
<g clip-path="url(#clip0_2150_3165)">
<rect y="0.0661621" width="188" height="125" rx="8" fill="#4D89B3"/>
<g filter="url(#filter0_f_2150_3165)">
<ellipse cx="112.794" cy="113.405" rx="155.64" ry="63.4599" fill="#31ADF7"/>
</g>
<g filter="url(#filter1_f_2150_3165)">
<ellipse cx="98.9512" cy="127.821" rx="84.2734" ry="51.51" fill="#A3CCD0"/>
</g>
<g filter="url(#filter2_i_2150_3165)">
<circle cx="195.906" cy="105.167" r="92.6685" fill="white"/>
<circle cx="98.9512" cy="105.167" r="31.3372" fill="white"/>
<circle cx="6.60571" cy="6.60571" r="6.60571" transform="matrix(-1 0 0 1 74.2197 86.2728)" fill="white"/>
<circle cx="35.9023" cy="130.629" r="47.5643" fill="white"/>
</g>
<mask id="mask0_2150_3165" style="mask-type:alpha" maskUnits="userSpaceOnUse" x="83" y="-2" width="79" height="138">
<path d="M151.59 94.3286L153.717 135.409H94.5138V101.51H91.5948L87.5973 100.71V97.1126L83.4667 94.3286L87.5973 87.782L88.53 82.5447C91.3519 79.6227 97.2983 72.9086 98.5085 69.427C100.021 65.075 98.7562 57.2687 98.8501 56.4704C98.9253 55.8318 97.1284 54.5765 96.2206 54.0287C98.3336 52.3852 98.5085 52.3383 98.5085 51.1768C98.4004 46.2059 100.832 37.2367 102.669 33.1303C104.139 29.8452 110.449 21.2961 113.421 17.4322C113.547 16.3612 113.724 13.9815 113.421 13.0305C113.043 11.8417 114.124 12.3281 114.502 10.9773C114.804 9.89669 113.151 8.22171 112.287 7.5193C112.737 7.41124 113.81 7.10866 114.502 6.76286C115.193 6.41705 115.366 4.27739 115.366 3.25078C115.925 1.46774 117.473 -2.01189 119.202 -1.66608C120.932 -1.32028 122.769 1.75591 123.471 3.25078C124.305 4.02523 125.972 5.62815 125.972 5.84428C125.972 6.11444 123.957 8.32971 123.795 9.6805C123.633 11.0313 125.972 12.0579 125.524 13.0305C125.076 14.003 125.146 15.1377 125.972 17.4322C137.495 21.7634 142.623 37.9645 143.747 45.5237L146.198 47.4646L143.747 49.9162C143.712 51.7889 143.767 56.5968 144.257 60.8463C144.748 65.0958 149.842 68.3374 152.327 69.427L152.203 75.9679L156.889 76.4972L157.928 76.6531V77.7958H159.118V79.5987H161.901L159.118 82.5447V87.782L151.59 94.3286Z" fill="#783D43"/>
</mask>
<g mask="url(#mask0_2150_3165)">
<path d="M151.59 94.3286L153.717 135.409H94.5138V101.51H91.5948L87.5973 100.71V97.1126L83.4667 94.3286L87.5973 87.782L88.53 82.5447C91.3519 79.6227 97.2983 72.9086 98.5085 69.427C100.021 65.075 98.7562 57.2687 98.8501 56.4704C98.9253 55.8318 97.1284 54.5765 96.2206 54.0287C98.3336 52.3852 98.5085 52.3383 98.5085 51.1768C98.4004 46.2059 100.832 37.2367 102.669 33.1303C104.139 29.8452 110.449 21.2961 113.421 17.4322C113.547 16.3612 113.724 13.9815 113.421 13.0305C113.043 11.8417 114.124 12.3281 114.502 10.9773C114.804 9.89669 113.151 8.22171 112.287 7.5193C112.737 7.41124 113.81 7.10866 114.502 6.76286C115.193 6.41705 115.366 4.27739 115.366 3.25078C115.925 1.46774 117.473 -2.01189 119.202 -1.66608C120.932 -1.32028 122.769 1.75591 123.471 3.25078C124.305 4.02523 125.972 5.62815 125.972 5.84428C125.972 6.11444 123.957 8.32971 123.795 9.6805C123.633 11.0313 125.972 12.0579 125.524 13.0305C125.076 14.003 125.146 15.1377 125.972 17.4322C137.495 21.7634 142.623 37.9645 143.747 45.5237L146.198 47.4646L143.747 49.9162C143.712 51.7889 143.767 56.5968 144.257 60.8463C144.748 65.0958 149.842 68.3374 152.327 69.427L152.203 75.9679L156.889 76.4972L157.928 76.6531V77.7958H159.118V79.5987H161.901L159.118 82.5447V87.782L151.59 94.3286Z" fill="#FCEDCD"/>
<path d="M108.045 41.8853C108.003 41.5017 107.943 40.1716 108.045 37.9206L111.37 35.107H123.264L128.764 71.3007L140.402 143.944L110.219 131.283L108.045 90.2289L110.219 71.3007V46.7453V44.8269L108.045 41.8853Z" fill="#EFDFBD"/>
<path d="M117.316 40.2437V34.8401L145.891 39.213L170.961 71.8057L174.021 149.653L112.831 145.234L110.111 90.5026L118.601 76.5788L117.316 44.9361V43.0165V40.2437Z" fill="#635252"/>
<path d="M142.68 58.0305V49.4757L157.582 50.8555C159.491 55.5009 164.438 68.8028 156.766 69.9618C149.627 71.0405 142.68 63.0239 142.68 58.0305Z" fill="#2A1F1A"/>
<path d="M112.379 94.1776H153.361C154.412 98.013 156.513 105.936 156.513 106.945C156.513 108.206 154.937 137.209 153.361 136.893C152.1 136.641 109.752 134.897 88.7351 134.056L91.8875 101.901L104.655 96.5419L112.379 94.1776Z" fill="#2A1F1A"/>
<path d="M119.655 15.8169L125.984 16.15L127.935 11.2485L125.984 -0.648615L118.18 -2.36182C118.449 -0.664494 118.989 2.79678 118.989 3.06327C118.989 3.32976 119.433 6.02959 119.655 7.34619L119.893 9.91599L118.989 12.2002L119.655 15.8169Z" fill="#2A1F1A"/>
<path d="M118.196 10.7461C118.5 11.73 119.141 13.8804 119.27 14.6103L120.075 15.7911V12.4099L120.826 10.7461C120.772 9.90525 120.547 8.04111 120.075 7.31119C119.602 6.58128 120.772 6.04099 121.416 5.86209L120.075 2.96389L118.196 -1.16876C118.322 0.155112 118.583 2.9746 118.626 3.66158C118.669 4.34857 118.357 5.73686 118.196 6.34513C118.196 6.68504 118.411 7.6332 119.27 8.70661C120.128 9.78002 118.912 10.5135 118.196 10.7461Z" fill="#2A1F1A"/>
<path d="M117.439 40.2248C128.385 48.5706 143.503 47.8104 147.434 47.5685C155.034 46.1171 166.533 44.2907 151.728 48.5966C136.923 52.9026 122.519 46.6555 117.439 43.0672C114.881 44.2526 112.323 44.688 110.2 44.2526C107.345 51.2986 102.194 54.704 98.8716 56.519C97.8838 56.6803 95.9082 56.4344 95.9082 54.1605C103.165 53.8218 108.387 46.4229 108.911 41.7628C110.04 41.924 112.891 41.7246 117.439 40.2248Z" fill="#2A1F1A"/>
<path d="M145.103 51.3084C137.034 51.043 128.594 51.4146 117.339 44.7789C114.685 45.2566 112.031 45.5752 110.545 45.469C108.58 50.3529 105.024 55.9268 97.5917 58.0503" stroke="#2A1F1A" stroke-width="0.3"/>
<mask id="mask1_2150_3165" style="mask-type:alpha" maskUnits="userSpaceOnUse" x="89" y="14" width="67" height="39">
<path d="M144.293 45.0916C144.553 46.0784 146.107 43.9562 151.53 47.0726L155.242 42.0183L151.53 25.6681L129.84 14.4684C128.85 14.9086 126.367 15.8021 124.36 15.8549C122.353 15.9078 120.31 14.9526 119.54 14.4684L112.739 16.7133L89.3849 35.6196C89.0895 42.5278 90.3063 55.5184 97.5365 52.2149C106.574 48.0855 106.925 45.358 108.094 39.4367C111.288 39.7483 115.473 39.2036 117.421 37.8012C126.147 44.4704 134.661 47.0726 144.293 45.0916Z" fill="#FFF5DB"/>
</mask>
<g mask="url(#mask1_2150_3165)">
<path d="M144.293 45.0916C144.553 46.0784 146.107 43.9562 151.53 47.0726L155.242 42.0183L151.53 25.6681L129.84 14.4684C128.85 14.9086 126.367 15.8021 124.36 15.8549C122.353 15.9078 120.31 14.9526 119.54 14.4684L112.739 16.7133L89.3849 35.6196C89.0895 42.5278 90.3063 55.5184 97.5365 52.2149C106.574 48.0855 106.925 45.358 108.094 39.4367C111.288 39.7483 115.473 39.2036 117.421 37.8012C126.147 44.4704 134.661 47.0726 144.293 45.0916Z" fill="#FFF5DB"/>
<path d="M117.138 42.2493C117.138 35.1131 117.796 19.2749 120.428 13.012L124.477 14.4499L143.204 24.675L149.658 48.9596L132.322 52.1549L117.138 42.2493Z" fill="#635252"/>
<path d="M144.862 43.7819C135.894 44.9838 130.162 44.5215 117.31 36.2006C114.906 37.0326 112.872 37.9572 108.25 37.5874C107.726 41.4705 104.81 49.6805 97.34 51.4557" stroke="#2A1F1A" stroke-width="0.3"/>
<path d="M142.187 46.6969C141.412 33.7387 132.512 21.0393 127.959 16.4989C137.917 19.7495 157.897 26.3384 158.158 26.6885C158.419 27.0387 159.499 42.5224 160.006 50.2204C154.325 53.3653 142.807 57.0634 142.187 46.6969Z" fill="#2A1F1A"/>
<path d="M107.67 42.1217C108.156 36.7764 111.55 20.2215 115.032 14.3094" stroke="#635252" stroke-width="0.3"/>
</g>
<ellipse cx="131.346" cy="60.7084" rx="7.47754" ry="6.88406" transform="rotate(79.8749 131.346 60.7084)" fill="#776D6D"/>
<path d="M135.842 66.5073C135.003 67.2603 133.98 67.7998 132.829 68.0371L132.526 66.568C132.483 66.5768 132.44 66.5851 132.397 66.5928C132.353 66.6006 132.31 66.6077 132.267 66.6142L132.491 68.0974C131.329 68.2732 130.182 68.1214 129.134 67.7051L129.688 66.3111C129.606 66.2784 129.524 66.2435 129.443 66.2065L128.82 67.5709C127.8 67.105 126.886 66.3845 126.16 65.4717L127.334 64.5381C127.277 64.4666 127.222 64.3935 127.168 64.319L125.953 65.1993C125.308 64.3087 124.834 63.2542 124.601 62.0871L126.072 61.7929C126.063 61.7471 126.054 61.7011 126.046 61.6549C126.037 61.6086 126.03 61.5625 126.022 61.5164L124.541 61.7494C124.356 60.5737 124.435 59.4206 124.732 58.3615L126.176 58.7671C126.201 58.6784 126.228 58.5907 126.257 58.5039L124.832 58.0344C125.197 56.9267 125.805 55.9344 126.601 55.1443L127.658 56.2086C127.721 56.1459 127.785 56.0848 127.851 56.0256L126.849 54.9095C127.688 54.1564 128.711 53.617 129.863 53.3797L130.166 54.8488C130.208 54.84 130.252 54.8317 130.295 54.8239C130.338 54.8162 130.382 54.809 130.425 54.8025L130.2 53.3194C131.363 53.1435 132.51 53.2954 133.557 53.7116L133.003 55.1056C133.086 55.1383 133.167 55.1732 133.248 55.2102L133.872 53.8458C134.892 54.3118 135.806 55.0322 136.532 55.9451L135.357 56.8787C135.414 56.9502 135.47 57.0232 135.524 57.0978L136.738 56.2174C137.384 57.1081 137.857 58.1626 138.091 59.3296L136.62 59.6239C136.629 59.6696 136.638 59.7156 136.646 59.7619C136.654 59.8081 136.662 59.8543 136.669 59.9004L138.151 59.6673C138.336 60.843 138.257 61.9962 137.959 63.0553L136.515 62.6497C136.49 62.7383 136.464 62.8261 136.435 62.9128L137.86 63.3824C137.495 64.49 136.887 65.4823 136.091 66.2725L135.034 65.2081C134.971 65.2709 134.906 65.3319 134.84 65.3911L135.842 66.5073Z" stroke="black" stroke-width="3" stroke-dasharray="0.3 3"/>
<path d="M132.115 65.0171C129.942 65.4052 127.818 63.806 127.391 61.4147C126.964 59.0233 128.403 56.7877 130.576 56.3997C132.749 56.0116 134.874 57.6107 135.301 60.0021C135.728 62.3935 134.288 64.6291 132.115 65.0171Z" stroke="black" stroke-width="0.3"/>
<ellipse cx="131.548" cy="60.7084" rx="0.652857" ry="0.601041" transform="rotate(79.8749 131.548 60.7084)" fill="black"/>
<path d="M129.649 58.0571L131.548 60.7362L130.827 57.3043L129.9 56.7446L129.649 58.0571Z" fill="black"/>
<path d="M129.381 62.448L131.548 60.6707L128.87 61.2391L128.387 62.1394L129.381 62.448Z" fill="black"/>
<path d="M104.562 69.9072C103.183 70.365 102.382 67.4494 102.772 63.3951C103.163 59.3407 104.597 55.6829 105.976 55.2251C107.355 54.7673 108.156 57.6829 107.766 61.7373C107.375 65.7917 105.941 69.4495 104.562 69.9072Z" fill="#D9D9D9"/>
<path fill-rule="evenodd" clip-rule="evenodd" d="M104.5 69.9257L104.813 66.9719C104.824 66.969 104.835 66.9657 104.846 66.962C104.857 66.9583 104.868 66.9542 104.879 66.9498L104.625 69.8844C104.604 69.8927 104.583 69.9003 104.562 69.9072C104.541 69.9142 104.521 69.9203 104.5 69.9257ZM105.89 68.5364L105.558 66.2234C105.581 66.1841 105.603 66.1434 105.626 66.1013L106.012 68.318C105.972 68.393 105.931 68.4658 105.89 68.5364ZM107.067 65.5592L106.244 64.4777C106.262 64.4141 106.279 64.3496 106.296 64.2843L107.152 65.2416C107.125 65.3486 107.096 65.4545 107.067 65.5592ZM107.749 61.9059L106.667 62.206C106.671 62.1703 106.674 62.1345 106.678 62.0985C106.681 62.0626 106.685 62.0268 106.688 61.9913L107.781 61.5691C107.776 61.625 107.771 61.681 107.766 61.7373C107.76 61.7936 107.755 61.8498 107.749 61.9059ZM107.809 58.4223L106.706 60.03C106.701 59.9719 106.695 59.9151 106.689 59.8593L107.781 58.1422C107.792 58.2339 107.801 58.3273 107.809 58.4223ZM107.205 55.9251L106.353 58.5528C106.337 58.5233 106.321 58.4955 106.305 58.4692L107.119 55.7755C107.149 55.8228 107.177 55.8727 107.205 55.9251ZM106.038 55.2067C106.017 55.2121 105.997 55.2182 105.976 55.2251C105.955 55.232 105.934 55.2397 105.914 55.248L105.659 58.1826C105.67 58.1782 105.681 58.1741 105.692 58.1704C105.703 58.1667 105.715 58.1634 105.726 58.1605L106.038 55.2067ZM104.648 56.596L104.98 58.909C104.957 58.9483 104.935 58.9889 104.912 59.0311L104.526 56.8144C104.566 56.7394 104.607 56.6666 104.648 56.596ZM103.471 59.5732L104.294 60.6546C104.276 60.7183 104.259 60.7828 104.242 60.8481L103.386 59.8908C103.413 59.7838 103.442 59.6779 103.471 59.5732ZM102.789 63.2265L103.871 62.9263C103.867 62.9621 103.864 62.9979 103.86 63.0339C103.857 63.0698 103.854 63.1055 103.85 63.1411L102.757 63.5633C102.762 63.5074 102.767 63.4514 102.772 63.3951C102.778 63.3388 102.783 63.2826 102.789 63.2265ZM102.729 66.7101C102.737 66.8051 102.746 66.8985 102.757 66.9902L103.849 65.273C103.843 65.2173 103.837 65.1604 103.832 65.1024L102.729 66.7101ZM103.333 69.2073L104.185 66.5796C104.201 66.6091 104.217 66.6369 104.233 66.6632L103.419 69.3568C103.389 69.3096 103.361 69.2597 103.333 69.2073Z" fill="black"/>
<path fill-rule="evenodd" clip-rule="evenodd" d="M103.866 63.0319C103.643 65.3471 104.103 66.9704 104.869 66.7159C105.636 66.4615 106.449 64.4157 106.672 62.1005C106.895 59.7853 106.435 58.162 105.669 58.4164C104.902 58.6709 104.089 60.7166 103.866 63.0319ZM103.757 63.068C103.521 65.5225 104.006 67.2876 104.841 67.0105C105.676 66.7333 106.544 64.5189 106.781 62.0644C107.017 59.6099 106.532 57.8448 105.697 58.1219C104.862 58.3991 103.994 60.6135 103.757 63.068Z" fill="black"/>
<path d="M105.276 63.218C105.156 63.258 105.086 63.0034 105.12 62.6494C105.154 62.2955 105.279 61.9761 105.4 61.9361C105.52 61.8962 105.59 62.1507 105.556 62.5047C105.522 62.8587 105.397 63.1781 105.276 63.218Z" fill="black"/>
<path d="M105.107 59.856L105.333 62.6046L105.626 59.1762L105.399 58.5733L105.107 59.856Z" fill="black"/>
<path d="M104.327 64.178L105.344 62.5399L104.343 62.9565L104.037 63.8195L104.327 64.178Z" fill="black"/>
<g filter="url(#filter3_i_2150_3165)">
<mask id="mask2_2150_3165" style="mask-type:alpha" maskUnits="userSpaceOnUse" x="85" y="62" width="72" height="30">
<path d="M156.747 69.8179V76.4661L113.927 78.0002L85.6636 91.3532L86.2887 83.6255L89.1297 80.5434V81.6936L91.9708 79.1367V78.0002L94.7551 75.0725V76.2388L99.4143 71.6931V70.443L102.142 67.7724V68.7384L106.176 65.5564V64.3063L108.051 62.488L111.574 62.9994V63.9085L118.052 65.1018V63.9085L123.223 64.8177V65.8405L133.166 67.3747V66.1814L140.042 67.3747V68.4542L151.633 70.1021V69.0225L156.747 69.8179Z" fill="#BBAD97"/>
</mask>
<g mask="url(#mask2_2150_3165)">
<path d="M156.747 69.8179V76.4661L113.927 78.0002L85.6636 91.3532L86.2887 83.6255L89.1297 80.5434V81.6936L91.9708 79.1367V78.0002L94.7551 75.0725V76.2388L99.4143 71.6931V70.443L102.142 67.7724V68.7384L106.176 65.5564V64.3063L108.051 62.488L111.574 62.9994V63.9085L118.052 65.1018V63.9085L123.223 64.8177V65.8405L133.166 67.3747V66.1814L140.042 67.3747V68.4542L151.633 70.1021V69.0225L156.747 69.8179Z" fill="#635252"/>
<rect x="84.3063" y="59.96" width="23.8092" height="35.9144" fill="#EFDFBD"/>
<rect x="140.049" y="66.8593" width="11.4987" height="13.5661" fill="#2A1F1A"/>
<rect x="123.254" y="64.9466" width="9.8418" height="15.4788" fill="#2A1F1A"/>
<rect x="111.518" y="61.2454" width="6.67737" height="19.1799" fill="#2A1F1A"/>
<rect x="142.049" y="66.8593" width="1" height="13.5661" fill="#635252"/>
<rect x="144.423" y="66.8593" width="1" height="13.5661" fill="#635252"/>
<rect x="146.798" y="66.8593" width="1" height="13.5661" fill="#635252"/>
<rect x="149.173" y="66.8593" width="1" height="13.5661" fill="#635252"/>
<rect x="124.254" y="65.8974" width="1.228" height="13.5661" fill="#635252"/>
<rect x="126.482" y="65.8974" width="1.228" height="13.5661" fill="#635252"/>
<rect x="128.71" y="65.8974" width="1.228" height="13.5661" fill="#635252"/>
<rect x="130.938" y="65.8974" width="1.228" height="13.5661" fill="#635252"/>
<rect x="112.61" y="63.2904" width="1" height="19.9404" fill="#635252"/>
<rect x="114.436" y="63.2904" width="1" height="19.9404" fill="#635252"/>
<rect x="116.263" y="63.2904" width="1" height="19.9404" fill="#635252"/>
<rect x="103.03" y="64.4061" width="1" height="19.9404" fill="#6E5D55"/>
<rect x="104.597" y="64.4061" width="1" height="19.9404" fill="#6E5D55"/>
<rect x="95.8159" y="70.1229" width="1" height="19.9404" fill="#6E5D55"/>
<rect x="97.6294" y="70.1229" width="1" height="19.9404" fill="#6E5D55"/>
<rect x="90.0342" y="75.7747" width="1" height="19.9404" fill="#6E5D55"/>
<rect x="91.1006" y="75.7747" width="1" height="19.9404" fill="#6E5D55"/>
</g>
</g>
<mask id="mask3_2150_3165" style="mask-type:alpha" maskUnits="userSpaceOnUse" x="78" y="75" width="89" height="29">
<path d="M109.893 75.239C123.471 75.7224 152 76.8474 157.484 77.4802L166.876 76.1674L164.848 92.2551C160.251 93.2186 150.923 95.1456 150.382 95.1456H109.893L93.6022 102.124L82.6517 103.206L78.3846 95.1456L109.893 75.239Z" fill="#635252"/>
</mask>
<g mask="url(#mask3_2150_3165)">
<path d="M109.893 75.239C123.471 75.7224 152 76.8474 157.484 77.4802L166.876 76.1674L164.848 92.2551C160.251 93.2186 150.923 95.1456 150.382 95.1456H109.893L93.6022 102.124L82.6517 103.206L78.3846 95.1456L109.893 75.239Z" fill="#635252"/>
<path d="M168.961 87.7931L108.29 85.6716L105.322 91.597L108.633 89.7516L159.329 90.4621L168.961 87.7931Z" fill="#2A1F1A"/>
<path d="M166.502 81.7391L106.35 78.5282L102.855 80.3347L106.32 79.8911L155.535 82.5301L166.502 81.7391Z" fill="#2A1F1A"/>
<path d="M165.937 77.5948L105.735 75.5162L102.275 77.3882L105.731 76.8795L154.987 78.592L165.937 77.5948Z" fill="#2A1F1A"/>
<path d="M168.059 93.549L107.717 92.6359L104.486 96.9255L107.875 95.6085L157.247 96.3815L168.059 93.549Z" fill="#2A1F1A"/>
<mask id="mask4_2150_3165" style="mask-type:alpha" maskUnits="userSpaceOnUse" x="68" y="73" width="44" height="33">
<path d="M109.04 81.6511V73.6866L85.8489 75.6777C80.0708 80.2455 68.4208 89.4749 68.046 89.8497C67.5775 90.3182 81.2811 104.725 83.1551 105.427C84.6543 105.989 101.036 101.992 109.04 99.9224L111.499 94.6518L110.562 91.2552V85.6333L109.04 81.6511Z" fill="#FCEDCD"/>
</mask>
<g mask="url(#mask4_2150_3165)">
<path d="M109.04 81.6511V73.6866L85.8489 75.6777C80.0708 80.2455 68.4208 89.4749 68.046 89.8497C67.5775 90.3182 81.2811 104.725 83.1551 105.427C84.6543 105.989 101.036 101.992 109.04 99.9224L111.499 94.6518L110.562 91.2552V85.6333L109.04 81.6511Z" fill="#FCEDCD"/>
<path d="M74.4095 108.709L130.176 84.7206L135.092 89.1652L131.337 88.647L84.3531 107.702L74.4095 108.709Z" fill="#6E5D55"/>
<path d="M73.2782 103.869L127.994 77.5703L133.091 81.8055L129.317 81.4447L83.171 102.447L73.2782 103.869Z" fill="#6E5D55"/>
<path d="M79.4271 95.7146L109.79 78.99L111.115 80.0911L110.134 79.9973L81.999 95.3449L79.4271 95.7146Z" fill="#6E5D55"/>
<path d="M78.4894 94.4524L110.916 73.9887L111.897 76.2635L110.916 76.1697L81.0613 94.0827L78.4894 94.4524Z" fill="#6E5D55"/>
</g>
</g>
</g>
<mask id="mask5_2150_3165" style="mask-type:alpha" maskUnits="userSpaceOnUse" x="87" y="86" width="73" height="51">
<path d="M150.802 87.4648L158.952 87.7416V89.1845L157.319 90.6539L159.59 127.121L153.178 126.32L151.976 90.6539L150.802 89.1845V87.4648Z" fill="#635252"/>
<path d="M141.187 87.4648L149.337 87.7416V89.1845L147.704 90.6539L149.975 127.121L143.564 126.32L142.361 90.6539L141.187 89.1845V87.4648Z" fill="#635252"/>
<path d="M132.737 86.9917L140.886 87.2685V88.7114L139.254 90.1808L141.525 126.648L135.113 125.847L133.911 90.1808L132.737 88.7114V86.9917Z" fill="#635252"/>
<path d="M123.949 86.9917L132.098 87.2685V88.7114L130.466 90.1808L132.737 126.648L126.325 125.847L125.123 90.1808L123.949 88.7114V86.9917Z" fill="#635252"/>
<path d="M115.46 86.5638L123.609 86.8406V88.2835L121.977 89.7529L124.248 126.22L117.836 125.419L116.634 89.7529L115.46 88.2835V86.5638Z" fill="#635252"/>
<path d="M93.7161 94.4126L87.3707 97.2491L87.4973 98.6864L88.5923 100.007L89.2521 136.504L95.5689 135.143L92.8263 97.6924L93.867 96.1257L93.7161 94.4126Z" fill="#635252"/>
<path d="M99.5925 91.6765L93.2472 94.513L93.3738 95.9503L94.4688 97.2708L95.1286 133.768L101.445 132.407L98.7027 94.9563L99.7434 93.3895L99.5925 91.6765Z" fill="#635252"/>
<path d="M106.717 88.5379L100.371 91.3744L100.498 92.8118L101.593 94.1322L102.253 130.629L108.57 129.268L105.827 91.8177L106.868 90.251L106.717 88.5379Z" fill="#635252"/>
<path d="M106.717 88.2942C109.669 85.2565 115.125 86.5437 115.125 86.5437V87.9866L113.493 89.4559L115.764 125.923L109.352 125.122L108.257 90.134L107.145 89.8344C107.145 89.8344 106.717 88.8932 106.717 88.2942Z" fill="#635252"/>
</mask>
<g mask="url(#mask5_2150_3165)">
<g filter="url(#filter4_i_2150_3165)">
<path d="M150.802 87.4648L158.952 87.7416V89.1845L157.319 90.6539L159.59 127.121L153.178 126.32L151.976 90.6539L150.802 89.1845V87.4648Z" fill="#635252"/>
</g>
<g filter="url(#filter5_i_2150_3165)">
<path d="M141.187 87.4648L149.337 87.7416V89.1845L147.704 90.6539L149.975 127.121L143.564 126.32L142.361 90.6539L141.187 89.1845V87.4648Z" fill="#635252"/>
</g>
<g filter="url(#filter6_i_2150_3165)">
<path d="M132.737 86.9917L140.886 87.2685V88.7114L139.254 90.1808L141.525 126.648L135.113 125.847L133.911 90.1808L132.737 88.7114V86.9917Z" fill="#635252"/>
</g>
<g filter="url(#filter7_i_2150_3165)">
<path d="M123.949 86.9917L132.098 87.2685V88.7114L130.466 90.1808L132.737 126.648L126.325 125.847L125.123 90.1808L123.949 88.7114V86.9917Z" fill="#635252"/>
</g>
<g filter="url(#filter8_i_2150_3165)">
<path d="M115.46 86.5638L123.609 86.8406V88.2835L121.977 89.7529L124.248 126.22L117.836 125.419L116.634 89.7529L115.46 88.2835V86.5638Z" fill="#635252"/>
</g>
<g filter="url(#filter9_i_2150_3165)">
<path d="M93.7161 94.4126L87.3707 97.2491L87.4973 98.6864L88.5923 100.007L89.2521 136.504L95.5689 135.143L92.8263 97.6924L93.867 96.1257L93.7161 94.4126Z" fill="#635252"/>
</g>
<g filter="url(#filter10_i_2150_3165)">
<path d="M99.5925 91.6765L93.2472 94.513L93.3738 95.9503L94.4688 97.2708L95.1286 133.768L101.445 132.407L98.7027 94.9563L99.7434 93.3895L99.5925 91.6765Z" fill="#635252"/>
</g>
<g filter="url(#filter11_i_2150_3165)">
<path d="M106.717 88.5379L100.371 91.3744L100.498 92.8118L101.593 94.1322L102.253 130.629L108.57 129.268L105.827 91.8177L106.868 90.251L106.717 88.5379Z" fill="#635252"/>
</g>
<g filter="url(#filter12_i_2150_3165)">
<path d="M106.717 88.2942C109.669 85.2565 115.125 86.5437 115.125 86.5437V87.9866L113.493 89.4559L115.764 125.923L109.352 125.122L108.257 90.134L107.145 89.8344C107.145 89.8344 106.717 88.8932 106.717 88.2942Z" fill="#635252"/>
</g>
<path d="M115.547 136.991L111.923 85.5443L111.923 75.7227L176.884 82.0026L171.833 136.991H115.547Z" fill="#635252"/>
</g>
<g filter="url(#filter13_i_2150_3165)">
<path d="M0.654775 142.71C4.90136 132.963 14.4368 111.614 18.6062 104.202H15.2233L2.97141 126.912L8.17847 99.8043L3.73715 98.8854L-1.31677 139.623L0.654775 142.71Z" fill="#57404E"/>
</g>
<mask id="mask6_2150_3165" style="mask-type:alpha" maskUnits="userSpaceOnUse" x="-40" y="30" width="88" height="85">
<path d="M42.2963 78.154C47.0998 84.0223 49.0586 91.5506 46.8912 98.6903C43.1878 110.89 28.8395 117.335 14.8433 113.086C11.0406 111.932 7.65521 110.107 4.81517 107.816C-0.0498931 107.768 -5.25021 106.986 -10.4989 105.393C-29.817 99.5287 -42.4752 84.885 -38.7718 72.6855C-36.8924 66.4948 -31.1612 62.1231 -23.4467 60.0848C-19.7427 55.1044 -14.0312 50.8009 -7.03203 47.8717C-3.31065 35.7112 7.13079 28.1194 16.3174 30.9082C22.3831 32.7496 26.3878 38.657 27.3531 45.9637C37.0993 49.122 44.1398 55.5841 45.5184 63.9473C46.3228 68.828 45.0931 73.7146 42.2963 78.154Z" fill="#D9D9D9"/>
</mask>
<g mask="url(#mask6_2150_3165)">
<path d="M42.2963 78.154C47.0998 84.0223 49.0586 91.5506 46.8912 98.6903C43.1878 110.89 28.8395 117.335 14.8433 113.086C11.0406 111.932 7.65521 110.107 4.81517 107.816C-0.0498931 107.768 -5.25021 106.986 -10.4989 105.393C-29.817 99.5287 -42.4752 84.885 -38.7718 72.6855C-36.8924 66.4948 -31.1612 62.1231 -23.4467 60.0848C-19.7427 55.1044 -14.0312 50.8009 -7.03203 47.8717C-3.31065 35.7112 7.13079 28.1194 16.3174 30.9082C22.3831 32.7496 26.3878 38.657 27.3531 45.9637C37.0993 49.122 44.1398 55.5841 45.5184 63.9473C46.3228 68.828 45.0931 73.7146 42.2963 78.154Z" fill="#202A28"/>
<ellipse cx="43.3905" cy="41.6418" rx="43.3905" ry="41.6418" transform="matrix(-0.956881 -0.290481 -0.290481 0.956881 67.3553 38.6441)" fill="#43624E"/>
<ellipse cx="32.7966" cy="31.4748" rx="32.7966" ry="31.4748" transform="matrix(-0.956881 -0.290481 -0.290481 0.956881 20.6093 -3.1447)" fill="#CDCB63"/>
</g>
</g>
<defs>
<filter id="filter0_f_2150_3165" x="-122.846" y="-30.0551" width="471.28" height="286.92" filterUnits="userSpaceOnUse" color-interpolation-filters="sRGB">
<feFlood flood-opacity="0" result="BackgroundImageFix"/>
<feBlend mode="normal" in="SourceGraphic" in2="BackgroundImageFix" result="shape"/>
<feGaussianBlur stdDeviation="40" result="effect1_foregroundBlur_2150_3165"/>
</filter>
<filter id="filter1_f_2150_3165" x="-65.3223" y="-3.68913" width="328.547" height="263.02" filterUnits="userSpaceOnUse" color-interpolation-filters="sRGB">
<feFlood flood-opacity="0" result="BackgroundImageFix"/>
<feBlend mode="normal" in="SourceGraphic" in2="BackgroundImageFix" result="shape"/>
<feGaussianBlur stdDeviation="40" result="effect1_foregroundBlur_2150_3165"/>
</filter>
<filter id="filter2_i_2150_3165" x="-61.662" y="-37.5019" width="350.236" height="235.337" filterUnits="userSpaceOnUse" color-interpolation-filters="sRGB">
<feFlood flood-opacity="0" result="BackgroundImageFix"/>
<feBlend mode="normal" in="SourceGraphic" in2="BackgroundImageFix" result="shape"/>
<feColorMatrix in="SourceAlpha" type="matrix" values="0 0 0 0 0 0 0 0 0 0 0 0 0 0 0 0 0 0 127 0" result="hardAlpha"/>
<feOffset dx="-100" dy="-80"/>
<feGaussianBlur stdDeviation="25"/>
<feComposite in2="hardAlpha" operator="arithmetic" k2="-1" k3="1"/>
<feColorMatrix type="matrix" values="0 0 0 0 0.618333 0 0 0 0 0.85344 0 0 0 0 1 0 0 0 1 0"/>
<feBlend mode="normal" in2="shape" result="effect1_innerShadow_2150_3165"/>
</filter>
<filter id="filter3_i_2150_3165" x="85.6636" y="62.488" width="71.0836" height="28.8652" filterUnits="userSpaceOnUse" color-interpolation-filters="sRGB">
<feFlood flood-opacity="0" result="BackgroundImageFix"/>
<feBlend mode="normal" in="SourceGraphic" in2="BackgroundImageFix" result="shape"/>
<feColorMatrix in="SourceAlpha" type="matrix" values="0 0 0 0 0 0 0 0 0 0 0 0 0 0 0 0 0 0 127 0" result="hardAlpha"/>
<feOffset dy="0.5"/>
<feComposite in2="hardAlpha" operator="arithmetic" k2="-1" k3="1"/>
<feColorMatrix type="matrix" values="0 0 0 0 0.164706 0 0 0 0 0.121569 0 0 0 0 0.101961 0 0 0 1 0"/>
<feBlend mode="normal" in2="shape" result="effect1_innerShadow_2150_3165"/>
</filter>
<filter id="filter4_i_2150_3165" x="150.802" y="87.4648" width="8.78821" height="39.6563" filterUnits="userSpaceOnUse" color-interpolation-filters="sRGB">
<feFlood flood-opacity="0" result="BackgroundImageFix"/>
<feBlend mode="normal" in="SourceGraphic" in2="BackgroundImageFix" result="shape"/>
<feColorMatrix in="SourceAlpha" type="matrix" values="0 0 0 0 0 0 0 0 0 0 0 0 0 0 0 0 0 0 127 0" result="hardAlpha"/>
<feOffset dx="3"/>
<feComposite in2="hardAlpha" operator="arithmetic" k2="-1" k3="1"/>
<feColorMatrix type="matrix" values="0 0 0 0 0.988235 0 0 0 0 0.929412 0 0 0 0 0.803922 0 0 0 1 0"/>
<feBlend mode="normal" in2="shape" result="effect1_innerShadow_2150_3165"/>
</filter>
<filter id="filter5_i_2150_3165" x="141.187" y="87.4648" width="8.78821" height="39.6563" filterUnits="userSpaceOnUse" color-interpolation-filters="sRGB">
<feFlood flood-opacity="0" result="BackgroundImageFix"/>
<feBlend mode="normal" in="SourceGraphic" in2="BackgroundImageFix" result="shape"/>
<feColorMatrix in="SourceAlpha" type="matrix" values="0 0 0 0 0 0 0 0 0 0 0 0 0 0 0 0 0 0 127 0" result="hardAlpha"/>
<feOffset dx="3"/>
<feComposite in2="hardAlpha" operator="arithmetic" k2="-1" k3="1"/>
<feColorMatrix type="matrix" values="0 0 0 0 0.988235 0 0 0 0 0.929412 0 0 0 0 0.803922 0 0 0 1 0"/>
<feBlend mode="normal" in2="shape" result="effect1_innerShadow_2150_3165"/>
</filter>
<filter id="filter6_i_2150_3165" x="132.737" y="86.9917" width="8.78821" height="39.6563" filterUnits="userSpaceOnUse" color-interpolation-filters="sRGB">
<feFlood flood-opacity="0" result="BackgroundImageFix"/>
<feBlend mode="normal" in="SourceGraphic" in2="BackgroundImageFix" result="shape"/>
<feColorMatrix in="SourceAlpha" type="matrix" values="0 0 0 0 0 0 0 0 0 0 0 0 0 0 0 0 0 0 127 0" result="hardAlpha"/>
<feOffset dx="3"/>
<feComposite in2="hardAlpha" operator="arithmetic" k2="-1" k3="1"/>
<feColorMatrix type="matrix" values="0 0 0 0 0.988235 0 0 0 0 0.929412 0 0 0 0 0.803922 0 0 0 1 0"/>
<feBlend mode="normal" in2="shape" result="effect1_innerShadow_2150_3165"/>
</filter>
<filter id="filter7_i_2150_3165" x="123.949" y="86.9917" width="8.78821" height="39.6563" filterUnits="userSpaceOnUse" color-interpolation-filters="sRGB">
<feFlood flood-opacity="0" result="BackgroundImageFix"/>
<feBlend mode="normal" in="SourceGraphic" in2="BackgroundImageFix" result="shape"/>
<feColorMatrix in="SourceAlpha" type="matrix" values="0 0 0 0 0 0 0 0 0 0 0 0 0 0 0 0 0 0 127 0" result="hardAlpha"/>
<feOffset dx="3"/>
<feComposite in2="hardAlpha" operator="arithmetic" k2="-1" k3="1"/>
<feColorMatrix type="matrix" values="0 0 0 0 0.988235 0 0 0 0 0.929412 0 0 0 0 0.803922 0 0 0 1 0"/>
<feBlend mode="normal" in2="shape" result="effect1_innerShadow_2150_3165"/>
</filter>
<filter id="filter8_i_2150_3165" x="115.46" y="86.5638" width="8.78821" height="39.6563" filterUnits="userSpaceOnUse" color-interpolation-filters="sRGB">
<feFlood flood-opacity="0" result="BackgroundImageFix"/>
<feBlend mode="normal" in="SourceGraphic" in2="BackgroundImageFix" result="shape"/>
<feColorMatrix in="SourceAlpha" type="matrix" values="0 0 0 0 0 0 0 0 0 0 0 0 0 0 0 0 0 0 127 0" result="hardAlpha"/>
<feOffset dx="3"/>
<feComposite in2="hardAlpha" operator="arithmetic" k2="-1" k3="1"/>
<feColorMatrix type="matrix" values="0 0 0 0 0.988235 0 0 0 0 0.929412 0 0 0 0 0.803922 0 0 0 1 0"/>
<feBlend mode="normal" in2="shape" result="effect1_innerShadow_2150_3165"/>
</filter>
<filter id="filter9_i_2150_3165" x="87.3707" y="94.4126" width="8.19824" height="42.0912" filterUnits="userSpaceOnUse" color-interpolation-filters="sRGB">
<feFlood flood-opacity="0" result="BackgroundImageFix"/>
<feBlend mode="normal" in="SourceGraphic" in2="BackgroundImageFix" result="shape"/>
<feColorMatrix in="SourceAlpha" type="matrix" values="0 0 0 0 0 0 0 0 0 0 0 0 0 0 0 0 0 0 127 0" result="hardAlpha"/>
<feOffset dx="3"/>
<feComposite in2="hardAlpha" operator="arithmetic" k2="-1" k3="1"/>
<feColorMatrix type="matrix" values="0 0 0 0 0.988235 0 0 0 0 0.929412 0 0 0 0 0.803922 0 0 0 1 0"/>
<feBlend mode="normal" in2="shape" result="effect1_innerShadow_2150_3165"/>
</filter>
<filter id="filter10_i_2150_3165" x="93.2472" y="91.6765" width="8.19824" height="42.0912" filterUnits="userSpaceOnUse" color-interpolation-filters="sRGB">
<feFlood flood-opacity="0" result="BackgroundImageFix"/>
<feBlend mode="normal" in="SourceGraphic" in2="BackgroundImageFix" result="shape"/>
<feColorMatrix in="SourceAlpha" type="matrix" values="0 0 0 0 0 0 0 0 0 0 0 0 0 0 0 0 0 0 127 0" result="hardAlpha"/>
<feOffset dx="3"/>
<feComposite in2="hardAlpha" operator="arithmetic" k2="-1" k3="1"/>
<feColorMatrix type="matrix" values="0 0 0 0 0.988235 0 0 0 0 0.929412 0 0 0 0 0.803922 0 0 0 1 0"/>
<feBlend mode="normal" in2="shape" result="effect1_innerShadow_2150_3165"/>
</filter>
<filter id="filter11_i_2150_3165" x="100.371" y="88.5379" width="8.19824" height="42.0912" filterUnits="userSpaceOnUse" color-interpolation-filters="sRGB">
<feFlood flood-opacity="0" result="BackgroundImageFix"/>
<feBlend mode="normal" in="SourceGraphic" in2="BackgroundImageFix" result="shape"/>
<feColorMatrix in="SourceAlpha" type="matrix" values="0 0 0 0 0 0 0 0 0 0 0 0 0 0 0 0 0 0 127 0" result="hardAlpha"/>
<feOffset dx="3"/>
<feComposite in2="hardAlpha" operator="arithmetic" k2="-1" k3="1"/>
<feColorMatrix type="matrix" values="0 0 0 0 0.988235 0 0 0 0 0.929412 0 0 0 0 0.803922 0 0 0 1 0"/>
<feBlend mode="normal" in2="shape" result="effect1_innerShadow_2150_3165"/>
</filter>
<filter id="filter12_i_2150_3165" x="106.717" y="86.2728" width="9.04724" height="39.6504" filterUnits="userSpaceOnUse" color-interpolation-filters="sRGB">
<feFlood flood-opacity="0" result="BackgroundImageFix"/>
<feBlend mode="normal" in="SourceGraphic" in2="BackgroundImageFix" result="shape"/>
<feColorMatrix in="SourceAlpha" type="matrix" values="0 0 0 0 0 0 0 0 0 0 0 0 0 0 0 0 0 0 127 0" result="hardAlpha"/>
<feOffset dx="3"/>
<feComposite in2="hardAlpha" operator="arithmetic" k2="-1" k3="1"/>
<feColorMatrix type="matrix" values="0 0 0 0 0.988235 0 0 0 0 0.929412 0 0 0 0 0.803922 0 0 0 1 0"/>
<feBlend mode="normal" in2="shape" result="effect1_innerShadow_2150_3165"/>
</filter>
<filter id="filter13_i_2150_3165" x="-1.31677" y="98.8854" width="19.923" height="43.8251" filterUnits="userSpaceOnUse" color-interpolation-filters="sRGB">
<feFlood flood-opacity="0" result="BackgroundImageFix"/>
<feBlend mode="normal" in="SourceGraphic" in2="BackgroundImageFix" result="shape"/>
<feColorMatrix in="SourceAlpha" type="matrix" values="0 0 0 0 0 0 0 0 0 0 0 0 0 0 0 0 0 0 127 0" result="hardAlpha"/>
<feOffset dx="-2" dy="16"/>
<feComposite in2="hardAlpha" operator="arithmetic" k2="-1" k3="1"/>
<feColorMatrix type="matrix" values="0 0 0 0 0.12549 0 0 0 0 0.137255 0 0 0 0 0.145098 0 0 0 1 0"/>
<feBlend mode="normal" in2="shape" result="effect1_innerShadow_2150_3165"/>
</filter>
<clipPath id="clip0_2150_3165">
<rect y="0.0661621" width="188" height="125" rx="8" fill="white"/>
</clipPath>
</defs>
</svg>
