<svg width="188" height="125" viewBox="0 0 188 125" fill="none" xmlns="http://www.w3.org/2000/svg">
<g clip-path="url(#clip0_2130_2999)">
<rect y="0.000488281" width="188" height="125" rx="8" fill="#DDFDFF"/>
<path d="M5.33225 54.2596C50.2293 45.9901 151.24 24.4277 196.109 4.33366L207.388 34.0975L5.33225 54.2596Z" fill="white"/>
<rect x="20.8024" y="98.2305" width="6.67767" height="4.89648" fill="#B3D5E1"/>
<rect x="-1.229" y="100.076" width="71.2175" height="29.0245" fill="#B3D5E1"/>
<mask id="mask0_2130_2999" style="mask-type:alpha" maskUnits="userSpaceOnUse" x="135" y="79" width="36" height="32">
<path d="M139.473 94.2605C136.993 95.9217 135.394 98.5333 135.394 101.47C135.394 106.489 140.062 110.557 145.819 110.557C147.384 110.557 148.868 110.257 150.199 109.719C152.037 110.257 154.085 110.557 156.245 110.557C164.192 110.557 170.634 106.489 170.634 101.47C170.634 98.9237 168.975 96.6217 166.302 94.9718C165.477 92.6724 163.817 90.3983 161.516 88.4947C161.505 83.4888 158.44 79.4353 154.661 79.4353C152.165 79.4353 149.982 81.2025 148.783 83.8443C144.75 83.9195 141.36 85.5485 139.884 88.541C139.023 90.2874 138.927 92.2686 139.473 94.2605Z" fill="#D9D9D9"/>
</mask>
<g mask="url(#mask0_2130_2999)">
<path d="M139.473 94.2605C136.993 95.9217 135.394 98.5333 135.394 101.47C135.394 106.489 140.062 110.557 145.819 110.557C147.384 110.557 148.868 110.257 150.199 109.719C152.037 110.257 154.085 110.557 156.245 110.557C164.192 110.557 170.634 106.489 170.634 101.47C170.634 98.9237 168.975 96.6217 166.302 94.9718C165.477 92.6724 163.817 90.3983 161.516 88.4947C161.505 83.4888 158.44 79.4353 154.661 79.4353C152.165 79.4353 149.982 81.2025 148.783 83.8443C144.75 83.9195 141.36 85.5485 139.884 88.541C139.023 90.2874 138.927 92.2686 139.473 94.2605Z" fill="#506F71"/>
<ellipse cx="148.304" cy="86.9667" rx="12.9099" ry="12.3896" fill="#94AA7F"/>
<ellipse cx="157.501" cy="92.8405" rx="5.57306" ry="5.34845" fill="#94AA7F"/>
</g>
<mask id="mask1_2130_2999" style="mask-type:alpha" maskUnits="userSpaceOnUse" x="157" y="71" width="53" height="52">
<path d="M160.72 100.574C157.832 104.103 156.654 108.629 157.957 112.922C160.184 120.258 168.812 124.133 177.227 121.578C179.514 120.884 181.55 119.787 183.257 118.409C186.182 118.38 189.309 117.911 192.465 116.952C204.081 113.426 211.692 104.621 209.465 97.2858C208.335 93.5634 204.889 90.9348 200.251 89.7092C198.024 86.7146 194.589 84.1269 190.381 82.3657C188.143 75.0537 181.865 70.4889 176.341 72.1657C172.694 73.2729 170.286 76.825 169.705 81.2184C163.845 83.1174 159.612 87.003 158.783 92.0317C158.299 94.9664 159.039 97.9046 160.72 100.574Z" fill="#D9D9D9"/>
</mask>
<g mask="url(#mask1_2130_2999)">
<path d="M160.72 100.574C157.832 104.103 156.654 108.629 157.957 112.922C160.184 120.258 168.812 124.133 177.227 121.578C179.514 120.884 181.55 119.787 183.257 118.409C186.182 118.38 189.309 117.911 192.465 116.952C204.081 113.426 211.692 104.621 209.465 97.2858C208.335 93.5634 204.889 90.9348 200.251 89.7092C198.024 86.7146 194.589 84.1269 190.381 82.3657C188.143 75.0537 181.865 70.4889 176.341 72.1657C172.694 73.2729 170.286 76.825 169.705 81.2184C163.845 83.1174 159.612 87.003 158.783 92.0317C158.299 94.9664 159.039 97.9046 160.72 100.574Z" fill="#43624E"/>
<ellipse cx="170.392" cy="85.9945" rx="19.7201" ry="18.9254" transform="rotate(-16.8868 170.392 85.9945)" fill="#CDCB63"/>
<ellipse cx="186.44" cy="90.4993" rx="8.51295" ry="8.16987" transform="rotate(-16.8868 186.44 90.4993)" fill="#CDCB63"/>
</g>
<mask id="mask2_2130_2999" style="mask-type:alpha" maskUnits="userSpaceOnUse" x="-11" y="92" width="42" height="40">
<path d="M-7.6177 113.908C-9.93766 116.574 -10.9559 120.054 -10.0467 123.41C-8.49304 129.144 -1.90008 132.348 4.6792 130.566C6.46675 130.082 8.06933 129.279 9.42444 128.252C11.6913 128.298 14.1246 128.007 16.5919 127.339C25.6729 124.878 31.7749 118.235 30.2213 112.5C29.4329 109.59 26.8247 107.473 23.2599 106.416C21.6045 104.044 19.0045 101.959 15.7854 100.496C14.2229 94.7792 9.46589 91.0961 5.14752 92.266C2.29616 93.0385 0.347717 95.734 -0.204583 99.1239C-4.78883 100.458 -8.1592 103.369 -8.91887 107.246C-9.36219 109.508 -8.85808 111.801 -7.6177 113.908Z" fill="#D9D9D9"/>
</mask>
<g mask="url(#mask2_2130_2999)">
<path d="M-7.6177 113.908C-9.93766 116.574 -10.9559 120.054 -10.0467 123.41C-8.49304 129.144 -1.90008 132.348 4.6792 130.566C6.46675 130.082 8.06933 129.279 9.42444 128.252C11.6913 128.298 14.1246 128.007 16.5919 127.339C25.6729 124.878 31.7749 118.235 30.2213 112.5C29.4329 109.59 26.8247 107.473 23.2599 106.416C21.6045 104.044 19.0045 101.959 15.7854 100.496C14.2229 94.7792 9.46589 91.0961 5.14752 92.266C2.29616 93.0385 0.347717 95.734 -0.204583 99.1239C-4.78883 100.458 -8.1592 103.369 -8.91887 107.246C-9.36219 109.508 -8.85808 111.801 -7.6177 113.908Z" fill="#43624E"/>
<ellipse cx="0.215404" cy="102.84" rx="15.2839" ry="14.6679" transform="rotate(-15.1585 0.215404 102.84)" fill="#CDCB63"/>
<ellipse cx="12.5425" cy="106.705" rx="6.59787" ry="6.33196" transform="rotate(-15.1585 12.5425 106.705)" fill="#CDCB63"/>
</g>
<path d="M73.1037 41.5588L72.1695 41.0544L71.7397 43.6327L73.2158 43.4459L73.1037 41.5588Z" fill="#718CA3"/>
<path d="M56.7962 64.9799L55.862 64.4754L55.4323 67.0538L56.9083 66.867L56.7962 64.9799Z" fill="#718CA3"/>
<path d="M49.6491 67.21L48.7149 66.7055L48.2852 69.2839L49.7612 69.0971L49.6491 67.21Z" fill="#718CA3"/>
<path d="M76.55 39.2785L75.6157 38.774L75.186 41.3524L76.662 41.1655L76.55 39.2785Z" fill="#718CA3"/>
<path d="M127.582 52.884L128.584 51.4711L129.363 52.3032L129.518 54.6263L127.582 54.7811V52.884Z" fill="#B0D1E1"/>
<path d="M121.817 53.3931L122.819 51.9802L123.598 52.8123L123.753 55.1354L121.817 55.2902V53.3931Z" fill="#B0D1E1"/>
<path d="M116.216 52.5696L117.219 51.1567L117.997 51.9888L118.152 54.3118L116.216 54.4667V52.5696Z" fill="#B0D1E1"/>
<path d="M102.85 33.7229L103.853 32.3101L104.631 33.1422L104.786 35.4652L102.85 35.6201V33.7229Z" fill="#B0D1E1"/>
<path d="M97.9597 33.2462L97.332 31.8334L96.8447 32.6655L96.7477 34.9885L97.9597 35.1434V33.2462Z" fill="#B0D1E1"/>
<path d="M110.182 51.9407L111.184 50.5278L111.963 51.3599L112.118 53.6829L110.182 53.8378V51.9407Z" fill="#B0D1E1"/>
<mask id="mask3_2130_2999" style="mask-type:alpha" maskUnits="userSpaceOnUse" x="44" y="56" width="33" height="43">
<path d="M71.4075 57.2385L73.8313 56.8439L75.6914 61.015L76.0859 96.1874L61.2053 97.202L44.5773 98.273V71.2736C44.953 70.616 45.7158 69.2332 45.7609 68.9626C45.806 68.6921 46.1555 67.7226 46.3246 67.2716C46.9258 67.1401 48.2072 66.8433 48.5229 66.708C48.8385 66.5727 48.9175 67.0274 48.9175 67.2716H50.5521C51.003 67.2716 50.9466 65.9752 51.3976 65.9752H52.8067H53.8213L54.6668 65.017L55.8505 64.4533L56.6396 65.4679C56.7711 65.2988 57.0454 64.8592 57.0905 64.4533C57.1356 64.0475 58.2742 63.6078 58.8379 63.4387L60.698 63.1005L63.7417 63.8333H68.4764C68.8146 63.8333 68.7583 60.0004 68.9274 59.7749C69.0627 59.5946 69.4723 58.9107 69.6602 58.5913L71.4075 57.2385Z" fill="#9ABDCF"/>
</mask>
<g mask="url(#mask3_2130_2999)">
<path d="M71.4075 57.2385L73.8313 56.8439L75.6914 61.015L76.0859 96.1874L61.2053 97.202L44.5773 98.273V71.2736C44.953 70.616 45.7158 69.2332 45.7609 68.9626C45.806 68.6921 46.1555 67.7226 46.3246 67.2716C46.9258 67.1401 48.2072 66.8433 48.5229 66.708C48.8385 66.5727 48.9175 67.0274 48.9175 67.2716H50.5521C51.003 67.2716 50.9466 65.9752 51.3976 65.9752H52.8067H53.8213L54.6668 65.017L55.8505 64.4533L56.6396 65.4679C56.7711 65.2988 57.0454 64.8592 57.0905 64.4533C57.1356 64.0475 58.2742 63.6078 58.8379 63.4387L60.698 63.1005L63.7417 63.8333H68.4764C68.8146 63.8333 68.7583 60.0004 68.9274 59.7749C69.0627 59.5946 69.4723 58.9107 69.6602 58.5913L71.4075 57.2385Z" fill="#B0D1E1"/>
<rect x="56.0575" y="49.2898" width="44.5879" height="64.9374" transform="rotate(-1.73221 56.0575 49.2898)" fill="#9ABDCF"/>
</g>
<mask id="mask4_2130_2999" style="mask-type:alpha" maskUnits="userSpaceOnUse" x="93" y="31" width="46" height="67">
<path d="M137.641 67.7832L138.866 97.3302H93.7434V34.516L95.0591 31.8334H97.3316V33.4396H98.9719V31.8334H102.646V33.4396H103.842V32.3118L105.995 32.4143V37.4208L105.482 38.3435L105.653 48.3734L109.446 48.7322V52.2179L111.189 52.3375V50.4751L115.324 50.851V52.5255L117.221 52.6622V51.1415L120.963 51.4661V53.1748L122.825 53.2602V51.9616L126.687 52.1667V53.602L128.583 53.7387V51.4661L133.538 51.9616L133.863 62.3675L134.888 63.1363V64.6912L135.811 65.631L135.708 67.1005L136.136 67.4935V66.0582L136.836 66.5537V68.3991L137.229 68.6725V67.4935L137.641 67.7832Z" fill="#718CA3"/>
</mask>
<g mask="url(#mask4_2130_2999)">
<path d="M137.641 67.7832L138.866 97.3302H93.7434V34.516L95.0591 31.8334H97.3316V33.4396H98.9719V31.8334H102.646V33.4396H103.842V32.3118L105.995 32.4143V37.4208L105.482 38.3435L105.653 48.3734L109.446 48.7322V52.2179L111.189 52.3375V50.4751L115.324 50.851V52.5255L117.221 52.6622V51.1415L120.963 51.4661V53.1748L122.825 53.2602V51.9616L126.687 52.1667V53.602L128.583 53.7387V51.4661L133.538 51.9616L133.863 62.3675L134.888 63.1363V64.6912L135.811 65.631L135.708 67.1005L136.136 67.4935V66.0582L136.836 66.5537V68.3991L137.229 68.6725V67.4935L137.641 67.7832Z" fill="#718CA3"/>
<rect x="128.067" y="52.0119" width="6.31934" height="0.346252" transform="rotate(5.81707 128.067 52.0119)" fill="#445D81"/>
<rect x="121.582" y="52.367" width="6.31934" height="0.346252" transform="rotate(2.20839 121.582 52.367)" fill="#445D81"/>
<rect x="115.958" y="51.5027" width="6.31934" height="0.346252" transform="rotate(3.61518 115.958 51.5027)" fill="#445D81"/>
<rect x="110.458" y="50.8518" width="6.31934" height="0.346252" transform="rotate(4.95995 110.458 50.8518)" fill="#445D81"/>
<rect x="103.846" y="48.9453" width="6.31934" height="0.346252" transform="rotate(4.95995 103.846 48.9453)" fill="#445D81"/>
<rect x="103.514" y="32.6649" width="2.76396" height="0.232804" transform="rotate(2.82678 103.514 32.6649)" fill="#445D81"/>
<rect x="98.6006" y="32.157" width="4.56961" height="0.232804" transform="rotate(0.458401 98.6006 32.157)" fill="#445D81"/>
<rect x="94.2721" y="32.2048" width="3.77042" height="0.232804" transform="rotate(0.458401 94.2721 32.2048)" fill="#445D81"/>
<rect x="133.557" y="57.4621" width="39.1176" height="42.0513" transform="rotate(-3.36122 133.557 57.4621)" fill="#5F7596"/>
<rect x="60.1116" y="46.8658" width="44.5879" height="60.0424" transform="rotate(-3.08251 60.1116 46.8658)" fill="#445D81"/>
<rect x="91.0416" y="29.0466" width="4.02191" height="13.956" fill="#B0D1E1"/>
<path d="M101.421 41.7629L101.206 39.9904L100.296 40.1158L99.8479 42.7079L101.206 43.5123L101.421 41.7629Z" fill="#B0D1E1"/>
<path fill-rule="evenodd" clip-rule="evenodd" d="M95.0973 37.1127L100.953 37.0401C101.369 37.035 104.22 37.2143 106.81 37.6483L106.645 38.6346C104.094 38.2072 101.306 38.0358 100.965 38.0401L95.385 38.1092L93.5409 39.239L93.0185 38.3863L95.0973 37.1127Z" fill="#4F6585"/>
</g>
<mask id="mask5_2130_2999" style="mask-type:alpha" maskUnits="userSpaceOnUse" x="71" y="37" width="32" height="61">
<path d="M102.588 97.4418H72.1968L71.8942 48.8334L71.1865 47.8354V42.1193L71.3861 41.2483L72.2027 41.0306V42.1193L73.5092 41.2483V39.1797L74.2169 38.7623H75.6323V40.831L77.1747 40.5406V38.9619C77.453 38.8954 78.0312 38.7623 78.1183 38.7623C78.2272 38.7623 78.8079 38.3268 79.2071 38.1454C79.5265 38.0002 80.0781 38.2058 80.314 38.3268C80.4955 38.4599 80.9455 38.7333 81.2939 38.7623C81.6423 38.7914 82.1649 39.0526 82.3827 39.1797L82.9996 39.7785H84.8142V39.1797L85.1046 38.9619L85.286 37.982L87.2095 37.8006C87.4273 37.9155 87.8773 38.1817 87.9354 38.3268C87.9934 38.472 88.5039 38.9559 88.7519 39.1797V39.8692H89.9133L90.0222 39.4337C90.2339 39.2765 90.6754 38.9619 90.748 38.9619C90.8206 38.9619 91.0444 38.4175 91.1472 38.1454C91.4315 38.0909 92.0618 37.982 92.3086 37.982C92.617 37.982 92.5989 37.6554 92.8711 37.601C93.1433 37.5465 93.6514 37.4195 93.978 37.4014C94.2393 37.3868 94.4377 37.7824 94.5042 37.982C94.6373 38.2663 94.8962 38.8603 94.8672 38.9619C94.8381 39.0635 95.097 39.4398 95.2301 39.6152L95.7382 39.8692V40.6313H96.7543C96.8451 40.6313 96.954 40.1414 96.954 40.0144C96.954 39.9128 97.1717 39.4156 97.2806 39.1797L97.825 38.7079H99.077L100.656 39.6152V41.4661L101.164 41.9016V39.8692L101.816 40.3228V47.6581L101.334 48.3334L102.588 97.4418Z" fill="#9ABDCF"/>
</mask>
<g mask="url(#mask5_2130_2999)">
<path d="M102.588 97.4418H72.1968L71.8942 48.8334L71.1865 47.8354V42.1193L71.3861 41.2483L72.2027 41.0306V42.1193L73.5092 41.2483V39.1797L74.2169 38.7623H75.6323V40.831L77.1747 40.5406V38.9619C77.453 38.8954 78.0312 38.7623 78.1183 38.7623C78.2272 38.7623 78.8079 38.3268 79.2071 38.1454C79.5265 38.0002 80.0781 38.2058 80.314 38.3268C80.4955 38.4599 80.9455 38.7333 81.2939 38.7623C81.6423 38.7914 82.1649 39.0526 82.3827 39.1797L82.9996 39.7785H84.8142V39.1797L85.1046 38.9619L85.286 37.982L87.2095 37.8006C87.4273 37.9155 87.8773 38.1817 87.9354 38.3268C87.9934 38.472 88.5039 38.9559 88.7519 39.1797V39.8692H89.9133L90.0222 39.4337C90.2339 39.2765 90.6754 38.9619 90.748 38.9619C90.8206 38.9619 91.0444 38.4175 91.1472 38.1454C91.4315 38.0909 92.0618 37.982 92.3086 37.982C92.617 37.982 92.5989 37.6554 92.8711 37.601C93.1433 37.5465 93.6514 37.4195 93.978 37.4014C94.2393 37.3868 94.4377 37.7824 94.5042 37.982C94.6373 38.2663 94.8962 38.8603 94.8672 38.9619C94.8381 39.0635 95.097 39.4398 95.2301 39.6152L95.7382 39.8692V40.6313H96.7543C96.8451 40.6313 96.954 40.1414 96.954 40.0144C96.954 39.9128 97.1717 39.4156 97.2806 39.1797L97.825 38.7079H99.077L100.656 39.6152V41.4661L101.164 41.9016V39.8692L101.816 40.3228V47.6581L101.334 48.3334L102.588 97.4418Z" fill="#B0D1E1"/>
<rect x="78.1475" y="33.8822" width="44.5879" height="64.9374" rx="0.1" transform="rotate(-1.73221 78.1475 33.8822)" fill="#9ABDCF"/>
<rect x="99.0907" y="33.7703" width="12.2348" height="64.9374" rx="0.1" transform="rotate(-1.73221 99.0907 33.7703)" fill="#5F7596"/>
<path d="M75.0918 45.8303L71.3081 47.9849C71.3003 47.9894 71.2932 47.9948 71.2869 48.0011L70.593 48.695C70.547 48.741 70.5565 48.818 70.6123 48.8514L71.2469 49.2322C71.2775 49.2506 71.3156 49.2512 71.3469 49.2338L75.0929 47.1527C75.1023 47.1475 75.1126 47.1438 75.1233 47.1418L78.5398 46.5111C78.5449 46.5101 78.5501 46.5096 78.5552 46.5094L94.267 46.0862C95.8195 46.2274 99.0093 46.5097 99.348 46.5097C99.6759 46.5097 101.253 47.9311 102.074 48.7103C102.117 48.7507 102.185 48.7461 102.221 48.7003L102.726 48.0697C102.76 48.0266 102.753 47.9636 102.71 47.9291L99.3728 45.2592C99.3567 45.2463 99.3378 45.2388 99.3172 45.2375C97.8585 45.1485 94.8556 44.9638 94.267 44.9218C93.6744 44.8795 83.5497 45.1157 78.5544 45.2392C78.5496 45.2393 78.5451 45.2398 78.5404 45.2406L75.1246 45.8186C75.1131 45.8206 75.102 45.8245 75.0918 45.8303Z" fill="#5F7596"/>
<path d="M72.916 54.547V50.9495L73.8103 50.3194V54.0389L72.916 54.547Z" fill="#4F6585"/>
</g>
<path d="M85.1717 73.3808C85.1717 73.3473 85.1889 73.3156 85.217 73.2973C86.316 72.5791 86.9749 72.5874 88.1325 73.2949C88.162 73.3129 88.1804 73.3454 88.1804 73.38L88.1867 80.1992C88.1868 80.2544 88.1421 80.2993 88.0868 80.2993L85.2781 80.3019C85.2229 80.302 85.1781 80.2572 85.178 80.202L85.1717 73.3808Z" fill="#445D81"/>
<path d="M85.5631 86.9796C85.5621 86.9412 85.5838 86.9053 85.6181 86.8878C87.5679 85.8977 88.7406 85.8788 90.843 86.7514C90.8793 86.7665 90.904 86.8019 90.905 86.8412L91.1364 95.6582C91.1379 95.7134 91.0943 95.7593 91.0391 95.7608L85.8971 95.8957C85.8419 95.8972 85.796 95.8536 85.7945 95.7984L85.5631 86.9796Z" fill="#445D81"/>
<path d="M52.6226 87.0641C52.6226 87.0396 52.6319 87.0156 52.6484 86.9975C53.0911 86.5124 53.365 86.5332 53.8472 86.9966C53.8665 87.0152 53.8775 87.0412 53.8775 87.068L53.8775 91.5072C53.8775 91.5618 53.8338 91.6063 53.7793 91.6072L52.7244 91.6258C52.6685 91.6268 52.6226 91.5817 52.6226 91.5258L52.6226 87.0641Z" fill="#445D81"/>
<rect x="86.4933" y="64.7693" width="0.656311" height="3.05011" fill="#445D81"/>
<rect x="86.223" y="48.5925" width="1.23547" height="3.51337" fill="#445D81"/>
<rect x="87.9512" y="48.5957" width="1.23547" height="3.51337" transform="rotate(-0.29851 87.9512 48.5957)" fill="#445D81"/>
<rect x="81.4741" y="49.3646" width="0.270264" height="3.93805" fill="#445D81"/>
<rect x="84.5242" y="59.9819" width="0.926636" height="1.08099" fill="#445D81"/>
<rect x="81.7444" y="64.2289" width="0.772156" height="0.849365" fill="#445D81"/>
<rect x="82.7097" y="68.5916" width="0.614319" height="0.742065" fill="#445D81"/>
<rect x="91.4504" y="68.799" width="0.614319" height="0.742065" fill="#445D81"/>
<rect x="92.0647" y="77.8199" width="0.614319" height="0.742065" fill="#445D81"/>
<rect x="80.679" y="77.5585" width="0.614319" height="0.742065" fill="#445D81"/>
<rect x="77.8253" y="73.5082" width="0.614319" height="0.742065" fill="#445D81"/>
<rect x="77.2517" y="63.0419" width="0.278137" height="5.54968" fill="#445D81"/>
<rect x="73.5535" y="63.673" width="0.203247" height="2.72473" transform="rotate(-0.541862 73.5535 63.673)" fill="#445D81"/>
<rect x="115.944" y="62.5005" width="1.13049" height="3.48566" fill="#445D81"/>
<rect x="117.521" y="62.5005" width="1.13049" height="3.48566" fill="#445D81"/>
<rect x="118.889" y="62.5005" width="1.13049" height="3.48566" fill="#445D81"/>
<rect x="111.668" y="63.4608" width="0.745605" height="0.782532" fill="#445D81"/>
<rect x="111.296" y="68.4564" width="0.745605" height="0.782532" fill="#445D81"/>
<rect x="111.668" y="73.2283" width="0.745605" height="0.782532" fill="#445D81"/>
<rect x="110.923" y="79.0441" width="0.745605" height="0.782532" fill="#445D81"/>
<rect x="108.537" y="87.5068" width="0.745605" height="0.782532" fill="#445D81"/>
<rect x="123.673" y="87.5068" width="0.745605" height="0.782532" fill="#445D81"/>
<rect x="122.703" y="85.009" width="0.745605" height="0.782532" fill="#445D81"/>
<rect x="130.421" y="85.7916" width="0.745605" height="0.782532" fill="#445D81"/>
<rect x="130.793" y="79.8267" width="0.745605" height="0.782532" fill="#445D81"/>
<rect x="129.004" y="74.8311" width="0.745605" height="0.782532" fill="#445D81"/>
<rect x="120.243" y="69.4254" width="0.745605" height="0.782532" fill="#445D81"/>
<rect x="120.826" y="60.0944" width="0.745605" height="0.782532" fill="#445D81"/>
<rect x="129.004" y="65.019" width="0.745605" height="0.782532" fill="#445D81"/>
<rect x="114.456" y="71.1679" width="0.366028" height="5.68762" transform="rotate(-0.281249 114.456 71.1679)" fill="#445D81"/>
<rect x="122.978" y="71.991" width="0.366028" height="5.68762" transform="rotate(-1.03267 122.978 71.991)" fill="#445D81"/>
<rect x="60.3989" y="82.0123" width="0.715576" height="0.866272" fill="#445D81"/>
<rect x="60.4952" y="86.1968" width="0.522888" height="0.866272" fill="#445D81"/>
<rect x="58.6921" y="89.1288" width="0.522888" height="0.866272" fill="#445D81"/>
<rect x="69.5104" y="76.8864" width="0.956299" height="0.866272" fill="#445D81"/>
<rect x="61.396" y="77.3195" width="0.647034" height="0.866272" fill="#445D81"/>
<rect x="61.396" y="66.9883" width="0.647034" height="0.866272" fill="#445D81"/>
<rect x="52.0754" y="74.1817" width="0.305115" height="2.23846" transform="rotate(-2.86956 52.0754 74.1817)" fill="#445D81"/>
<rect x="47.4132" y="75.518" width="0.53409" height="2.23846" transform="rotate(-0.114044 47.4132 75.518)" fill="#445D81"/>
<rect x="45.2246" y="77.0695" width="0.195636" height="2.23846" transform="rotate(-1.39216 45.2246 77.0695)" fill="#445D81"/>
<rect x="55.7654" y="82.8786" width="0.195636" height="1.11028" transform="rotate(-1.39216 55.7654 82.8786)" fill="#445D81"/>
<rect x="51.8528" y="83.9933" width="0.195636" height="0.687213" transform="rotate(-1.39216 51.8528 83.9933)" fill="#445D81"/>
<rect x="47.7395" y="84.9364" width="0.195636" height="0.687213" transform="rotate(-1.39216 47.7395 84.9364)" fill="#445D81"/>
<path d="M98.314 4.64088L98.5819 4.64088L100.387 34.7672L99.8012 34.7672L98.314 4.64088Z" fill="#D9D9D9"/>
<mask id="mask6_2130_2999" style="mask-type:alpha" maskUnits="userSpaceOnUse" x="87" y="5" width="12" height="6">
<path d="M94.285 6.73183C95.5068 6.47143 97.1094 5.44983 98.3313 5.28957C97.2095 7.93366 98.131 9.97018 98.7319 10.6579C98.0709 10.6045 96.6927 10.4897 96.4684 10.4576C96.188 10.4176 92.1417 9.75653 91.1 9.45606C90.0584 9.15559 89.4976 9.23572 87.4143 8.97531C87.7188 9.00736 88.3958 7.6399 88.6963 6.95217C89.384 7.00558 90.8877 7.10841 91.4005 7.09238C92.0415 7.07235 93.0631 6.99223 94.285 6.73183Z" fill="#D9D9D9"/>
</mask>
<g mask="url(#mask6_2130_2999)">
<path d="M94.285 6.73183C95.5068 6.47143 97.1094 5.44983 98.3313 5.28957C97.2095 7.93366 98.131 9.97018 98.7319 10.6579C98.0709 10.6045 96.6927 10.4897 96.4684 10.4576C96.188 10.4176 92.1417 9.75653 91.1 9.45606C90.0584 9.15559 89.4976 9.23572 87.4143 8.97531C87.7188 9.00736 88.3958 7.6399 88.6963 6.95217C89.384 7.00558 90.8877 7.10841 91.4005 7.09238C92.0415 7.07235 93.0631 6.99223 94.285 6.73183Z" fill="#F4F4F4"/>
<path d="M92.6825 8.06462C91.9117 7.84878 91.11 7.97214 87.7493 8.06462C87.4821 8.59904 86.9908 9.68023 87.1635 9.72956C87.3362 9.77889 90.1953 11.0245 91.6033 11.6412C94.481 11.4664 100.236 11.0862 100.236 10.9628C100.236 10.8395 99.3731 9.24652 98.9414 8.46544H97.2765C96.0021 8.40378 93.2991 8.23729 92.6825 8.06462Z" fill="#658C67"/>
</g>
<path d="M94.0807 7.3888C94.2389 7.33033 94.3306 7.29549 94.3661 7.28044C94.382 7.27368 94.3936 7.26818 94.3919 7.26822C94.3871 7.26834 94.2726 7.30563 94.1025 7.36254C93.8497 7.44704 93.5753 7.54745 93.3439 7.64007C93.2162 7.69118 93.1685 7.71441 93.1156 7.75121C93.0889 7.76978 93.0883 7.77037 93.0218 7.83656C92.9459 7.91225 92.9338 7.92238 92.883 7.95252C92.8574 7.96769 92.8553 7.96925 92.8639 7.96659C92.9007 7.95522 92.9639 7.92453 93.0291 7.8863C93.0708 7.86191 93.1388 7.81833 93.167 7.79791C93.203 7.77191 93.2882 7.72226 93.3519 7.69011C93.5178 7.60649 93.7367 7.51598 94.0807 7.3888Z" fill="#FE0000"/>
<path d="M92.6626 7.51181C92.6252 7.52619 92.6096 7.52399 92.6175 7.50542C92.6205 7.49828 92.6159 7.496 92.6077 7.50058C92.5981 7.50594 92.5971 7.52313 92.6062 7.52761C92.6138 7.53139 92.6317 7.53035 92.6499 7.52506C92.6663 7.5203 92.6937 7.50763 92.6941 7.50462C92.6945 7.50097 92.6853 7.50308 92.6626 7.51181Z" fill="#FE0000"/>
<path d="M92.6638 7.50578C92.6701 7.50269 92.6687 7.50199 92.6533 7.50075C92.6435 7.49996 92.6345 7.49936 92.6333 7.49943C92.6287 7.49967 92.6277 7.51232 92.6322 7.51331C92.6377 7.51454 92.6536 7.51076 92.6638 7.50578Z" fill="#FE0000"/>
<path fill-rule="evenodd" clip-rule="evenodd" d="M93.2224 7.4016C93.2203 7.39884 93.2305 7.39006 93.2672 7.35834C93.2859 7.34218 93.301 7.32877 93.3008 7.32854C93.3005 7.32831 93.2895 7.33231 93.2762 7.33743C93.263 7.34254 93.2424 7.34883 93.2305 7.35141C93.2186 7.35398 93.1923 7.3597 93.1721 7.36413C93.1518 7.36856 93.1196 7.37557 93.1005 7.3797C93.0564 7.38925 93.018 7.4006 92.9891 7.41261C92.9767 7.41779 92.9652 7.4221 92.9636 7.42218C92.962 7.42226 92.9529 7.42779 92.9435 7.43447C92.9213 7.45011 92.9002 7.46189 92.8937 7.46223C92.8909 7.46238 92.8899 7.4617 92.8914 7.46072C92.8929 7.45974 92.9036 7.45316 92.9152 7.4461C92.9267 7.43903 92.9392 7.43068 92.9428 7.42755C92.9492 7.42208 92.9487 7.42187 92.9309 7.42228C92.9206 7.42252 92.8764 7.42315 92.8327 7.42368C92.7052 7.42522 92.6784 7.42747 92.6312 7.44061C92.6196 7.44382 92.6026 7.44953 92.5934 7.4533C92.5765 7.46018 92.542 7.47983 92.5356 7.48628C92.533 7.48883 92.5285 7.48997 92.5184 7.49059C92.5109 7.49105 92.4986 7.49242 92.4911 7.49362L92.4775 7.49582L92.477 7.50675C92.4758 7.53082 92.4624 7.54733 92.4317 7.56268C92.4098 7.57359 92.4009 7.57678 92.4013 7.57352C92.4015 7.57222 92.4079 7.56826 92.4156 7.56472C92.4344 7.55604 92.4453 7.5493 92.453 7.54165C92.4597 7.53489 92.4653 7.51801 92.4645 7.507C92.4642 7.50338 92.4652 7.49922 92.4666 7.49778C92.4694 7.49497 92.4686 7.49504 92.3885 7.50474C92.283 7.51754 92.1969 7.54116 92.1052 7.58252C92.0902 7.58927 92.0782 7.59528 92.0785 7.59588C92.0787 7.59648 92.1083 7.59341 92.1441 7.58905C92.217 7.58019 92.2857 7.57691 92.3027 7.58147C92.312 7.58394 92.3131 7.58376 92.3368 7.57609C92.3612 7.56819 92.3614 7.5681 92.3833 7.55133C92.4074 7.5329 92.4112 7.53062 92.4126 7.53378C92.4137 7.53623 92.3763 7.56557 92.3651 7.5711C92.3612 7.57298 92.3493 7.57757 92.3386 7.58128L92.3191 7.58804L92.3223 7.59408C92.324 7.5974 92.3241 7.60476 92.3225 7.61044C92.3191 7.62228 92.3226 7.62277 92.3588 7.61552C92.3862 7.61004 92.4249 7.59838 92.4675 7.58275C92.4901 7.57445 92.5012 7.5712 92.5018 7.57264C92.5023 7.57381 92.5078 7.57452 92.5141 7.57421C92.5477 7.57254 92.5806 7.58333 92.5869 7.59809C92.5952 7.61783 92.5952 7.61831 92.5716 7.69907C92.5687 7.70893 92.5673 7.71696 92.5684 7.7169C92.5695 7.71684 92.5873 7.70772 92.608 7.69663C92.6287 7.68554 92.6467 7.67641 92.6479 7.67634C92.6492 7.67628 92.6484 7.68119 92.6463 7.68727C92.6442 7.69335 92.643 7.69873 92.6438 7.69924C92.6445 7.69975 92.6589 7.69211 92.6757 7.68227C92.6925 7.67242 92.7088 7.66372 92.7118 7.66294C92.7149 7.66216 92.7224 7.66535 92.7286 7.67003C92.7348 7.6747 92.7412 7.67795 92.7427 7.67724C92.7444 7.67652 92.7507 7.66727 92.7569 7.65666C92.77 7.63416 92.771 7.63358 92.799 7.63206C92.8091 7.63152 92.818 7.63049 92.8187 7.62979C92.8258 7.62262 92.8139 7.61156 92.797 7.60967C92.792 7.60911 92.7897 7.60748 92.7919 7.60599C92.794 7.60451 92.8114 7.59754 92.8305 7.59049C92.8496 7.58344 92.8662 7.57679 92.8674 7.57571C92.8713 7.5722 92.8487 7.56307 92.8376 7.56365C92.8261 7.56425 92.8269 7.56141 92.84 7.55513C92.8443 7.55304 92.8564 7.5464 92.8669 7.54037L92.886 7.5294L92.8753 7.52859C92.8616 7.52754 92.8575 7.52494 92.8647 7.52176C92.8683 7.52018 92.8792 7.52005 92.8967 7.52139C92.9184 7.52303 92.9286 7.5227 92.9516 7.51962C92.9856 7.51505 93.0261 7.50487 93.0282 7.50035C93.0304 7.49582 93.0504 7.48228 93.0752 7.46859C93.0935 7.45852 93.1086 7.45248 93.1677 7.43163C93.2065 7.41793 93.239 7.40608 93.2398 7.4053C93.2406 7.40453 93.2361 7.40355 93.2299 7.40312C93.226 7.40286 93.2232 7.40271 93.2224 7.4016ZM93.1211 7.40142C93.1434 7.39953 93.146 7.39885 93.1701 7.38888C93.1954 7.37845 93.2014 7.37712 93.1952 7.38338C93.1885 7.39008 93.0713 7.43302 93.0127 7.45029C92.9386 7.47208 92.9202 7.48776 92.9646 7.49124C92.9773 7.49223 92.982 7.49369 92.9797 7.49593C92.9771 7.49855 92.9731 7.4991 92.9588 7.49876C92.9365 7.49825 92.9255 7.49454 92.9261 7.48768C92.9264 7.48294 92.9279 7.48142 92.9387 7.47443C92.955 7.46381 92.9789 7.45433 93.0173 7.44324C93.0349 7.43816 93.0651 7.42831 93.0846 7.42133C93.1149 7.41048 93.119 7.4086 93.1131 7.40828C93.1093 7.40807 93.0989 7.40998 93.0899 7.41252C93.0782 7.41581 93.0732 7.41649 93.0725 7.41489C93.0705 7.41057 93.0958 7.40358 93.1211 7.40142ZM92.5805 7.50267C92.559 7.50461 92.5616 7.5006 92.5846 7.49624C92.6062 7.49215 92.6463 7.49066 92.6679 7.49316C92.7308 7.50045 92.7409 7.50065 92.7726 7.49523C92.7891 7.49239 92.8096 7.48824 92.8182 7.486C92.8296 7.483 92.8341 7.48254 92.8348 7.48425C92.8376 7.49033 92.7552 7.50711 92.7254 7.50655L92.7075 7.50621L92.6827 7.51752C92.6376 7.5381 92.6068 7.54344 92.592 7.53327C92.5853 7.52873 92.5854 7.51208 92.5921 7.50538C92.5956 7.50186 92.5939 7.50145 92.5805 7.50267Z" fill="#FE0000"/>
<path d="M94.2143 7.42136C94.2237 7.39401 94.2822 7.34177 94.3581 7.2929C94.3677 7.28672 94.361 7.28836 94.3381 7.2978C94.316 7.30692 94.234 7.33776 94.1103 7.38343C93.8405 7.48306 93.653 7.55764 93.5018 7.62551C93.4303 7.6576 93.3567 7.69261 93.3575 7.69422C93.3577 7.69468 93.3733 7.6904 93.3923 7.68471C93.4234 7.67533 93.4456 7.66917 93.5379 7.64421C93.606 7.62581 94.1368 7.4881 94.2375 7.46271C94.2558 7.4581 94.2623 7.45473 94.2518 7.45528C94.2402 7.45589 94.2219 7.44871 94.2159 7.44124C94.2123 7.43666 94.2117 7.42913 94.2143 7.42136Z" fill="#FE0000"/>
<path d="M94.9543 7.28367C94.9597 7.28166 94.9649 7.2797 94.966 7.27931C94.9671 7.27892 94.9665 7.27868 94.9646 7.27878C94.9628 7.27887 94.9576 7.28083 94.953 7.28313C94.9453 7.287 94.9454 7.28704 94.9543 7.28367Z" fill="#FE0000"/>
<path d="M94.884 7.31107C94.9161 7.29842 94.9428 7.28767 94.9433 7.28717C94.9438 7.28667 94.9437 7.28639 94.9431 7.28653C94.9349 7.28866 94.2834 7.47764 94.192 7.50442C94.1503 7.51662 94.1159 7.52662 94.1154 7.52665C94.115 7.52667 94.0792 7.53709 94.0359 7.54979C93.9926 7.5625 93.9479 7.5755 93.9367 7.57869C93.9092 7.58646 93.5972 7.67915 93.5084 7.70591C93.4694 7.71766 93.4378 7.72773 93.438 7.7283C93.4383 7.72887 93.46 7.7253 93.4864 7.72037C93.7036 7.67967 94.3266 7.58144 94.4844 7.56299C94.5032 7.56079 94.5243 7.55814 94.5311 7.5571L94.5436 7.5552L94.5329 7.55039C94.5081 7.53914 94.5026 7.52098 94.5177 7.50082C94.5499 7.45806 94.6736 7.39395 94.884 7.31107Z" fill="#FE0000"/>
<path d="M94.6627 7.36204C94.6918 7.35369 94.7179 7.34591 94.7206 7.34477C94.7222 7.34409 94.7235 7.34355 94.7236 7.34338C94.7238 7.34273 94.7068 7.34719 94.626 7.36843C94.507 7.39974 94.4293 7.41951 94.3541 7.43766C94.3223 7.44533 94.2947 7.45242 94.2929 7.45341C94.2891 7.45544 94.1153 7.50061 93.876 7.56177C93.671 7.61418 93.4753 7.66645 93.3784 7.69467L93.3227 7.71091L93.2911 7.72825C93.2512 7.7502 93.1952 7.78467 93.1752 7.79963C93.1406 7.82542 93.0407 7.88748 92.9863 7.91699C92.9268 7.94926 92.85 7.9804 92.8268 7.98167C92.8085 7.98268 92.5353 8.03107 92.5018 8.03922C92.3923 8.06593 92.2423 8.12088 92.0892 8.19045C92.0335 8.21573 91.9625 8.25111 91.9634 8.25313C91.9636 8.25353 91.9914 8.24337 92.0252 8.23053C92.1891 8.16826 92.3897 8.1061 92.5016 8.08293C92.5343 8.07615 92.5781 8.07004 92.5755 8.07262C92.5747 8.07338 92.5344 8.09811 92.4859 8.12757C92.389 8.18642 92.3523 8.20922 92.3121 8.23554C92.28 8.25664 92.2497 8.27734 92.2512 8.27726C92.2518 8.27723 92.2657 8.2697 92.2821 8.26054C92.2986 8.25137 92.3404 8.22918 92.3752 8.21124C92.5493 8.12145 92.6853 8.06431 92.6916 8.07835C92.6923 8.08006 92.6894 8.08122 92.6806 8.08273C92.6707 8.08441 92.6655 8.08667 92.652 8.09525C92.6304 8.10898 92.5901 8.14082 92.5466 8.17859C92.5128 8.20792 92.3895 8.32572 92.3953 8.32323C92.3968 8.32256 92.4147 8.30967 92.4351 8.29459C92.5155 8.23496 92.6779 8.1244 92.7625 8.07172C92.8225 8.03437 92.8325 8.03141 92.8224 8.05413C92.8016 8.10091 92.7291 8.23551 92.7005 8.28048C92.6912 8.29509 92.6838 8.30752 92.6841 8.30809C92.6845 8.30866 92.6996 8.29342 92.7178 8.27422C92.792 8.19609 92.9085 8.04186 92.9201 8.00659C92.9224 7.99963 92.9241 7.99769 92.9297 7.99544C92.9403 7.99117 92.9494 7.99678 92.9616 8.01502C92.9884 8.05512 93.0222 8.14314 93.0374 8.2121C93.0392 8.22061 93.0424 8.22596 93.0444 8.22399C93.0463 8.22203 93.0526 8.20455 93.0582 8.18515C93.0817 8.10461 93.0724 8.01247 93.0371 7.97487C93.0304 7.9678 93.0257 7.96126 93.0266 7.96036C93.0336 7.95334 93.061 7.95564 93.109 7.96726C93.158 7.97913 93.2639 8.01211 93.312 8.03045C93.3853 8.05838 93.4278 8.07689 93.4564 8.09326L93.469 8.10042L93.4661 8.09281C93.4645 8.08863 93.4567 8.07867 93.4489 8.07068C93.441 8.06269 93.4323 8.05369 93.4295 8.05067C93.422 8.04272 93.3709 8.0017 93.3464 7.98399C93.2919 7.94464 93.2078 7.90066 93.1722 7.89289C93.1622 7.89071 93.1536 7.88824 93.153 7.88739C93.1497 7.88235 93.2646 7.87016 93.3302 7.86859C93.4992 7.86453 93.7165 7.8718 93.8934 7.88741C93.9268 7.89036 93.956 7.89236 93.9581 7.89185C93.9603 7.89134 93.9532 7.88726 93.9423 7.88278C93.8714 7.85356 93.6519 7.82884 93.4419 7.82642C93.3789 7.82569 93.2762 7.82791 93.2491 7.83058C93.2315 7.83233 93.2301 7.8321 93.2348 7.82829C93.2609 7.80736 93.6972 7.71599 94.3927 7.58587C94.4259 7.57965 94.453 7.57423 94.4528 7.57382C94.4523 7.57274 94.2815 7.59752 94.1338 7.62009C93.8252 7.66729 93.5013 7.72172 93.3958 7.74412C93.3521 7.75341 93.363 7.74592 93.4204 7.72721C93.4616 7.71378 93.7775 7.61923 93.9143 7.5794C93.9613 7.56573 94.0257 7.54696 94.0574 7.53767C94.1987 7.49636 94.4796 7.41462 94.4948 7.4104C94.504 7.40784 94.5336 7.39934 94.5606 7.39149C94.5876 7.38365 94.6335 7.37039 94.6627 7.36204Z" fill="#FE0000"/>
<path d="M95.0542 7.56629C95.0904 7.52551 95.1843 7.43162 95.2234 7.39721C95.2402 7.38239 95.2538 7.36984 95.2535 7.36934C95.2533 7.36883 95.2336 7.37789 95.2098 7.38948C95.0754 7.45495 94.8749 7.54679 94.6967 7.62455C94.6223 7.65705 94.5921 7.66956 94.5903 7.67423C94.5889 7.67777 94.6038 7.6768 94.6279 7.67663C94.6603 7.67639 94.7637 7.66533 94.7735 7.66106C94.7764 7.65981 94.8147 7.63452 94.8587 7.60486C94.9187 7.56439 94.9404 7.55066 94.9453 7.54984C94.9502 7.54902 94.9503 7.54982 94.9459 7.55302C94.9305 7.56413 94.8009 7.65092 94.7919 7.65612C94.7863 7.65936 94.7526 7.67979 94.717 7.70151C94.6738 7.7279 94.653 7.74147 94.6543 7.7424C94.662 7.74766 94.6745 7.76924 94.676 7.77993C94.6772 7.78864 94.6795 7.79179 94.683 7.78973C94.6933 7.78366 94.8654 7.66131 94.8903 7.64231C94.9131 7.6249 94.9494 7.59479 94.996 7.55453C95.0143 7.53872 95.0265 7.5337 95.0124 7.54776C94.9973 7.5629 94.9395 7.61164 94.9055 7.63799L94.8733 7.6629L94.8707 7.67192C94.8662 7.68718 94.8842 7.71933 94.9032 7.72994C94.9123 7.73505 94.9214 7.73915 94.9233 7.73905C94.9253 7.73895 94.9307 7.73141 94.9365 7.7207C94.9553 7.68547 94.9971 7.63073 95.0542 7.56629Z" fill="#FE0000"/>
<path d="M93.0165 7.55078C93.0164 7.54859 93.0185 7.53825 93.0211 7.5278C93.0238 7.51736 93.0251 7.50886 93.0241 7.50892C93.0231 7.50897 93.0199 7.51008 93.017 7.51138C93.0031 7.51759 92.9624 7.52542 92.9292 7.52827L92.8944 7.53126L92.8721 7.54392C92.8555 7.55333 92.851 7.55652 92.8545 7.55634C92.8606 7.55602 92.8773 7.56447 92.881 7.56969C92.8826 7.57189 92.8825 7.57504 92.8808 7.57671C92.8791 7.57838 92.8652 7.58412 92.8498 7.58949C92.8345 7.59485 92.8203 7.60013 92.8183 7.60121C92.8164 7.6023 92.8178 7.60463 92.8215 7.60639C92.8303 7.61054 92.8349 7.61894 92.8328 7.6268C92.8305 7.63506 92.8248 7.63703 92.7987 7.63844C92.7877 7.63903 92.7779 7.64028 92.777 7.64121C92.7761 7.64214 92.7691 7.65376 92.7616 7.66703C92.7541 7.6803 92.7464 7.69199 92.7446 7.69301C92.7427 7.69403 92.7338 7.68939 92.7247 7.68269C92.7156 7.67599 92.7072 7.67092 92.7061 7.67142C92.7049 7.67192 92.6923 7.67914 92.6779 7.68746C92.645 7.70655 92.6255 7.72288 92.5705 7.7778C92.4988 7.84935 92.4538 7.90693 92.4161 7.97534C92.3925 8.01817 92.378 8.06511 92.3885 8.06456C92.3908 8.06444 92.4116 8.0586 92.4349 8.05158C92.4581 8.04456 92.488 8.03659 92.5013 8.03387C92.5192 8.03019 92.5264 8.02791 92.5294 8.02497C92.5315 8.02279 92.5375 8.01255 92.5427 8.00219C92.5538 7.97987 92.5632 7.97138 92.589 7.96C92.6193 7.94667 92.6446 7.94382 92.6765 7.95014C92.6824 7.95132 92.6828 7.95111 92.6902 7.94161C92.6944 7.93626 92.6982 7.92872 92.6988 7.92487C92.6998 7.91728 92.6849 7.90502 92.6709 7.90178C92.6486 7.89664 92.6481 7.87925 92.6695 7.85763C92.7061 7.82089 92.7414 7.81541 92.7921 7.83866C92.8054 7.84478 92.8116 7.84767 92.8164 7.84566C92.8207 7.84387 92.8238 7.83825 92.8299 7.82762C92.8454 7.80067 92.8419 7.78406 92.8195 7.77822C92.7846 7.76912 92.8058 7.73251 92.8598 7.70845C92.8773 7.70068 92.8796 7.70013 92.8943 7.70023C92.9039 7.70029 92.9175 7.7033 92.9295 7.70803C92.9403 7.71226 92.9519 7.71611 92.9554 7.71658C92.9616 7.71742 92.962 7.71716 92.9717 7.7058C92.9846 7.69074 92.9899 7.67718 92.9882 7.66353C92.987 7.65424 92.984 7.65163 92.9683 7.64639C92.9395 7.6368 92.9391 7.62817 92.9669 7.61579C92.9849 7.6078 93.0084 7.60326 93.0414 7.60139C93.0569 7.60052 93.0702 7.59912 93.071 7.59828C93.0719 7.59744 93.072 7.59293 93.0712 7.58826C93.0694 7.57709 93.0571 7.56774 93.0348 7.56059C93.0248 7.55739 93.0166 7.55298 93.0165 7.55078Z" fill="#FE0000"/>
<path d="M92.056 7.6331C91.9669 7.62407 91.909 7.60824 91.8782 7.58446C91.8729 7.58034 91.8676 7.57625 91.8664 7.57537C91.8632 7.57308 91.861 7.57603 91.8544 7.59098C91.8308 7.64481 91.8541 7.72043 91.9021 7.74557C91.9085 7.7489 91.915 7.75101 91.9167 7.75026C91.9206 7.74855 91.9258 7.71846 91.9223 7.71865C91.9197 7.71878 91.9243 7.68001 91.9272 7.67715C91.928 7.67637 91.9386 7.6736 91.9507 7.671C91.9764 7.66552 92.0649 7.64044 92.0702 7.63714C92.0722 7.63591 92.0658 7.63409 92.056 7.6331Z" fill="#FE0000"/>
<path d="M92.456 7.59871C92.4606 7.60463 92.4637 7.60358 92.475 7.59228C92.4805 7.58669 92.4847 7.58217 92.4842 7.58224C92.4838 7.58231 92.4765 7.58513 92.4681 7.58852L92.4529 7.59467L92.456 7.59871Z" fill="#FE0000"/>
<path d="M92.4172 7.61237C92.4215 7.61683 92.424 7.61604 92.4327 7.60735C92.437 7.603 92.4394 7.59958 92.438 7.59975C92.4366 7.59992 92.4226 7.60399 92.407 7.60878C92.3914 7.61357 92.3688 7.6196 92.3567 7.62218L92.3348 7.62688L92.3385 7.63179C92.3423 7.63688 92.3477 7.6379 92.3513 7.63422C92.3525 7.63306 92.3576 7.62935 92.3626 7.62597L92.3718 7.61983L92.3842 7.62829L92.3968 7.61896C92.4107 7.6087 92.413 7.60796 92.4172 7.61237Z" fill="#FE0000"/>
<path d="M92.5705 7.65709C92.5716 7.65599 92.5747 7.64668 92.5773 7.6364C92.58 7.62612 92.5811 7.61787 92.5798 7.61808C92.4048 7.64531 92.2724 7.65845 92.0922 7.66648C91.9917 7.67095 91.9644 7.67275 91.9537 7.67564C91.9463 7.67762 91.9396 7.67986 91.9389 7.68062C91.9381 7.68137 91.9364 7.6895 91.9351 7.69868L91.9328 7.71537L91.9675 7.71493C92.068 7.71368 92.2457 7.70788 92.2506 7.70569C92.2522 7.705 92.2642 7.69522 92.2774 7.68395C92.3023 7.66261 92.3103 7.65642 92.3109 7.6579C92.3111 7.65838 92.3048 7.66803 92.2968 7.67935C92.2799 7.70349 92.2797 7.70413 92.2891 7.70224C92.2938 7.70129 92.2998 7.69794 92.3066 7.69242C92.3249 7.67766 92.3401 7.66678 92.3427 7.66665C92.3441 7.66658 92.341 7.67396 92.3358 7.68307C92.3265 7.69925 92.3266 7.6996 92.3368 7.69907C92.3465 7.69856 92.3483 7.69775 92.3604 7.68873C92.3825 7.67228 92.3846 7.67088 92.3876 7.67072C92.3892 7.67063 92.3888 7.67643 92.3867 7.68361L92.3828 7.69665L92.3961 7.69313C92.4086 7.68982 92.4102 7.68888 92.4232 7.67673C92.4308 7.66965 92.438 7.66378 92.4392 7.6637C92.4405 7.66361 92.4424 7.66749 92.4435 7.67232C92.4453 7.68015 92.4466 7.68077 92.4552 7.67809C92.4626 7.67578 92.4668 7.67302 92.4737 7.66613C92.4786 7.6612 92.4835 7.65713 92.4845 7.65708C92.4855 7.65702 92.4886 7.65943 92.4914 7.66241C92.4964 7.66769 92.4972 7.66774 92.5193 7.66416C92.5318 7.66214 92.548 7.66017 92.5553 7.65979C92.5626 7.65941 92.5694 7.65819 92.5705 7.65709Z" fill="#FE0000"/>
<path d="M92.5614 7.69044C92.5653 7.68652 92.5681 7.66799 92.565 7.66704C92.5609 7.66582 92.5355 7.66718 92.5235 7.66926C92.4981 7.67369 92.4765 7.6787 92.431 7.69072L92.3796 7.70429L92.3078 7.70875C92.2683 7.7112 92.2353 7.7139 92.2345 7.71475C92.2336 7.7156 92.2254 7.7265 92.2161 7.73897C92.2005 7.76005 92.1945 7.77175 92.1955 7.77905C92.1958 7.78093 92.1882 7.78943 92.175 7.80195C92.1565 7.81947 92.1535 7.82334 92.1496 7.834C92.1453 7.84561 92.1478 7.84901 92.1559 7.84288C92.1818 7.82341 92.2813 7.75698 92.2864 7.75579C92.2883 7.75534 92.2876 7.76185 92.2849 7.77026C92.2802 7.78456 92.2812 7.78902 92.2878 7.78245C92.2954 7.77488 92.3409 7.74896 92.3668 7.73741C92.4232 7.71231 92.4858 7.69554 92.5322 7.69311C92.5476 7.6923 92.5607 7.6911 92.5614 7.69044Z" fill="#FE0000"/>
<path d="M94.0682 7.76879C94.1609 7.69965 94.2988 7.6351 94.4579 7.58638C94.4868 7.57755 94.5089 7.57047 94.507 7.57063C94.5052 7.5708 94.491 7.57341 94.4755 7.57643C94.46 7.57946 94.3936 7.59203 94.3281 7.60438C93.7919 7.70532 93.3906 7.78682 93.2859 7.816L93.2671 7.82127L93.2813 7.82069C93.3521 7.81778 93.515 7.81913 93.5858 7.82321C93.7665 7.83362 93.9173 7.85594 93.9631 7.87908L93.9775 7.88635L93.9804 7.87498C93.9886 7.84285 94.0204 7.80447 94.0682 7.76879Z" fill="#FE0000"/>
<path d="M92.3157 7.69893C92.3166 7.69702 92.3183 7.69452 92.3194 7.69338C92.3205 7.69224 92.32 7.69138 92.3183 7.69148C92.3165 7.69157 92.3125 7.69418 92.3094 7.69729C92.3058 7.70097 92.3056 7.70284 92.3089 7.70267C92.3123 7.70249 92.3146 7.70121 92.3157 7.69893Z" fill="#FE0000"/>
<path d="M92.3651 7.69758C92.3705 7.6973 92.3711 7.69688 92.3734 7.69197C92.3757 7.68707 92.3702 7.68793 92.3648 7.69332C92.3623 7.69583 92.3625 7.69772 92.3651 7.69758Z" fill="#FE0000"/>
<path d="M92.2655 7.70495C92.2672 7.70485 92.2702 7.70325 92.2721 7.70139C92.2739 7.69953 92.274 7.69808 92.2723 7.69817C92.2705 7.69826 92.2675 7.69986 92.2657 7.70173C92.2638 7.70359 92.2637 7.70504 92.2655 7.70495Z" fill="#FE0000"/>
<path d="M92.6271 7.7113L92.6301 7.70135C92.6317 7.69588 92.6328 7.691 92.6326 7.6905C92.6324 7.69 92.6153 7.69877 92.5945 7.70997C92.5738 7.72118 92.5557 7.73041 92.5544 7.73048C92.5531 7.73055 92.5537 7.72329 92.5558 7.71435L92.5596 7.6981L92.5293 7.69968C92.5127 7.70055 92.4987 7.70168 92.4982 7.70219C92.4977 7.70269 92.4948 7.70949 92.4919 7.71729C92.4876 7.7285 92.4882 7.73319 92.4945 7.73963C92.5066 7.75201 92.5185 7.75668 92.5375 7.75651L92.5544 7.75637L92.6271 7.7113Z" fill="#FE0000"/>
<path d="M92.512 7.82516L92.5613 7.77635C92.5885 7.7495 92.6104 7.72754 92.6101 7.72756C92.6058 7.72778 92.4802 7.814 92.4716 7.8226C92.4669 7.82726 92.464 7.84439 92.4679 7.84419C92.4691 7.84413 92.4795 7.83982 92.491 7.83462L92.512 7.82516Z" fill="#FE0000"/>
<path d="M92.5242 7.76439C92.5036 7.76229 92.4877 7.75542 92.4821 7.74625C92.4768 7.73762 92.4763 7.73758 92.4581 7.74375C92.4285 7.75375 92.3863 7.77827 92.3629 7.79908C92.3475 7.8128 92.347 7.81367 92.3489 7.82122C92.3525 7.8352 92.3774 7.84521 92.4111 7.84622L92.4281 7.84674L92.4667 7.81826C92.488 7.80259 92.5131 7.78442 92.5225 7.77788L92.5397 7.76598L92.5242 7.76439Z" fill="#FE0000"/>
<path d="M91.7875 7.83372C91.788 7.82006 91.7821 7.80891 91.7715 7.80371C91.7668 7.80144 91.7581 7.79925 91.7521 7.79884L91.7412 7.7981L91.7441 7.80739C91.7478 7.81894 91.7433 7.83314 91.7315 7.84756C91.7265 7.85366 91.7235 7.85935 91.7249 7.86022C91.7263 7.86109 91.7261 7.86312 91.7245 7.86473C91.7229 7.86634 91.7225 7.86916 91.7236 7.87102C91.7255 7.87416 91.7266 7.87384 91.7399 7.86599C91.7477 7.86138 91.7615 7.85463 91.7706 7.85098L91.7871 7.84435L91.7875 7.83372Z" fill="#FE0000"/>
<path d="M91.7332 7.91074C91.7681 7.88619 91.7788 7.87568 91.7831 7.8617C91.7846 7.85714 91.7845 7.85315 91.7829 7.85283C91.7798 7.85216 91.7474 7.86715 91.7345 7.87528C91.7204 7.88412 91.714 7.88441 91.7112 7.87634L91.7085 7.86892L91.6851 7.8857C91.6297 7.92558 91.5951 7.9578 91.5731 7.99009C91.5683 7.99711 91.5632 8.00292 91.5617 8.003C91.5577 8.00321 91.5648 7.98237 91.5801 7.94851C91.593 7.92013 91.5976 7.90449 91.5938 7.90189C91.5928 7.90123 91.5811 7.90555 91.5677 7.91151C91.5434 7.92234 91.5219 7.9279 91.5138 7.92547C91.5084 7.92386 91.5174 7.91852 91.525 7.91875C91.5333 7.919 91.553 7.91293 91.571 7.90461L91.5852 7.89805L91.5819 7.89004C91.5771 7.8784 91.5607 7.87209 91.5354 7.87214C91.5216 7.87217 91.5135 7.87301 91.5119 7.87459C91.5106 7.87592 91.5117 7.87748 91.5143 7.87806C91.5215 7.87967 91.5246 7.89495 91.5201 7.90742C91.5162 7.91852 91.5161 7.91859 91.5051 7.92362C91.4893 7.93091 91.4768 7.94425 91.4747 7.95618C91.4737 7.96217 91.4687 7.97107 91.4616 7.9794C91.4408 8.00393 91.4414 8.01976 91.4635 8.03127C91.474 8.03674 91.4744 8.03802 91.4678 8.04371C91.4637 8.0472 91.4234 8.08231 91.3783 8.12174C91.3278 8.16591 91.2946 8.19382 91.2919 8.19445C91.2835 8.19641 91.2594 8.20839 91.2271 8.22668C91.2092 8.2368 91.1868 8.24808 91.1772 8.25175C91.1519 8.26149 91.135 8.26982 91.1292 8.27551C91.1236 8.28108 91.1285 8.28538 91.1378 8.283C91.1525 8.27926 91.1635 8.29564 91.1532 8.30595C91.1459 8.31322 91.1491 8.31446 91.1627 8.30965C91.1771 8.30457 91.1937 8.29435 91.2234 8.2721C91.2403 8.25947 91.255 8.25028 91.2757 8.2394C91.2916 8.23107 91.3159 8.21713 91.3297 8.20843L91.3547 8.19259L91.3387 8.22179C91.3007 8.29134 91.2959 8.34592 91.325 8.37924C91.3383 8.39447 91.35 8.43169 91.3516 8.4642C91.3543 8.51689 91.3361 8.56121 91.2896 8.61544L91.2683 8.64025L91.2961 8.62631C91.3307 8.609 91.3823 8.57824 91.4229 8.5508C91.4399 8.53931 91.4562 8.52865 91.4592 8.5271C91.4668 8.52321 91.5248 8.51256 91.5704 8.5067C91.5912 8.50402 91.6094 8.50134 91.6107 8.50075C91.6121 8.50015 91.6111 8.49807 91.6085 8.49613C91.5996 8.4893 91.5939 8.47534 91.594 8.46058C91.5941 8.44315 91.6053 8.42226 91.6258 8.40106C91.6387 8.3877 91.6394 8.38641 91.6332 8.38672C91.6295 8.38691 91.6108 8.38586 91.5917 8.38439C91.483 8.37602 91.422 8.33749 91.4279 8.28081C91.4294 8.26601 91.4401 8.24356 91.4515 8.23141C91.4714 8.21 91.4761 8.20644 91.4963 8.19747L91.5157 8.18885L91.5328 8.16848C91.572 8.12189 91.5984 8.07911 91.5994 8.06087C91.5997 8.05478 91.6015 8.04827 91.6033 8.0464C91.6054 8.04436 91.6044 8.04359 91.6009 8.04449C91.5907 8.04708 91.5904 8.03294 91.6004 8.01902C91.6109 8.00447 91.6397 7.97931 91.6732 7.9556C91.6841 7.94786 91.6949 7.9396 91.6973 7.93724C91.6997 7.93488 91.7158 7.92296 91.7332 7.91074Z" fill="#FE0000"/>
<path d="M92.3521 7.84308C92.3466 7.84044 92.3405 7.8354 92.3385 7.83187C92.3365 7.82835 92.3338 7.82553 92.3324 7.8256C92.3311 7.82567 92.3204 7.83021 92.3087 7.83568C92.2785 7.84982 92.2486 7.86906 92.2311 7.8855L92.2166 7.8991L92.2247 7.91097C92.2354 7.92678 92.2569 7.93638 92.2851 7.93794C92.3122 7.93943 92.313 7.93909 92.3453 7.91231C92.3579 7.90185 92.3794 7.88473 92.393 7.87425C92.4066 7.86378 92.4182 7.85474 92.4188 7.85417C92.4194 7.8536 92.4158 7.85334 92.4108 7.8536C92.3966 7.85435 92.3632 7.84836 92.3521 7.84308Z" fill="#FE0000"/>
<path d="M91.7927 7.93219C91.818 7.92446 91.867 7.88319 91.8675 7.86923C91.8676 7.86535 91.8661 7.86092 91.8641 7.85941C91.8606 7.85674 91.86 7.85714 91.8408 7.87289C91.8233 7.88725 91.7987 7.90336 91.7768 7.91486C91.771 7.91786 91.7696 7.9201 91.7698 7.92563C91.7702 7.93484 91.7773 7.93689 91.7927 7.93219Z" fill="#FE0000"/>
<path d="M94.6217 7.74128C94.6015 7.73289 94.5814 7.72786 94.5574 7.72518C94.5152 7.7205 94.455 7.72486 94.4023 7.73643C94.2888 7.76131 94.1894 7.8112 94.1438 7.86614C94.1172 7.89808 94.1092 7.91867 94.1176 7.93364C94.1241 7.9454 94.1334 7.95017 94.1594 7.95505C94.1867 7.96018 94.2647 7.95599 94.3283 7.946C94.3767 7.9384 94.3825 7.93633 94.4121 7.91616C94.4392 7.89767 94.4505 7.88358 94.4524 7.86576L94.4535 7.85548L94.4355 7.86374C94.3683 7.89451 94.2594 7.90304 94.253 7.87806C94.2496 7.86463 94.2662 7.85026 94.3 7.83737C94.3772 7.80801 94.4468 7.81156 94.462 7.84564C94.474 7.8723 94.4501 7.90211 94.3897 7.93604C94.3768 7.94324 94.3626 7.95195 94.3581 7.9554C94.3426 7.96719 94.3061 7.98286 94.269 7.99369C94.215 8.00942 94.1885 8.01365 94.1119 8.01869C94.0351 8.02375 93.9668 8.0222 93.9335 8.01464C93.8842 8.00343 93.796 8.00131 93.6689 8.00827L93.5997 8.01207L93.578 8.02362C93.5287 8.04997 93.5028 8.0746 93.4938 8.10375C93.4908 8.11346 93.4877 8.12172 93.4868 8.12212C93.4859 8.12251 93.4686 8.1241 93.4483 8.12565C93.4281 8.1272 93.4101 8.12909 93.4083 8.12987C93.4027 8.13238 93.3855 8.15838 93.3806 8.17194C93.3638 8.21803 93.401 8.24858 93.4834 8.25637C93.4955 8.25752 93.5195 8.26057 93.5366 8.26316C93.5537 8.26574 93.5952 8.27137 93.6288 8.27566C93.729 8.28847 93.7576 8.29775 93.7705 8.32161C93.779 8.33719 93.7762 8.35477 93.7609 8.38189C93.7373 8.42396 93.6939 8.4733 93.6389 8.52078C93.548 8.59919 93.4946 8.633 93.4546 8.63752C93.4438 8.63874 93.4351 8.63832 93.4292 8.63629L93.4203 8.63321L93.4021 8.64224C93.37 8.65828 93.3311 8.67439 93.3073 8.68148C93.2772 8.6905 93.2393 8.69425 93.2186 8.69026C93.1943 8.68556 93.1679 8.66369 93.1548 8.63743C93.1421 8.61201 93.1356 8.60841 93.1171 8.61665C93.1065 8.62134 93.1065 8.62141 93.1107 8.62463C93.1194 8.63129 93.0988 8.6488 93.0688 8.6602C93.0433 8.66993 93.0425 8.67034 93.0415 8.67452C93.0409 8.6769 93.0616 8.6861 93.0934 8.69753C93.1225 8.708 93.1467 8.71752 93.1472 8.71867C93.1477 8.71981 93.1358 8.71739 93.1208 8.71328C93.0677 8.69874 93.0574 8.69569 93.0435 8.69605C93.0392 8.69616 93.0345 8.6966 93.0282 8.69712C93.0111 8.69853 92.9989 8.70063 92.9902 8.70372L92.9773 8.70826L92.9763 8.71561C92.9748 8.7273 92.9686 8.73567 92.9543 8.74556L92.9416 8.75429L92.9709 8.75405C92.987 8.75392 93.0235 8.75324 93.0521 8.75253C93.1171 8.75091 93.1179 8.75276 93.0561 8.76174C93.0273 8.76593 93.0116 8.77012 92.9879 8.78001L92.9704 8.78731L92.9805 8.79155C92.9913 8.7961 92.9921 8.80394 92.9831 8.81608C92.9794 8.82106 92.9793 8.82352 92.9828 8.82334C92.9857 8.82318 93.0135 8.81408 93.0445 8.80311C93.1067 8.7811 93.1325 8.77479 93.1674 8.77302C93.1832 8.77222 93.1892 8.77306 93.1949 8.77685C93.2072 8.78507 93.212 8.78627 93.2325 8.78614C93.2502 8.78602 93.2567 8.78485 93.2937 8.77513C93.3878 8.7504 93.4237 8.75131 93.4644 8.77946C93.4774 8.78844 93.482 8.79003 93.4888 8.78791C93.4958 8.78572 93.4984 8.78373 93.5049 8.77563C93.5134 8.76491 93.532 8.75186 93.5514 8.74295C93.5556 8.74102 93.5586 8.73969 93.5598 8.73848C93.5626 8.73555 93.555 8.73329 93.5283 8.72494L93.4982 8.71558L93.5015 8.69959C93.5052 8.68107 93.5159 8.66827 93.5382 8.65576C93.5517 8.64819 93.6305 8.58751 93.6986 8.53215C93.7277 8.50852 93.7439 8.49379 93.7772 8.4606C93.8234 8.41448 93.839 8.39512 93.8597 8.35822C93.866 8.34685 93.8725 8.33697 93.8741 8.33627C93.8784 8.33437 93.8893 8.34255 93.9029 8.35783C93.9095 8.36532 93.9201 8.37444 93.9265 8.37809C93.9366 8.38394 93.9407 8.38459 93.961 8.38353C93.9889 8.38207 93.9955 8.37962 93.9989 8.36946C94.0055 8.34927 93.9739 8.31315 93.9239 8.28381C93.8741 8.25454 93.861 8.24702 93.8465 8.23929C93.837 8.23428 93.8175 8.22372 93.803 8.21583C93.7885 8.20793 93.7744 8.20204 93.7717 8.20274C93.763 8.20495 93.755 8.19363 93.7461 8.16663C93.7354 8.13408 93.7207 8.10101 93.7126 8.09122C93.7033 8.07993 93.6859 8.07132 93.6709 8.0705C93.6633 8.07009 93.6582 8.06842 93.6591 8.06669C93.6615 8.06236 93.694 8.06288 93.7034 8.0674C93.7181 8.07444 93.7307 8.0912 93.7416 8.11815C93.7479 8.13353 93.7581 8.15778 93.7644 8.17204L93.7757 8.19797L93.8035 8.19516C93.8188 8.19361 93.8457 8.19013 93.8632 8.18742C94.1239 8.14719 94.4069 8.04359 94.5527 7.93509C94.5838 7.91187 94.6201 7.87605 94.6365 7.85239C94.6517 7.83035 94.6658 7.79738 94.6644 7.78691C94.6631 7.77638 94.6492 7.75261 94.6428 7.75003C94.6403 7.74898 94.6307 7.74504 94.6217 7.74128Z" fill="#FE0000"/>
<path d="M92.4435 7.85394C92.4499 7.85193 92.4523 7.85034 92.4529 7.84756C92.4534 7.84552 92.4537 7.842 92.4535 7.83972C92.4534 7.838 92.4534 7.83691 92.4523 7.83705C92.4505 7.83727 92.4457 7.84094 92.4329 7.85084C92.4239 7.8578 92.4276 7.85889 92.4435 7.85394Z" fill="#FE0000"/>
<path d="M92.4634 7.8693C92.4782 7.86174 92.4859 7.85666 92.4923 7.85019C92.5066 7.83587 92.5043 7.83484 92.4813 7.8452C92.4657 7.85222 92.4591 7.85619 92.4532 7.86217C92.4442 7.87124 92.4382 7.88003 92.4412 7.87977C92.4424 7.87968 92.4523 7.87496 92.4634 7.8693Z" fill="#FE0000"/>
<path d="M92.4269 7.88221C92.4293 7.87826 92.4345 7.87173 92.4386 7.86768C92.4426 7.86363 92.4447 7.86051 92.4432 7.86073C92.4418 7.86096 92.4342 7.86249 92.4263 7.86412C92.4125 7.86702 92.4115 7.86755 92.3912 7.88336C92.3558 7.91081 92.3429 7.92159 92.3464 7.92076C92.3482 7.92031 92.3661 7.91307 92.3861 7.90467C92.4214 7.88985 92.4226 7.88916 92.4269 7.88221Z" fill="#FE0000"/>
<path d="M92.4356 7.90689C92.4567 7.89418 92.4597 7.89179 92.4669 7.88214C92.4768 7.86885 92.4765 7.86809 92.4637 7.87484C92.4581 7.87782 92.4408 7.88621 92.4253 7.89347L92.397 7.90669L92.3958 7.91536C92.3951 7.92013 92.3943 7.92548 92.394 7.92726C92.3934 7.93133 92.4019 7.92716 92.4356 7.90689Z" fill="#FE0000"/>
<path d="M91.7779 7.94181C91.7672 7.94324 91.7641 7.94251 91.7605 7.93777C91.7582 7.93458 91.7566 7.9294 91.7571 7.92625C91.7582 7.91879 91.7487 7.92106 91.7203 7.93504C91.6921 7.94894 91.6871 7.95205 91.662 7.9714C91.6216 8.00257 91.5994 8.02883 91.607 8.03625C91.609 8.03819 91.6114 8.03723 91.6212 8.03042C91.636 8.02024 91.6637 8.00755 91.6902 7.99889C91.7346 7.98433 91.7497 7.97687 91.7737 7.95769C91.7933 7.94203 91.7939 7.93965 91.7779 7.94181Z" fill="#FE0000"/>
<path d="M92.2391 7.9386C92.2285 7.93481 92.212 7.9203 92.2094 7.91256C92.2084 7.90954 92.2058 7.90716 92.2038 7.90727C92.1971 7.90762 92.1425 7.93368 92.1244 7.94514C92.1135 7.95207 92.0999 7.9628 92.088 7.97378C92.0704 7.99015 92.0691 7.99185 92.0697 7.99886C92.0712 8.01711 92.1088 8.0264 92.1844 8.02722C92.2053 8.02744 92.2061 8.02728 92.2128 8.02206C92.2203 8.01619 92.2995 7.94927 92.3023 7.94652C92.3032 7.94559 92.2971 7.94518 92.2888 7.9456C92.2725 7.94643 92.2533 7.94373 92.2391 7.9386Z" fill="#FE0000"/>
<path d="M92.408 7.95238C92.4244 7.94115 92.426 7.93958 92.4358 7.92513C92.4475 7.90787 92.4481 7.905 92.4383 7.9119C92.4346 7.91451 92.4164 7.9246 92.3978 7.93431L92.364 7.95198L92.3609 7.96573C92.3591 7.97329 92.3578 7.97977 92.3579 7.98014C92.3584 7.98187 92.3925 7.963 92.408 7.95238Z" fill="#FE0000"/>
<path d="M92.3804 7.93746L92.3821 7.92514C92.3831 7.91836 92.3829 7.91289 92.3817 7.913C92.3804 7.9131 92.3671 7.91837 92.352 7.92472C92.3175 7.9392 92.3112 7.94483 92.3153 7.95747L92.3183 7.96646L92.3323 7.96042C92.3401 7.9571 92.3541 7.95057 92.3634 7.94592L92.3804 7.93746Z" fill="#FE0000"/>
<path d="M93.9193 7.89812C93.7782 7.88391 93.5495 7.87364 93.3982 7.87471C93.3469 7.87507 93.2274 7.88115 93.2042 7.88458L93.1905 7.88659L93.2142 7.89576C93.295 7.92703 93.4362 8.02729 93.4758 8.08153C93.4803 8.08771 93.4846 8.09274 93.4855 8.0927C93.4863 8.09266 93.4889 8.08939 93.4913 8.08545C93.4975 8.07523 93.5209 8.05262 93.5356 8.04254C93.5532 8.03055 93.5909 8.01011 93.5959 8.00985C93.5981 8.00973 93.6101 8.00379 93.6224 7.99666C93.6493 7.98105 93.6901 7.96298 93.732 7.94803C93.7976 7.92468 93.8589 7.91073 93.9197 7.90537L93.9578 7.902L93.9193 7.89812Z" fill="#FE0000"/>
<path d="M92.3041 7.97312L92.3035 7.96543C92.3028 7.95694 92.299 7.95583 92.2926 7.96225C92.2903 7.96457 92.2827 7.97122 92.2758 7.97704C92.269 7.98287 92.2646 7.98754 92.2662 7.98742C92.2678 7.98731 92.277 7.98404 92.2866 7.98017L92.3041 7.97312Z" fill="#FE0000"/>
<path d="M92.336 7.99186C92.3415 7.98859 92.3442 7.9842 92.3474 7.97351C92.3496 7.96579 92.3507 7.95951 92.3497 7.95956C92.3487 7.95961 92.3363 7.96485 92.3221 7.9712L92.2964 7.98275L92.2847 8C92.2783 8.00949 92.2733 8.01779 92.2736 8.01843C92.2743 8.01986 92.3257 7.99791 92.336 7.99186Z" fill="#FE0000"/>
<path d="M92.3328 8.02327C92.335 8.02392 92.3462 8.01815 92.3673 8.00552L92.3985 7.9868L92.4156 7.95537L92.3925 7.96876C92.3798 7.97613 92.3604 7.98633 92.3495 7.99144C92.3386 7.99655 92.329 8.00145 92.3281 8.00233C92.3255 8.00497 92.3293 8.02223 92.3328 8.02327Z" fill="#FE0000"/>
<path d="M92.1764 8.03401C92.1139 8.0336 92.0788 8.02827 92.0655 8.01719C92.0612 8.01369 92.0578 8.00812 92.0578 8.00481C92.0577 7.99952 92.0566 7.99916 92.048 8.00183C92.0342 8.00617 92.0098 8.01912 91.9874 8.03409C91.9726 8.04397 91.9611 8.05362 91.9384 8.0753C91.9221 8.09087 91.9089 8.10464 91.909 8.10589C91.9093 8.11048 91.9245 8.12068 91.9381 8.12542C91.9673 8.13564 92.0134 8.13888 92.0608 8.13404L92.0902 8.13104L92.1034 8.11937C92.1107 8.11295 92.1319 8.0939 92.1506 8.07703C92.1693 8.06016 92.188 8.04361 92.1922 8.04026C92.1998 8.03417 92.1998 8.03416 92.1764 8.03401Z" fill="#FE0000"/>
<path d="M92.2657 8.01302C92.2699 8.00562 92.2753 7.99768 92.2776 7.99538C92.2839 7.98903 92.2804 7.98874 92.2642 7.99432C92.2543 7.99776 92.2467 8.00173 92.2407 8.00665C92.2206 8.0232 92.1897 8.05001 92.19 8.05065C92.1901 8.05104 92.2055 8.04575 92.2241 8.03891L92.258 8.02647L92.2657 8.01302Z" fill="#FE0000"/>
<path d="M93.9625 7.90433C93.9641 7.90486 93.967 7.90463 93.9688 7.90383C93.9706 7.90302 93.9692 7.90259 93.9658 7.90286C93.962 7.90316 93.9607 7.90374 93.9625 7.90433Z" fill="#FE0000"/>
<path d="M92.3671 8.03895C92.376 8.03304 92.3785 8.02976 92.3846 8.01663C92.3885 8.00817 92.3915 8.00061 92.3913 7.99984C92.391 7.99849 92.3317 8.03153 92.3237 8.03752C92.3192 8.04091 92.3101 8.06867 92.3136 8.06849C92.3167 8.06832 92.3541 8.04768 92.3671 8.03895Z" fill="#FE0000"/>
<path d="M93.4609 8.11051C93.4143 8.07429 93.1914 7.99307 93.0672 7.96711C93.0578 7.96514 93.0492 7.96357 93.0482 7.96362C93.0472 7.96368 93.049 7.96717 93.0521 7.97138C93.0783 8.00635 93.089 8.06071 93.0825 8.12574C93.0793 8.15724 93.0677 8.20027 93.0577 8.21803C93.054 8.22462 93.0501 8.23137 93.0492 8.23304C93.0482 8.23484 93.058 8.23038 93.0731 8.22216C93.1187 8.19733 93.1724 8.17623 93.2387 8.15712C93.301 8.13916 93.3522 8.1296 93.4426 8.11906L93.468 8.11609L93.4609 8.11051Z" fill="#FE0000"/>
<path d="M92.2452 8.06565C92.2499 8.0654 92.318 8.03435 92.3191 8.03191C92.3195 8.03099 92.3184 8.02542 92.3167 8.01954L92.3135 8.00884L92.2866 8.02C92.262 8.03017 92.2592 8.03179 92.2547 8.03812C92.2465 8.04964 92.2409 8.06588 92.2452 8.06565Z" fill="#FE0000"/>
<path d="M92.2265 8.07315L92.2344 8.0561C92.2388 8.04671 92.2423 8.03883 92.2422 8.03858C92.2422 8.03833 92.2316 8.04199 92.2188 8.04672C92.2061 8.05145 92.1925 8.05601 92.1888 8.05686C92.1762 8.05971 92.1704 8.0666 92.1694 8.08004L92.1684 8.09309L92.1821 8.08898C92.1895 8.08671 92.2026 8.08223 92.2111 8.07901L92.2265 8.07315Z" fill="#FE0000"/>
<path d="M93.0274 8.24695C93.0352 8.23927 93.0029 8.13227 92.9731 8.06705C92.9527 8.02226 92.9368 7.99916 92.932 8.00731C92.8974 8.06596 92.8705 8.1037 92.8079 8.18173C92.7681 8.23136 92.7403 8.26246 92.7081 8.29357L92.6776 8.32303L92.6905 8.31881C92.6975 8.31648 92.7212 8.3071 92.7431 8.29795C92.8216 8.26508 92.858 8.2573 92.9581 8.25202C92.9954 8.25005 93.0266 8.24777 93.0274 8.24695Z" fill="#FE0000"/>
<path d="M92.296 8.07805L92.3011 8.06257C92.3039 8.05406 92.3056 8.04697 92.3049 8.04682C92.3042 8.04666 92.2898 8.05267 92.273 8.06017L92.2425 8.0738L92.2344 8.08988C92.2299 8.09872 92.2274 8.10621 92.2287 8.10653C92.23 8.10684 92.2457 8.10056 92.2635 8.09257L92.296 8.07805Z" fill="#FE0000"/>
<path d="M92.374 8.07072L92.3729 8.06434C92.3722 8.06082 92.3724 8.05412 92.3733 8.04945L92.3749 8.04094L92.3577 8.05133C92.3483 8.05705 92.3326 8.06572 92.3228 8.0706C92.3039 8.0801 92.3009 8.08358 92.3053 8.0909C92.3075 8.09437 92.3089 8.09404 92.3408 8.08262L92.374 8.07072Z" fill="#FE0000"/>
<path d="M92.1419 8.10002C92.1476 8.09891 92.1531 8.09763 92.1541 8.09717C92.1551 8.09672 92.1561 8.09286 92.1563 8.08859L92.1566 8.08084L92.1475 8.08808C92.1312 8.10099 92.1306 8.10224 92.1419 8.10002Z" fill="#FE0000"/>
<path d="M92.2057 8.11676C92.2081 8.11577 92.2145 8.10694 92.2198 8.09714C92.2251 8.08734 92.2284 8.07946 92.2271 8.07964C92.2258 8.07982 92.2123 8.08428 92.197 8.08954C92.1745 8.09731 92.1685 8.10011 92.1648 8.1044C92.1585 8.11196 92.1523 8.1327 92.156 8.13384C92.1586 8.13462 92.1799 8.12733 92.2057 8.11676Z" fill="#FE0000"/>
<path d="M92.6623 8.32103C92.6717 8.317 92.7498 8.17987 92.794 8.08992C92.8033 8.07092 92.8113 8.0537 92.8118 8.05166C92.8124 8.04864 92.8062 8.05185 92.7781 8.06889C92.7111 8.10957 92.565 8.20753 92.4811 8.26811C92.4333 8.30258 92.3833 8.34049 92.3762 8.34756C92.3713 8.3525 92.3724 8.35215 92.3887 8.3437C92.414 8.33064 92.4281 8.3249 92.4567 8.31605C92.5337 8.29226 92.6147 8.29137 92.6489 8.31394C92.6554 8.31823 92.6614 8.32142 92.6623 8.32103Z" fill="#FE0000"/>
<path d="M92.2277 8.12496C92.2419 8.1201 92.2898 8.1012 92.291 8.09992C92.2918 8.09913 92.292 8.09585 92.2915 8.09262L92.2906 8.08674L92.2228 8.1155L92.2224 8.12121C92.2221 8.12487 92.224 8.12622 92.2277 8.12496Z" fill="#FE0000"/>
<path d="M91.9596 8.14095C91.9346 8.13672 91.9143 8.12912 91.9036 8.12008C91.8996 8.11668 91.8958 8.11393 91.8952 8.11396C91.8947 8.11399 91.8846 8.11919 91.8727 8.12552C91.8354 8.14547 91.8022 8.17164 91.7846 8.19488C91.7664 8.21896 91.7606 8.24831 91.7737 8.24972C91.7767 8.25004 91.7834 8.25145 91.7887 8.25286C91.8277 8.26332 91.897 8.25672 91.9674 8.23586C91.9919 8.22858 91.9961 8.22679 92.0003 8.22191C92.0029 8.21883 92.0221 8.19904 92.043 8.17793L92.0811 8.13954L92.0313 8.14211C91.9897 8.14427 91.978 8.14408 91.9596 8.14095Z" fill="#FE0000"/>
<path d="M92.1425 8.13558C92.1415 8.13435 92.1426 8.12863 92.1449 8.12288C92.1472 8.11713 92.15 8.11038 92.151 8.10788C92.1529 8.10359 92.1522 8.10355 92.1382 8.10715C92.1268 8.11007 92.1212 8.11262 92.1145 8.11792C92.1028 8.12719 92.0606 8.16952 92.0632 8.16938C92.0678 8.16914 92.1391 8.14274 92.1416 8.14038C92.143 8.13897 92.1434 8.13682 92.1425 8.13558Z" fill="#FE0000"/>
<path d="M92.4533 8.14064C92.5045 8.10926 92.5468 8.08321 92.5472 8.08274C92.5491 8.08085 92.5288 8.08351 92.5072 8.08798C92.408 8.10851 92.2393 8.15874 92.0857 8.21352C92.0132 8.23938 91.9414 8.26803 91.9363 8.27313C91.9332 8.27621 92.0456 8.26739 92.0887 8.26118C92.108 8.25839 92.1257 8.25601 92.128 8.25589C92.1314 8.25571 92.1234 8.2645 92.0879 8.3L92.0436 8.34432L92.0759 8.33099C92.1218 8.31199 92.1561 8.29925 92.1992 8.28516C92.233 8.2741 92.2368 8.27323 92.2369 8.27639C92.237 8.27938 92.2406 8.2774 92.2607 8.26327C92.297 8.23766 92.3514 8.20303 92.4533 8.14064Z" fill="#FE0000"/>
<path d="M92.4226 8.28771C92.5072 8.2032 92.5493 8.16514 92.6095 8.11873C92.6263 8.10582 92.6399 8.09495 92.6397 8.09457C92.6396 8.09419 92.6224 8.10093 92.6016 8.10955C92.5023 8.15065 92.3237 8.24066 92.2328 8.29535C92.2043 8.31251 92.2029 8.31362 92.1748 8.34067C92.1582 8.35672 92.1474 8.36833 92.1491 8.36824C92.1507 8.36816 92.1564 8.36604 92.1617 8.36354C92.1773 8.35627 92.2175 8.34578 92.2455 8.34169C92.2903 8.33514 92.3229 8.34081 92.3373 8.35768L92.3443 8.36583L92.4226 8.28771Z" fill="#FE0000"/>
<path d="M92.1556 8.15466C92.2008 8.13638 92.2059 8.13395 92.2083 8.12981C92.2135 8.12051 92.208 8.12136 92.1734 8.13519L92.1394 8.14872L92.1395 8.16118L92.1556 8.15466Z" fill="#FE0000"/>
<path d="M92.08 8.18651C92.0808 8.18706 92.0917 8.18287 92.1043 8.17722L92.1272 8.16693L92.1244 8.1531L92.1068 8.16024C92.0895 8.16728 92.0892 8.1675 92.0839 8.17645C92.0809 8.18144 92.0792 8.18596 92.08 8.18651Z" fill="#FE0000"/>
<path d="M91.5216 8.24178C91.53 8.23128 91.5344 8.21792 91.5321 8.21038C91.5312 8.20766 91.5263 8.20339 91.5211 8.2009C91.5117 8.19637 91.5116 8.19637 91.5004 8.20118C91.4942 8.20383 91.4857 8.20865 91.4813 8.2119C91.4686 8.22148 91.4511 8.2429 91.4466 8.25438C91.4413 8.26786 91.4382 8.28776 91.4413 8.2876C91.4453 8.28739 91.4663 8.27735 91.4909 8.2639C91.5112 8.25281 91.515 8.25005 91.5216 8.24178Z" fill="#FE0000"/>
<path d="M92.0665 8.19501L92.0698 8.18568C92.0716 8.18055 92.0737 8.17517 92.0746 8.17371C92.0757 8.17182 92.0726 8.17228 92.0636 8.17532C92.0514 8.17944 92.0504 8.18018 92.031 8.19957C92.0201 8.21056 92.0125 8.21917 92.0143 8.21868C92.0161 8.21819 92.0286 8.21267 92.042 8.2064L92.0665 8.19501Z" fill="#FE0000"/>
<path d="M93.3659 8.18294C93.3696 8.16954 93.3839 8.14466 93.3931 8.1354C93.3978 8.13073 93.3868 8.13124 93.3507 8.13734C93.2972 8.14639 93.2254 8.16495 93.1769 8.18224C93.1269 8.20005 93.0533 8.23621 93.04 8.24948C93.0351 8.25438 93.0384 8.2751 93.0452 8.28242C93.0537 8.29153 93.0639 8.29306 93.0882 8.28884C93.1226 8.28289 93.1498 8.2878 93.1488 8.29982C93.1486 8.30276 93.1505 8.30506 93.1529 8.30493C93.1554 8.3048 93.1632 8.30744 93.1702 8.31079C93.1922 8.32136 93.1984 8.32176 93.2293 8.31463C93.2618 8.30715 93.292 8.2962 93.3186 8.28226C93.3414 8.27034 93.3764 8.24883 93.382 8.24334C93.3841 8.24127 93.3823 8.23624 93.3781 8.23217C93.3668 8.22112 93.3614 8.19942 93.3659 8.18294Z" fill="#FE0000"/>
<path d="M91.5615 8.28671C91.5669 8.27846 91.5594 8.26474 91.5466 8.25944C91.5306 8.25282 91.5182 8.25397 91.5024 8.26352C91.4955 8.26771 91.4795 8.27619 91.4669 8.28236C91.4542 8.28853 91.4429 8.29452 91.4418 8.29566C91.4372 8.3003 91.4616 8.33486 91.474 8.34122C91.4777 8.34316 91.4793 8.34278 91.4856 8.33826C91.4896 8.3354 91.5074 8.32392 91.5253 8.31274C91.5487 8.29808 91.5588 8.29083 91.5615 8.28671Z" fill="#FE0000"/>
<path d="M91.9004 8.28602C91.9053 8.28223 91.923 8.27071 91.9398 8.26043C91.9566 8.25014 91.9702 8.24156 91.9701 8.24136C91.97 8.24117 91.9643 8.24274 91.9575 8.24485C91.9506 8.24697 91.9289 8.25188 91.9091 8.25576C91.8509 8.26721 91.7968 8.26793 91.7733 8.25758L91.765 8.25395L91.7444 8.26361C91.7141 8.27781 91.7001 8.28744 91.6866 8.30337C91.6717 8.32095 91.6623 8.341 91.6589 8.36257C91.6562 8.37986 91.6558 8.38053 91.6357 8.40186C91.6171 8.42156 91.6147 8.42514 91.6098 8.44068C91.6056 8.45372 91.6062 8.46183 91.612 8.47466C91.622 8.49679 91.6295 8.50037 91.6627 8.49863C91.6865 8.49738 91.6885 8.49698 91.6907 8.49309C91.7086 8.46151 91.7516 8.43024 91.8017 8.41251L91.8253 8.40414L91.8288 8.39291C91.8316 8.38383 91.8361 8.37762 91.8522 8.36067C91.8693 8.34277 91.8763 8.33672 91.9005 8.3196C91.916 8.30855 91.9352 8.2956 91.9432 8.29082C91.9511 8.28603 91.9581 8.28157 91.9588 8.2809C91.9595 8.28023 91.9504 8.28018 91.9387 8.2808C91.921 8.28173 91.9151 8.28286 91.9044 8.28741L91.8915 8.29291L91.9004 8.28602Z" fill="#FE0000"/>
<path d="M91.0812 8.33706C91.1332 8.32066 91.1565 8.30342 91.141 8.29282C91.1377 8.29054 91.1336 8.28874 91.132 8.28882C91.1304 8.28891 91.1224 8.29389 91.1143 8.29991C91.0937 8.31515 91.055 8.33195 91.0285 8.3372C91.001 8.34265 91.005 8.3458 91.0373 8.34406C91.0581 8.34294 91.0672 8.34149 91.0812 8.33706Z" fill="#FE0000"/>
<path d="M91.6172 8.32124C91.631 8.3017 91.6301 8.29704 91.6107 8.28937C91.5971 8.28396 91.5714 8.28708 91.5634 8.29512C91.5614 8.29707 91.5555 8.30104 91.5501 8.30393C91.5345 8.31244 91.4873 8.34365 91.4861 8.34631C91.4829 8.35306 91.5588 8.37599 91.5691 8.3714C91.5776 8.36765 91.6038 8.34035 91.6172 8.32124Z" fill="#FE0000"/>
<path d="M92.0162 8.36236C92.0149 8.36243 92.0323 8.34425 92.0551 8.32196C92.0778 8.29967 92.0995 8.27757 92.1032 8.27287L92.11 8.26431L92.0834 8.26826C92.0687 8.27044 92.0376 8.27391 92.0143 8.27597L91.9718 8.27973L91.9451 8.29632C91.8482 8.35638 91.8167 8.40223 91.8595 8.42091C91.8679 8.42458 91.8764 8.42749 91.8784 8.42738C91.8804 8.42728 91.8847 8.42461 91.8878 8.42144C91.8948 8.41447 91.9178 8.40391 91.9271 8.40343C91.9308 8.40323 91.9388 8.40487 91.9448 8.40706C91.9548 8.41069 91.9567 8.4107 91.9649 8.40725C91.9698 8.40516 91.9783 8.40259 91.9837 8.40154C91.9912 8.40008 91.9967 8.39734 92.0069 8.38999C92.0326 8.3714 92.0505 8.3644 92.052 8.37237C92.0523 8.37419 92.0566 8.37516 92.0614 8.37455C92.0684 8.37368 92.0724 8.37178 92.0801 8.3657C92.095 8.35388 92.1122 8.3458 92.1285 8.34289C92.1364 8.34148 92.1488 8.33872 92.156 8.33677L92.1691 8.33321L92.1936 8.30985C92.2071 8.297 92.2182 8.28617 92.2183 8.28579C92.2185 8.28451 92.1897 8.29381 92.1495 8.30806C92.1276 8.3158 92.0892 8.33116 92.0642 8.34219C92.0392 8.35321 92.0176 8.36229 92.0162 8.36236Z" fill="#FE0000"/>
<path d="M91.6454 8.36862C91.6471 8.35287 91.6562 8.33207 91.6695 8.31325C91.6828 8.29445 91.6823 8.29298 91.6631 8.29674C91.6446 8.30036 91.6406 8.30334 91.6253 8.32448C91.6094 8.34649 91.6 8.35652 91.5853 8.36718L91.5752 8.37454L91.5893 8.37606C91.6073 8.37798 91.6404 8.37962 91.6426 8.37869C91.6436 8.3783 91.6448 8.37377 91.6454 8.36862Z" fill="#FE0000"/>
<path d="M93.0256 8.25649L93.0033 8.25632C92.9783 8.25612 92.9333 8.25876 92.9001 8.26236L92.878 8.26475L92.8623 8.27842C92.8537 8.28593 92.8422 8.29503 92.8368 8.29862C92.8223 8.30831 92.8222 8.30872 92.8347 8.31186C92.8512 8.316 92.8882 8.31564 92.9153 8.31107C92.9412 8.30673 92.9836 8.29468 93.0084 8.28468L93.025 8.27797L93.0256 8.25649Z" fill="#FE0000"/>
<path d="M92.659 8.37435C92.736 8.35111 92.812 8.31365 92.8516 8.27944C92.8599 8.27222 92.8653 8.26651 92.8637 8.26663C92.8559 8.26718 92.8003 8.28138 92.7873 8.2861C92.7793 8.28906 92.7564 8.29833 92.7365 8.30672C92.7167 8.31511 92.6905 8.32472 92.6783 8.32807C92.659 8.3334 92.6542 8.33551 92.6406 8.34463C92.6321 8.35037 92.6116 8.36327 92.5951 8.37329C92.5787 8.38331 92.5647 8.39198 92.5642 8.39257C92.5593 8.39738 92.6237 8.38502 92.659 8.37435Z" fill="#FE0000"/>
<path d="M93.4553 8.26126C93.447 8.26169 93.4167 8.25381 93.4044 8.24802C93.3986 8.2453 93.3935 8.24309 93.3931 8.24311C93.3926 8.24313 93.3861 8.24757 93.3786 8.25297C93.3347 8.28449 93.2768 8.31045 93.2255 8.32158C93.2025 8.32658 93.2003 8.32892 93.2081 8.34064C93.2173 8.35437 93.2649 8.36621 93.29 8.36099C93.3072 8.35739 93.427 8.2939 93.4505 8.27591C93.4606 8.26814 93.463 8.26085 93.4553 8.26126Z" fill="#FE0000"/>
<path d="M92.6406 8.32303C92.6263 8.3132 92.6042 8.3067 92.5798 8.3052C92.5523 8.30349 92.5075 8.30701 92.5033 8.3112C92.5022 8.31232 92.4989 8.3184 92.4961 8.3247C92.4767 8.36704 92.4339 8.4103 92.3858 8.43609C92.3758 8.44147 92.3694 8.44583 92.3699 8.44697C92.3714 8.45017 92.4113 8.44938 92.4318 8.44575C92.4561 8.44145 92.4812 8.43092 92.5296 8.40475C92.5639 8.3862 92.6288 8.34693 92.6437 8.33563C92.65 8.33091 92.6496 8.32919 92.6406 8.32303Z" fill="#FE0000"/>
<path d="M93.0817 8.29631C93.0522 8.30062 93.0464 8.29994 93.0351 8.29079C93.0303 8.28691 93.0261 8.28378 93.0258 8.28382C93.0255 8.28387 93.0164 8.28732 93.0056 8.29149C92.959 8.30943 92.916 8.31949 92.8773 8.32152L92.8513 8.32288L92.8203 8.34216C92.7031 8.41526 92.6468 8.4716 92.6604 8.50236C92.6686 8.52112 92.6991 8.52878 92.765 8.52867C92.8318 8.52856 92.8499 8.53514 92.8344 8.55398C92.8158 8.57658 92.7349 8.61495 92.6292 8.65125C92.595 8.663 92.5571 8.67522 92.5451 8.6784C92.5331 8.68159 92.5185 8.68672 92.5128 8.68982C92.4772 8.70905 92.4489 8.71862 92.4238 8.71986C92.4042 8.72083 92.3912 8.71653 92.3848 8.70694L92.3803 8.70016L92.349 8.70321C92.3114 8.70686 92.2663 8.7155 92.2408 8.72393C92.2305 8.72731 92.1934 8.73908 92.1582 8.75008L92.0944 8.77007L92.0543 8.77231C92.0093 8.77483 92.0003 8.77328 91.985 8.76047C91.9774 8.75414 91.9733 8.75316 91.9553 8.75339C91.9438 8.75354 91.9279 8.75516 91.92 8.75698C91.9058 8.76028 91.9056 8.76037 91.8978 8.77018C91.8869 8.78383 91.8727 8.79269 91.8524 8.79849C91.8434 8.80106 91.835 8.80418 91.8337 8.80542C91.8312 8.80793 91.8569 8.82454 91.8628 8.82423C91.8649 8.82412 91.8775 8.82008 91.8908 8.81526C91.9197 8.80477 91.9526 8.79733 91.9632 8.79887C91.9673 8.79947 91.9722 8.80166 91.9741 8.80374C91.9808 8.8111 92.0287 8.80476 92.1043 8.7865C92.1212 8.78241 92.1353 8.77983 92.1357 8.78074C92.1383 8.78643 92.044 8.80836 92.0005 8.8122C91.972 8.81472 91.9698 8.81456 91.9616 8.80947L91.9528 8.80407L91.9325 8.80875C91.9214 8.81133 91.9027 8.8169 91.891 8.82113L91.8698 8.82883L91.8835 8.83099C91.912 8.83547 91.9109 8.84499 91.8794 8.86827C91.8704 8.87491 91.8869 8.87284 91.9059 8.86494C91.9416 8.85011 91.9921 8.83755 92.0467 8.82988C92.0602 8.82798 92.084 8.82462 92.0995 8.8224C92.1454 8.81587 92.174 8.81505 92.1872 8.8199L92.1985 8.82409L92.2175 8.8183C92.2306 8.81431 92.2445 8.81178 92.2621 8.81017C92.2868 8.80793 92.2885 8.80814 92.3061 8.81585C92.3161 8.82025 92.3289 8.82757 92.3344 8.83212C92.347 8.84253 92.3628 8.84727 92.3814 8.84629C92.3952 8.84557 92.3961 8.84525 92.3985 8.84058C92.4035 8.83061 92.425 8.81121 92.4395 8.80359L92.4532 8.79639L92.447 8.79156C92.4418 8.78751 92.4352 8.78676 92.4058 8.78686C92.37 8.787 92.3474 8.78436 92.3513 8.78052C92.3525 8.77932 92.3635 8.77622 92.3758 8.77363C92.4334 8.76144 92.5197 8.73764 92.5839 8.71625C92.689 8.68119 92.8205 8.62341 92.9292 8.56447C92.9413 8.55792 92.948 8.55419 92.9537 8.5527C92.9613 8.55071 92.9672 8.55273 92.9818 8.55734C92.9893 8.55975 93.0063 8.56391 93.0194 8.56659C93.0326 8.56927 93.0487 8.57319 93.0553 8.5753L93.0674 8.57913L93.076 8.57057C93.0882 8.55829 93.1007 8.53805 93.1017 8.52855C93.1029 8.51853 93.0965 8.50842 93.0858 8.50326C93.0768 8.49892 93.0494 8.49457 93.0349 8.49519C93.0296 8.49541 93.0004 8.48802 92.9699 8.47876L92.9144 8.46193L92.9173 8.44929C92.9228 8.42519 92.9448 8.40114 92.9834 8.37686C92.9983 8.36752 93.0125 8.36078 93.0446 8.34789C93.0823 8.33271 93.1304 8.31038 93.1348 8.30602C93.1387 8.30214 93.1311 8.29672 93.1191 8.2948C93.1093 8.29322 93.1005 8.29358 93.0817 8.29631Z" fill="#FE0000"/>
<path d="M92.4777 8.33818C92.4826 8.32909 92.4875 8.31992 92.4886 8.3178C92.4916 8.31254 92.4842 8.31346 92.4575 8.32167C92.4098 8.3364 92.377 8.35357 92.3483 8.379L92.3313 8.39402L92.3323 8.38603C92.3337 8.3749 92.3233 8.35959 92.3104 8.35374C92.3044 8.35104 92.2984 8.34931 92.2972 8.3499C92.2959 8.35049 92.2828 8.36413 92.2679 8.38021C92.2391 8.41146 92.1917 8.45592 92.1653 8.47657C92.1564 8.48351 92.1408 8.49422 92.1307 8.50036L92.1122 8.51153L92.1183 8.51332C92.1414 8.52016 92.2185 8.50068 92.3112 8.46461C92.399 8.4304 92.449 8.39251 92.4777 8.33818Z" fill="#FE0000"/>
<path d="M93.5828 8.27902L93.5318 8.27154C93.5037 8.26743 93.479 8.26419 93.4767 8.26435C93.4745 8.2645 93.4699 8.26741 93.4664 8.27084C93.4536 8.28364 93.3961 8.31671 93.3322 8.34794C93.3188 8.35451 93.3071 8.36062 93.3062 8.36151C93.3053 8.3624 93.3106 8.36565 93.3179 8.36874C93.3406 8.37835 93.3774 8.3787 93.4228 8.36973C93.4558 8.36321 93.5312 8.32209 93.571 8.28891L93.5828 8.27902Z" fill="#FE0000"/>
<path d="M92.1058 8.3894C92.1284 8.37775 92.1306 8.37624 92.1438 8.36237C92.1623 8.34308 92.1624 8.34176 92.1447 8.34614C92.1369 8.34805 92.1275 8.34986 92.1237 8.35014C92.1002 8.35194 92.0612 8.38714 92.0707 8.398C92.0727 8.40027 92.076 8.40204 92.078 8.40194C92.0801 8.40183 92.0925 8.39619 92.1058 8.3894Z" fill="#FE0000"/>
<path d="M92.8401 8.32239C92.8404 8.32207 92.8355 8.32102 92.8292 8.32005C92.8229 8.31908 92.8161 8.31782 92.8142 8.31725C92.8119 8.31654 92.803 8.32017 92.7875 8.3282C92.7165 8.36496 92.6143 8.39738 92.5606 8.4002C92.5504 8.40073 92.5458 8.40182 92.5433 8.40431C92.5406 8.40705 92.545 8.40743 92.5663 8.40632C92.6153 8.40375 92.6879 8.40812 92.6998 8.41433C92.7041 8.41661 92.706 8.41564 92.7208 8.40357C92.7373 8.39015 92.7809 8.35989 92.8121 8.34018C92.8272 8.33071 92.8398 8.3227 92.8401 8.32239Z" fill="#FE0000"/>
<path d="M92.2178 8.4203C92.2403 8.39852 92.2652 8.37313 92.2731 8.36389L92.2874 8.34708L92.2607 8.34813C92.2459 8.34871 92.2275 8.35049 92.2196 8.3521L92.2054 8.35502L92.1801 8.38021C92.1385 8.42159 92.1057 8.44622 92.0556 8.47376C92.0434 8.48045 92.0375 8.48508 92.025 8.49784C92.0098 8.51336 91.9955 8.53429 91.992 8.54617L91.9903 8.5522L92.0114 8.54533C92.1111 8.51291 92.1408 8.49491 92.2178 8.4203Z" fill="#FE0000"/>
<path d="M93.6794 8.29085L93.6412 8.28598C93.6201 8.28329 93.6005 8.28075 93.5976 8.28033C93.5929 8.27964 93.5901 8.28133 93.5728 8.29513C93.5478 8.31515 93.5071 8.34013 93.4738 8.35591L93.4475 8.36836L93.4512 8.37253C93.4559 8.37786 93.4755 8.38353 93.4928 8.38457C93.5099 8.38559 93.5493 8.37921 93.5659 8.37274C93.5926 8.36229 93.6417 8.32842 93.6678 8.30236L93.6794 8.29085Z" fill="#FE0000"/>
<path d="M92.0685 8.46033C92.0994 8.44304 92.1389 8.41236 92.1697 8.38162C92.1818 8.3695 92.1906 8.35965 92.1893 8.35972C92.1811 8.36015 92.1442 8.37587 92.1019 8.39694C92.0866 8.40457 92.0767 8.40843 92.0717 8.40869C92.064 8.4091 92.0326 8.41973 92.0203 8.42613C92.0052 8.43397 91.9995 8.43698 91.9953 8.43778C91.9926 8.4383 91.9905 8.43788 91.9868 8.43724C91.9792 8.4359 91.9743 8.43681 91.9517 8.44368C91.9255 8.45166 91.9254 8.4517 91.92 8.45946C91.9037 8.4828 91.8647 8.50275 91.8502 8.49515C91.8463 8.49307 91.849 8.47839 91.8544 8.47303C91.8561 8.47136 91.8573 8.46697 91.8571 8.46329L91.8568 8.45659L91.798 8.49326C91.7657 8.51344 91.6704 8.5716 91.5864 8.62251C91.428 8.71843 91.4061 8.73047 91.3832 8.73426C91.3686 8.73667 91.3603 8.73172 91.3637 8.7226C91.3654 8.71803 91.3668 8.71396 91.3669 8.71355C91.3669 8.71314 91.3415 8.7242 91.3104 8.73813C91.2477 8.76621 91.2026 8.78195 91.1672 8.7881C91.1561 8.79003 91.1456 8.79242 91.1437 8.79343C91.1385 8.79626 91.033 8.81825 91.0047 8.82238C90.9745 8.82679 90.9506 8.82657 90.9335 8.82173C90.9265 8.81977 90.9146 8.81799 90.9071 8.81777C90.8942 8.81739 90.8922 8.81792 90.8757 8.82574L90.8581 8.83412L90.8571 8.84111C90.8558 8.84997 90.8484 8.85736 90.831 8.86712C90.8234 8.87137 90.8167 8.87533 90.8162 8.87593C90.813 8.87906 90.8288 8.87549 90.8474 8.86886C90.8758 8.85875 90.9084 8.8507 90.9245 8.84986C90.9319 8.84947 90.9426 8.85127 90.949 8.85401C90.9553 8.85667 90.9678 8.85914 90.9769 8.85951C90.9868 8.85991 90.9926 8.86138 90.9916 8.86325C90.9886 8.86871 90.9518 8.86703 90.9388 8.86084C90.9223 8.85298 90.8969 8.85705 90.8438 8.87607C90.8261 8.88241 90.8227 8.88427 90.8174 8.89043C90.8127 8.89577 90.8128 8.89816 90.8177 8.90015C90.8288 8.90472 90.8291 8.90838 90.819 8.91844C90.8139 8.92359 90.8066 8.92919 90.8028 8.93089C90.7885 8.9373 90.8071 8.94592 90.8322 8.94456C90.8627 8.94291 90.9221 8.92771 90.9647 8.91067C91.0073 8.89359 91.0463 8.88747 91.0874 8.89139C91.1117 8.89371 91.1235 8.89177 91.1592 8.87967C91.1932 8.86816 91.2169 8.86373 91.2334 8.86582C91.2502 8.86794 91.2638 8.87492 91.2703 8.88484C91.2801 8.89968 91.3314 8.90519 91.368 8.89532C91.3802 8.89204 91.3822 8.89095 91.3852 8.88587C91.39 8.87759 91.4094 8.85981 91.4236 8.8506C91.4427 8.8382 91.4387 8.83578 91.3969 8.8345C91.3555 8.83323 91.3275 8.82955 91.3237 8.82485L91.3208 8.82139L91.3573 8.79604C91.4447 8.73517 91.4821 8.71537 91.6505 8.64056C91.7241 8.60785 91.8068 8.57004 91.8342 8.55654C91.8616 8.54303 91.8851 8.53193 91.8864 8.53186C91.8877 8.53179 91.8849 8.53651 91.8802 8.54235C91.8612 8.56584 91.8526 8.58345 91.8371 8.63063L91.8291 8.65508L91.8547 8.64019C91.8907 8.61927 91.9163 8.60263 91.9463 8.58082L91.9721 8.56199L91.9816 8.54472C92.0037 8.50418 92.0224 8.48607 92.0685 8.46033Z" fill="#FE0000"/>
<path d="M92.0511 8.38194C92.0445 8.38229 92.0391 8.38161 92.0393 8.38042C92.04 8.37497 92.0264 8.38239 92.006 8.39858C91.9807 8.41869 91.9846 8.43937 92.0109 8.42472C92.0156 8.42212 92.0281 8.41676 92.0387 8.41281C92.0548 8.40679 92.0576 8.40523 92.056 8.40317C92.055 8.40182 92.0562 8.39635 92.0587 8.39101C92.063 8.38188 92.0626 8.38134 92.0511 8.38194Z" fill="#FE0000"/>
<path d="M93.7509 8.31915C93.7542 8.31591 93.7402 8.30739 93.7209 8.30088C93.7124 8.29803 93.7019 8.29525 93.6975 8.29472L93.6896 8.29374L93.6659 8.31374C93.6376 8.33756 93.6116 8.35574 93.5898 8.36679L93.5739 8.37487L93.5799 8.37886C93.5871 8.38367 93.5996 8.38524 93.6208 8.384C93.6348 8.38319 93.6386 8.38212 93.6536 8.37486C93.6724 8.36572 93.7471 8.32301 93.7509 8.31915Z" fill="#FE0000"/>
<path d="M91.8565 8.43072C91.8483 8.42782 91.8379 8.42216 91.8336 8.41816C91.8293 8.41415 91.8246 8.41094 91.8231 8.41102C91.8193 8.41121 91.7849 8.42426 91.772 8.43037C91.7479 8.44173 91.7185 8.46619 91.7075 8.48394C91.7035 8.49031 91.7043 8.4934 91.7109 8.49746C91.7212 8.50382 91.7327 8.50691 91.7501 8.50795L91.7632 8.50872L91.7924 8.49039C91.8369 8.46238 91.8688 8.44112 91.8703 8.43843C91.871 8.4371 91.8648 8.43363 91.8565 8.43072Z" fill="#FE0000"/>
<path d="M91.925 8.42805C91.943 8.41639 91.943 8.41637 91.9325 8.41301C91.9205 8.40914 91.9192 8.40931 91.9063 8.41631C91.8898 8.42526 91.8715 8.44645 91.871 8.45703C91.8708 8.46155 91.8684 8.46846 91.8656 8.47238C91.8597 8.48056 91.8598 8.49044 91.8658 8.49013C91.8744 8.48967 91.8886 8.4812 91.9004 8.46939C91.9103 8.4595 91.9117 8.45668 91.9096 8.45117C91.9064 8.4425 91.9091 8.43831 91.925 8.42805Z" fill="#FE0000"/>
<path d="M91.9755 8.42308C91.9764 8.41966 91.9795 8.41457 91.9822 8.41177C91.9884 8.40557 91.9866 8.40558 91.9679 8.41191C91.9413 8.42087 91.9114 8.44273 91.924 8.44392C91.9296 8.44445 91.9694 8.43368 91.9722 8.43091C91.973 8.43002 91.9745 8.4265 91.9755 8.42308Z" fill="#FE0000"/>
<path d="M93.7353 8.40105C93.7461 8.39469 93.7609 8.36442 93.7621 8.34658C93.7626 8.33847 93.7618 8.32969 93.7604 8.32706L93.7577 8.3223L93.7223 8.34292C93.7028 8.35425 93.6779 8.36813 93.6668 8.37375C93.6558 8.37938 93.6454 8.38535 93.6437 8.38703C93.6392 8.39154 93.6449 8.40936 93.6519 8.41285C93.6658 8.4197 93.7158 8.41264 93.7353 8.40105Z" fill="#FE0000"/>
<path d="M92.687 8.42162C92.6769 8.41673 92.6468 8.41362 92.6042 8.41303C92.5637 8.41248 92.5211 8.41442 92.5186 8.41693C92.5176 8.4179 92.501 8.42584 92.4817 8.43455C92.4506 8.44854 92.4449 8.45174 92.4329 8.46189C92.3969 8.4924 92.397 8.52191 92.4334 8.53651C92.4481 8.54243 92.4601 8.54139 92.5269 8.52831C92.5713 8.51961 92.6068 8.50983 92.6299 8.49985C92.6439 8.49384 92.6443 8.4935 92.6462 8.48692C92.6493 8.47565 92.6613 8.45889 92.6784 8.44169L92.6947 8.42536L92.687 8.42162Z" fill="#FE0000"/>
<path d="M91.7341 8.51479C91.7154 8.51277 91.7035 8.50906 91.6972 8.5033C91.6947 8.50105 91.6921 8.49923 91.6914 8.49927C91.6907 8.4993 91.6823 8.50417 91.6726 8.51008C91.6536 8.5218 91.633 8.53849 91.6333 8.54199C91.6336 8.54501 91.6685 8.55213 91.6818 8.55187C91.6923 8.55166 91.6934 8.55117 91.7213 8.53409L91.7501 8.51653L91.7341 8.51479Z" fill="#FE0000"/>
<path d="M93.6886 8.46319C93.6945 8.45732 93.7062 8.44405 93.7147 8.43371C93.7232 8.42336 93.7303 8.41384 93.7306 8.41255C93.7308 8.41099 93.7257 8.41198 93.7151 8.4155C93.7029 8.41958 93.6938 8.42108 93.6759 8.42202C93.6543 8.42315 93.6521 8.42362 93.6456 8.42853C93.6324 8.43847 93.6024 8.47281 93.5962 8.48507C93.5902 8.49698 93.5903 8.49715 93.6027 8.49634C93.6229 8.49503 93.6349 8.49202 93.6571 8.48264C93.6758 8.47477 93.679 8.47277 93.6886 8.46319Z" fill="#FE0000"/>
<path d="M91.6746 8.56205C91.6754 8.56123 91.6709 8.5602 91.6646 8.55976C91.6582 8.55933 91.6471 8.55704 91.64 8.55468C91.6256 8.54992 91.6189 8.55084 91.5913 8.56145C91.5701 8.56962 91.5548 8.57897 91.5424 8.59139C91.5283 8.60545 91.5265 8.61081 91.5317 8.62195C91.5362 8.63152 91.5425 8.63443 91.5545 8.6324C91.5582 8.63176 91.5825 8.61818 91.6169 8.59745C91.6478 8.57881 91.6738 8.56288 91.6746 8.56205Z" fill="#FE0000"/>
<path d="M92.6623 8.52359C92.6568 8.52033 92.6503 8.51386 92.6477 8.50921C92.6441 8.50273 92.643 8.50074 92.6406 8.50132C92.6395 8.50158 92.6381 8.50236 92.6361 8.50348C92.617 8.51412 92.5443 8.53279 92.4841 8.54247C92.447 8.54844 92.4463 8.54885 92.4448 8.56518C92.4434 8.58029 92.478 8.58862 92.5308 8.58586C92.5519 8.58475 92.5579 8.58366 92.574 8.57796C92.6136 8.56391 92.6598 8.54196 92.6689 8.53286C92.6708 8.53102 92.6678 8.52685 92.6623 8.52359Z" fill="#FE0000"/>
<path d="M92.7403 8.53558C92.7253 8.53563 92.7089 8.53501 92.7039 8.5342C92.6886 8.53172 92.6836 8.5309 92.6794 8.53268C92.6773 8.53355 92.6754 8.53503 92.6726 8.53724C92.6559 8.55027 92.6219 8.56604 92.5669 8.58621C92.5581 8.58947 92.5562 8.59082 92.5552 8.59466C92.5546 8.59718 92.5569 8.60122 92.5605 8.60363C92.5661 8.60751 92.5703 8.60774 92.5956 8.60558C92.6194 8.60355 92.6292 8.6017 92.6526 8.59481C92.6681 8.59023 92.691 8.58196 92.7035 8.57644C92.7312 8.56415 92.774 8.53872 92.7702 8.53678C92.7688 8.53607 92.7554 8.53553 92.7403 8.53558Z" fill="#FE0000"/>
<path d="M93.5611 8.56513C93.5829 8.55927 93.5917 8.55341 93.6325 8.51738C93.653 8.49925 93.6697 8.48416 93.6696 8.48385C93.6695 8.48353 93.6658 8.48499 93.6615 8.4871C93.6479 8.49377 93.619 8.50161 93.5994 8.50396L93.5805 8.50623L93.565 8.51774C93.5429 8.53421 93.5227 8.55735 93.5264 8.56199C93.5312 8.56798 93.5456 8.56929 93.5611 8.56513Z" fill="#FE0000"/>
<path d="M92.823 8.5573C92.8307 8.54958 92.8246 8.54118 92.8093 8.53838C92.801 8.53688 92.7922 8.53579 92.7897 8.53596C92.7871 8.53612 92.774 8.54322 92.7605 8.55181C92.7293 8.57153 92.687 8.59079 92.6539 8.6003L92.6292 8.60738L92.6449 8.60835C92.6535 8.60888 92.6723 8.61046 92.6868 8.61185L92.713 8.61437L92.7462 8.59977C92.7779 8.58583 92.815 8.56531 92.823 8.5573Z" fill="#FE0000"/>
<path d="M91.5391 8.63997C91.5295 8.64048 91.5221 8.63585 91.5188 8.6273C91.5172 8.62317 91.515 8.61983 91.514 8.61988C91.51 8.62009 91.4551 8.64583 91.4429 8.65323C91.4358 8.65753 91.4202 8.66961 91.4083 8.68008C91.3899 8.6963 91.3859 8.70078 91.3811 8.71039C91.3741 8.72452 91.3746 8.7278 91.3841 8.7273C91.399 8.72652 91.4265 8.71285 91.4861 8.67665C91.5176 8.65756 91.5438 8.64142 91.5444 8.64079C91.5451 8.64015 91.5427 8.63978 91.5391 8.63997Z" fill="#FE0000"/>
<path d="M92.6951 8.62098C92.6948 8.62046 92.6736 8.61875 92.6478 8.61719C92.5875 8.61353 92.577 8.61408 92.5546 8.62214C92.5366 8.62865 92.51 8.64342 92.502 8.65133C92.4971 8.65624 92.5082 8.67681 92.5158 8.67679C92.5278 8.67677 92.5393 8.67437 92.5655 8.66647C92.5984 8.65654 92.6957 8.62239 92.6951 8.62098Z" fill="#FE0000"/>
<path d="M93.5576 8.57279C93.544 8.57704 93.5225 8.57598 93.5173 8.57079C93.5149 8.56843 93.5125 8.56655 93.5119 8.56661C93.5094 8.56691 93.4775 8.581 93.4679 8.58609C93.4558 8.5925 93.4414 8.606 93.434 8.61805C93.4299 8.62456 93.4307 8.6267 93.4381 8.62907C93.4625 8.63692 93.4917 8.62569 93.5459 8.58764C93.5583 8.57897 93.5682 8.57139 93.5679 8.5708C93.5677 8.5702 93.563 8.5711 93.5576 8.57279Z" fill="#FE0000"/>
<path d="M92.1372 8.68467C92.1325 8.67429 92.1241 8.66291 92.1186 8.65937C92.1072 8.65196 92.1025 8.65176 92.0868 8.65802C92.076 8.66229 92.075 8.66316 92.0684 8.67324C92.0589 8.68771 92.0459 8.69611 92.0234 8.70243L92.0066 8.70712L92.0097 8.71255C92.0127 8.71774 92.0461 8.72683 92.0598 8.72616C92.0779 8.72527 92.0974 8.74134 92.0955 8.75557C92.0949 8.7597 92.0964 8.76268 92.0988 8.7622C92.1012 8.76173 92.1272 8.75391 92.1567 8.74484C92.2064 8.72954 92.2206 8.72414 92.2097 8.72471C92.2005 8.72519 92.1741 8.71777 92.1603 8.7108C92.15 8.70567 92.1433 8.69798 92.1372 8.68467Z" fill="#FE0000"/>
<path d="M92.029 8.69492C92.0475 8.68941 92.0672 8.66835 92.0576 8.66451C92.0492 8.66116 92.018 8.66365 91.9982 8.66924C91.9802 8.67433 91.9562 8.68554 91.9397 8.69658C91.9345 8.70009 91.9307 8.70293 91.9314 8.7029C91.932 8.70287 91.9438 8.69936 91.9576 8.69511C91.9913 8.68466 92.0089 8.68369 92.0145 8.69199C92.018 8.69738 92.0197 8.69771 92.029 8.69492Z" fill="#FE0000"/>
<path d="M93.0734 8.65233C93.093 8.64378 93.1022 8.63483 93.0972 8.62912C93.091 8.62205 93.051 8.62626 93.0219 8.63705C93.0075 8.64235 92.9751 8.66032 92.976 8.66243C92.9763 8.66298 92.9825 8.6616 92.9898 8.65937C93.0068 8.65415 93.0393 8.65238 93.0501 8.65609C93.058 8.65884 93.0587 8.65874 93.0734 8.65233Z" fill="#FE0000"/>
<path d="M92.5053 8.68465C92.5024 8.684 92.4969 8.6789 92.4931 8.6733C92.4873 8.66459 92.4844 8.66323 92.4731 8.66389C92.4553 8.66494 92.437 8.67027 92.4184 8.67983C92.3934 8.69274 92.3907 8.69527 92.396 8.70088C92.4125 8.71841 92.4426 8.71669 92.4892 8.69554C92.5095 8.6863 92.5103 8.68577 92.5053 8.68465Z" fill="#FE0000"/>
<path d="M90.9668 8.76802C90.9688 8.76381 90.966 8.76127 90.9564 8.75848C90.9307 8.75108 90.8915 8.75815 90.8642 8.77506C90.8454 8.78669 90.8457 8.78774 90.8664 8.782C90.8893 8.77562 90.8985 8.77619 90.9073 8.78454C90.9142 8.79104 90.9191 8.7914 90.9381 8.78685C90.9523 8.78343 90.9627 8.77667 90.9668 8.76802Z" fill="#FE0000"/>
<path d="M91.0861 8.78898C91.0758 8.78764 91.0552 8.78127 91.0402 8.77483C91.0206 8.7664 91.0085 8.76309 90.997 8.76301L90.9811 8.76291L90.9736 8.772C90.9671 8.77999 90.9642 8.78201 90.9496 8.7885C90.9359 8.79459 90.9304 8.79603 90.9183 8.79667C90.9042 8.7974 90.9035 8.79767 90.897 8.80421C90.8932 8.80794 90.8912 8.81096 90.8925 8.81093C90.9188 8.81024 90.9336 8.8112 90.943 8.81416C90.9676 8.82196 90.9963 8.81952 91.0767 8.80277C91.1002 8.79787 91.1121 8.79564 91.1136 8.79407C91.1152 8.79243 91.1055 8.7915 91.0861 8.78898Z" fill="#FE0000"/>
<path d="M91.8693 8.78658C91.8771 8.78229 91.8819 8.7782 91.888 8.77061L91.8961 8.76041L91.8813 8.76121C91.8607 8.76231 91.8287 8.77192 91.7997 8.78567C91.7788 8.79562 91.752 8.81176 91.753 8.8139C91.7532 8.81431 91.7656 8.81046 91.7805 8.80536C91.8042 8.79728 91.8104 8.79591 91.829 8.79471C91.8493 8.79341 91.8551 8.79309 91.8607 8.79089C91.8632 8.78991 91.8656 8.78856 91.8693 8.78658Z" fill="#FE0000"/>
<path d="M92.9513 8.74005C92.9559 8.73595 92.9605 8.729 92.962 8.72397C92.9636 8.71861 92.9623 8.71528 92.9589 8.71554C92.95 8.7162 92.9036 8.73012 92.888 8.73681C92.871 8.74413 92.844 8.76014 92.8371 8.76706C92.8321 8.77208 92.8321 8.77208 92.8466 8.76584C92.8708 8.75547 92.8819 8.75284 92.9132 8.75L92.9431 8.74728L92.9513 8.74005Z" fill="#FE0000"/>
<path d="M90.8443 8.84418C90.8441 8.8408 90.8439 8.83788 90.844 8.8377C90.8441 8.83751 90.8368 8.83725 90.8277 8.83712C90.809 8.83685 90.7804 8.8406 90.7648 8.84536C90.7477 8.85059 90.7198 8.86325 90.7067 8.8717C90.6983 8.87709 90.6943 8.87967 90.6947 8.88021C90.695 8.8807 90.6991 8.87942 90.707 8.87697C90.7272 8.87071 90.7773 8.86678 90.7943 8.87012L90.8073 8.87266L90.822 8.86554C90.84 8.85679 90.8449 8.85213 90.8443 8.84418Z" fill="#FE0000"/>
<path d="M91.4836 8.86716C91.4856 8.85853 91.4784 8.85097 91.465 8.84758C91.4605 8.84645 91.4528 8.84572 91.4478 8.84598C91.4402 8.84638 91.437 8.84777 91.4268 8.85511C91.4099 8.86726 91.3948 8.88433 91.4022 8.88291C91.4328 8.87699 91.4532 8.87768 91.462 8.8849C91.4654 8.88764 91.4688 8.88983 91.4698 8.88979C91.473 8.88962 91.4818 8.87525 91.4836 8.86716Z" fill="#FE0000"/>
<path d="M92.5115 8.82984C92.515 8.82024 92.5133 8.81676 92.5024 8.8103C92.4984 8.80793 92.4872 8.80457 92.4775 8.80285C92.4612 8.79994 92.4594 8.8 92.4516 8.80372C92.4265 8.81573 92.4103 8.83044 92.4117 8.83994C92.4118 8.84026 92.4207 8.83811 92.4315 8.83516C92.4639 8.82632 92.4828 8.82761 92.4939 8.8394C92.5015 8.84742 92.506 8.84499 92.5115 8.82984Z" fill="#FE0000"/>
<path d="M93.5869 8.78872C93.5996 8.77609 93.5966 8.7508 93.5819 8.74572C93.5778 8.74428 93.5719 8.74323 93.5689 8.74338C93.5569 8.74401 93.526 8.76175 93.5171 8.77312C93.5138 8.77737 93.5159 8.77784 93.5369 8.77762C93.5602 8.77737 93.5758 8.78154 93.581 8.78935C93.5829 8.79223 93.5835 8.79217 93.5869 8.78872Z" fill="#FE0000"/>
<path d="M91.8733 8.83867C91.8698 8.83885 91.8671 8.83803 91.8673 8.83684C91.8677 8.83376 91.8653 8.83417 91.8405 8.84161C91.8099 8.85077 91.7946 8.85955 91.7748 8.87936L91.7593 8.89485L91.7771 8.88613C91.8031 8.8734 91.8275 8.86676 91.8532 8.86541C91.873 8.86437 91.875 8.86391 91.8818 8.85876C91.8859 8.85571 91.8897 8.85118 91.8904 8.8487C91.8917 8.8435 91.8826 8.83818 91.8733 8.83867Z" fill="#FE0000"/>
<path d="M90.8026 8.9241C90.8145 8.91593 90.8154 8.91141 90.806 8.90702C90.7973 8.90298 90.7933 8.90314 90.7748 8.90821C90.7458 8.91618 90.719 8.92991 90.6856 8.95396L90.6687 8.96615L90.6969 8.95521C90.735 8.94044 90.752 8.93553 90.7743 8.93286C90.791 8.93085 90.7942 8.92987 90.8026 8.9241Z" fill="#FE0000"/>
<path d="M92.9734 8.81659C92.9786 8.80786 92.9773 8.80228 92.9692 8.79839C92.9648 8.79625 92.9607 8.79461 92.9601 8.79475C92.9597 8.79483 92.9574 8.79532 92.9541 8.79602C92.9516 8.79654 92.9486 8.79717 92.9455 8.79784C92.9267 8.80179 92.9025 8.81143 92.8798 8.82399C92.8596 8.83515 92.8375 8.84977 92.8382 8.85148C92.8385 8.85202 92.8458 8.85011 92.8545 8.84722C92.8781 8.8394 92.9324 8.82639 92.9527 8.82366C92.9689 8.8215 92.9709 8.82081 92.9734 8.81659Z" fill="#FE0000"/>
<mask id="mask7_2130_2999" style="mask-type:alpha" maskUnits="userSpaceOnUse" x="3" y="94" width="188" height="47">
<path d="M13.2928 117.516C11.5943 118.196 6.24372 122.018 3.18628 125.415L29.8809 140.621C79.5762 138.822 179.265 134.963 180.456 133.921C181.945 132.618 191.049 121.678 190.03 119.64C189.011 117.601 172.534 110.722 168.628 108.599C164.721 106.476 158.521 101.465 157.077 100.106C155.634 98.7472 155.209 99.0869 153.001 98.3225C150.793 97.5582 143.234 95.6048 138.053 94.8404C132.873 94.0761 119.539 94.8404 115.887 94.8404C112.235 94.8404 101.789 95.6048 97.882 95.6048C93.9753 95.6048 79.7921 95.6897 78.5182 95.6048C77.499 95.5368 72.1485 95.0669 69.6007 94.8404C69.6007 94.8404 55.6723 96.1144 53.3792 96.3691C51.0862 96.6239 44.9713 97.813 43.9521 98.0678C42.933 98.3225 36.0538 100.701 34.4401 101.465C32.8265 102.229 29.9389 104.437 28.9197 105.287C27.9006 106.136 26.5417 107.24 24.8431 108.004C23.4843 108.616 21.7857 109.505 21.1063 109.873C19.068 112.194 14.6517 116.973 13.2928 117.516Z" fill="#94AA7F"/>
</mask>
<g mask="url(#mask7_2130_2999)">
<path d="M13.2928 117.516C11.5943 118.196 6.24372 122.018 3.18628 125.415L29.8809 140.621C79.5762 138.822 179.265 134.963 180.456 133.921C181.945 132.618 191.049 121.678 190.03 119.64C189.011 117.601 172.534 110.722 168.628 108.599C164.721 106.476 158.521 101.465 157.077 100.106C155.634 98.7472 155.209 99.0869 153.001 98.3225C150.793 97.5582 143.234 95.6048 138.053 94.8404C132.873 94.0761 119.539 94.8404 115.887 94.8404C112.235 94.8404 101.789 95.6048 97.882 95.6048C93.9753 95.6048 79.7921 95.6897 78.5182 95.6048C77.499 95.5368 72.1485 95.0669 69.6007 94.8404C69.6007 94.8404 55.6723 96.1144 53.3792 96.3691C51.0862 96.6239 44.9713 97.813 43.9521 98.0678C42.933 98.3225 36.0538 100.701 34.4401 101.465C32.8265 102.229 29.9389 104.437 28.9197 105.287C27.9006 106.136 26.5417 107.24 24.8431 108.004C23.4843 108.616 21.7857 109.505 21.1063 109.873C19.068 112.194 14.6517 116.973 13.2928 117.516Z" fill="#202A28"/>
<ellipse cx="72.4777" cy="90.8941" rx="83.1549" ry="30.5297" transform="rotate(-11.0415 72.4777 90.8941)" fill="#39443B"/>
</g>
<rect x="78.3669" y="94.5007" width="21.4991" height="38.0859" fill="#445D81"/>
<mask id="path-106-inside-1_2130_2999" fill="white">
<path d="M78.3669 94.5007H99.8661V95.7703H78.3669V94.5007Z"/>
</mask>
<path d="M99.8661 95.4703H78.3669V96.0703H99.8661V95.4703Z" fill="#1F3451" mask="url(#path-106-inside-1_2130_2999)"/>
<mask id="path-108-inside-2_2130_2999" fill="white">
<path d="M78.3669 95.7703H99.8661V97.0398H78.3669V95.7703Z"/>
</mask>
<path d="M99.8661 96.7398H78.3669V97.3398H99.8661V96.7398Z" fill="#1F3451" mask="url(#path-108-inside-2_2130_2999)"/>
<mask id="path-110-inside-3_2130_2999" fill="white">
<path d="M78.3669 97.0398H99.8661V98.3093H78.3669V97.0398Z"/>
</mask>
<path d="M99.8661 98.0093H78.3669V98.6093H99.8661V98.0093Z" fill="#1F3451" mask="url(#path-110-inside-3_2130_2999)"/>
<mask id="path-112-inside-4_2130_2999" fill="white">
<path d="M78.3669 98.3093H99.8661V99.5789H78.3669V98.3093Z"/>
</mask>
<path d="M99.8661 99.2789H78.3669V99.8789H99.8661V99.2789Z" fill="#1F3451" mask="url(#path-112-inside-4_2130_2999)"/>
<mask id="path-114-inside-5_2130_2999" fill="white">
<path d="M78.3669 99.5789H99.8661V100.848H78.3669V99.5789Z"/>
</mask>
<path d="M99.8661 100.548H78.3669V101.148H99.8661V100.548Z" fill="#1F3451" mask="url(#path-114-inside-5_2130_2999)"/>
<mask id="path-116-inside-6_2130_2999" fill="white">
<path d="M78.3669 100.848H99.8661V102.118H78.3669V100.848Z"/>
</mask>
<path d="M99.8661 101.818H78.3669V102.418H99.8661V101.818Z" fill="#1F3451" mask="url(#path-116-inside-6_2130_2999)"/>
<mask id="path-118-inside-7_2130_2999" fill="white">
<path d="M78.3669 102.118H99.8661V103.387H78.3669V102.118Z"/>
</mask>
<path d="M99.8661 103.087H78.3669V103.687H99.8661V103.087Z" fill="#1F3451" mask="url(#path-118-inside-7_2130_2999)"/>
<mask id="path-120-inside-8_2130_2999" fill="white">
<path d="M78.3669 103.387H99.8661V104.657H78.3669V103.387Z"/>
</mask>
<path d="M99.8661 104.357H78.3669V104.957H99.8661V104.357Z" fill="#1F3451" mask="url(#path-120-inside-8_2130_2999)"/>
<mask id="path-122-inside-9_2130_2999" fill="white">
<path d="M78.3669 104.657H99.8661V105.927H78.3669V104.657Z"/>
</mask>
<path d="M99.8661 105.627H78.3669V106.227H99.8661V105.627Z" fill="#1F3451" mask="url(#path-122-inside-9_2130_2999)"/>
<mask id="path-124-inside-10_2130_2999" fill="white">
<path d="M78.3669 105.927H99.8661V107.196H78.3669V105.927Z"/>
</mask>
<path d="M99.8661 106.896H78.3669V107.496H99.8661V106.896Z" fill="#1F3451" mask="url(#path-124-inside-10_2130_2999)"/>
<mask id="path-126-inside-11_2130_2999" fill="white">
<path d="M78.3669 107.196H99.8661V108.466H78.3669V107.196Z"/>
</mask>
<path d="M99.8661 108.166H78.3669V108.766H99.8661V108.166Z" fill="#1F3451" mask="url(#path-126-inside-11_2130_2999)"/>
<mask id="path-128-inside-12_2130_2999" fill="white">
<path d="M78.3669 108.466H99.8661V109.735H78.3669V108.466Z"/>
</mask>
<path d="M99.8661 109.435H78.3669V110.035H99.8661V109.435Z" fill="#1F3451" mask="url(#path-128-inside-12_2130_2999)"/>
<mask id="path-130-inside-13_2130_2999" fill="white">
<path d="M78.3669 109.735H99.8661V111.005H78.3669V109.735Z"/>
</mask>
<path d="M99.8661 110.705H78.3669V111.305H99.8661V110.705Z" fill="#1F3451" mask="url(#path-130-inside-13_2130_2999)"/>
<mask id="path-132-inside-14_2130_2999" fill="white">
<path d="M78.3669 111.005H99.8661V112.274H78.3669V111.005Z"/>
</mask>
<path d="M99.8661 111.974H78.3669V112.574H99.8661V111.974Z" fill="#1F3451" mask="url(#path-132-inside-14_2130_2999)"/>
<mask id="path-134-inside-15_2130_2999" fill="white">
<path d="M78.3669 112.274H99.8661V113.544H78.3669V112.274Z"/>
</mask>
<path d="M99.8661 113.244H78.3669V113.844H99.8661V113.244Z" fill="#1F3451" mask="url(#path-134-inside-15_2130_2999)"/>
<mask id="path-136-inside-16_2130_2999" fill="white">
<path d="M78.3669 113.544H99.8661V114.813H78.3669V113.544Z"/>
</mask>
<path d="M99.8661 114.513H78.3669V115.113H99.8661V114.513Z" fill="#1F3451" mask="url(#path-136-inside-16_2130_2999)"/>
<mask id="path-138-inside-17_2130_2999" fill="white">
<path d="M78.3669 114.813H99.8661V116.083H78.3669V114.813Z"/>
</mask>
<path d="M99.8661 115.783H78.3669V116.383H99.8661V115.783Z" fill="#1F3451" mask="url(#path-138-inside-17_2130_2999)"/>
<mask id="path-140-inside-18_2130_2999" fill="white">
<path d="M78.3669 116.083H99.8661V117.352H78.3669V116.083Z"/>
</mask>
<path d="M99.8661 117.052H78.3669V117.652H99.8661V117.052Z" fill="#1F3451" mask="url(#path-140-inside-18_2130_2999)"/>
<mask id="path-142-inside-19_2130_2999" fill="white">
<path d="M78.3669 117.352H99.8661V118.622H78.3669V117.352Z"/>
</mask>
<path d="M99.8661 118.322H78.3669V118.922H99.8661V118.322Z" fill="#1F3451" mask="url(#path-142-inside-19_2130_2999)"/>
<mask id="path-144-inside-20_2130_2999" fill="white">
<path d="M78.3669 118.622H99.8661V119.891H78.3669V118.622Z"/>
</mask>
<path d="M99.8661 119.591H78.3669V120.191H99.8661V119.591Z" fill="#1F3451" mask="url(#path-144-inside-20_2130_2999)"/>
<mask id="path-146-inside-21_2130_2999" fill="white">
<path d="M78.3669 119.891H99.8661V121.161H78.3669V119.891Z"/>
</mask>
<path d="M99.8661 120.861H78.3669V121.461H99.8661V120.861Z" fill="#1F3451" mask="url(#path-146-inside-21_2130_2999)"/>
<mask id="path-148-inside-22_2130_2999" fill="white">
<path d="M78.3669 121.161H99.8661V122.43H78.3669V121.161Z"/>
</mask>
<path d="M99.8661 122.13H78.3669V122.73H99.8661V122.13Z" fill="#1F3451" mask="url(#path-148-inside-22_2130_2999)"/>
<mask id="path-150-inside-23_2130_2999" fill="white">
<path d="M78.3669 122.43H99.8661V123.7H78.3669V122.43Z"/>
</mask>
<path d="M99.8661 123.4H78.3669V124H99.8661V123.4Z" fill="#1F3451" mask="url(#path-150-inside-23_2130_2999)"/>
<mask id="path-152-inside-24_2130_2999" fill="white">
<path d="M78.3669 123.7H99.8661V124.969H78.3669V123.7Z"/>
</mask>
<path d="M99.8661 124.669H78.3669V125.269H99.8661V124.669Z" fill="#1F3451" mask="url(#path-152-inside-24_2130_2999)"/>
<mask id="path-154-inside-25_2130_2999" fill="white">
<path d="M78.3669 124.969H99.8661V126.239H78.3669V124.969Z"/>
</mask>
<path d="M99.8661 125.939H78.3669V126.539H99.8661V125.939Z" fill="#1F3451" mask="url(#path-154-inside-25_2130_2999)"/>
<rect x="73.3687" y="90.0516" width="7.00699" height="37.5527" transform="rotate(-0.463168 73.3687 90.0516)" fill="#9ABDCF"/>
<rect x="79.3616" y="90.0032" width="1.01384" height="37.5527" transform="rotate(-0.463168 79.3616 90.0032)" fill="#5F7596"/>
<rect x="95.1669" y="91.9518" width="7.92361" height="37.5527" transform="rotate(-2.26008 95.1669 91.9518)" fill="#9ABDCF"/>
<rect x="101.357" y="91.7075" width="1.72865" height="37.5527" transform="rotate(-2.26008 101.357 91.7075)" fill="#445D81"/>
<rect x="73.3687" y="90.0516" width="7.00699" height="0.568428" transform="rotate(-0.463168 73.3687 90.0516)" fill="#C3E4F5"/>
<rect x="95.1669" y="91.9518" width="7.92361" height="0.43717" transform="rotate(-2.26008 95.1669 91.9518)" fill="#C3E4F5"/>
</g>
<defs>
<clipPath id="clip0_2130_2999">
<rect y="0.000488281" width="188" height="125" rx="8" fill="white"/>
</clipPath>
</defs>
</svg>
