<svg width="189" height="125" viewBox="0 0 189 125" fill="none" xmlns="http://www.w3.org/2000/svg">
<g clip-path="url(#clip0_1877_2851)">
<rect width="189" height="125" rx="8" fill="#6397FD"/>
<path d="M-11.0312 118.417C10.3869 120.803 125.211 98.7402 203.149 82.0444V158.964C148.613 163.536 37.8733 172.321 31.2099 170.89C22.8806 169.101 -32.4493 116.032 -11.0312 118.417Z" fill="#04156D"/>
<path d="M117.405 38.7225C133.246 30.9431 164.263 25.1112 221.183 18.3205L227.694 39.8622L6.20097 54.3226C31.9943 51.7091 104.732 44.946 117.405 38.7225Z" fill="#C3E3FA"/>
<rect x="65.5967" y="9.14792" width="0.650319" height="12.4868" fill="#061C8B"/>
<rect x="48.1385" y="9.14792" width="0.650319" height="12.4868" fill="#061C8B"/>
<rect x="51.9469" y="9.9299" width="0.650319" height="12.4868" fill="#061C8B"/>
<rect x="60.9832" y="10.3832" width="0.650319" height="12.4868" fill="#061C8B"/>
<path d="M61.4257 11.4279L66.2469 9.42351V7.22679C66.2469 6.94836 66.0333 6.66688 66.0333 6.34514L60.9657 4.44059L52.7917 4.13708L48.2467 7.3952L48.1385 7.74476V9.62361L52.1539 11.3149L61.4257 11.4279Z" fill="#061C8B"/>
<mask id="mask0_1877_2851" style="mask-type:alpha" maskUnits="userSpaceOnUse" x="48" y="19" width="19" height="13">
<path d="M48.1385 21.2096V31.981L66.2469 31.6688V21.0535L60.8612 19.4144L53.4462 19.3363L48.1385 21.2096Z" fill="#FCFCFE"/>
</mask>
<g mask="url(#mask0_1877_2851)">
<path d="M48.1385 21.2096V31.981L66.2469 31.6688V21.0535L60.8612 19.4144L53.4462 19.3363L48.1385 21.2096Z" fill="#A4C3FF"/>
<path d="M48.1387 19.3968V31.9809L59.9694 31.6162V19.2145L56.4508 17.2995L51.6063 17.2083L48.1387 19.3968Z" fill="#E5EEFF"/>
<path d="M48.1387 19.3968V31.9809L53.4049 31.6162V19.2145L51.8387 17.2995L49.6822 17.2083L48.1387 19.3968Z" fill="#FCFCFE"/>
</g>
<path d="M71.6919 27.1956C71.5337 28.3202 71.1436 31.1809 70.8484 33.6269L44.0164 33.9959L43.2257 27.4065C43.911 26.3873 47.4956 24.233 56.3518 23.7692C65.2079 23.3053 70.2685 25.8602 71.6919 27.1956Z" stroke="#061C8B" stroke-width="0.433546" stroke-linejoin="round"/>
<path d="M68.5753 32.6001C68.8316 30.3788 69.1805 27.0469 69.3229 25.6586" stroke="#061C8B" stroke-width="0.433546" stroke-linejoin="round"/>
<path d="M45.9486 32.9096C45.6923 30.6884 45.3435 27.3565 45.2011 25.9682" stroke="#061C8B" stroke-width="0.433546" stroke-linejoin="round"/>
<path d="M65.5967 32.6001C65.853 30.3788 65.9534 26.1255 66.0958 24.7372" stroke="#061C8B" stroke-width="0.433546" stroke-linejoin="round"/>
<path d="M48.9272 32.9097C48.671 30.6884 48.5706 26.4351 48.4282 25.0468" stroke="#061C8B" stroke-width="0.433546" stroke-linejoin="round"/>
<path d="M62.1472 31.9809C62.4035 29.7597 62.5039 25.5064 62.6463 24.1181" stroke="#061C8B" stroke-width="0.433546" stroke-linejoin="round"/>
<path d="M52.3767 32.2905C52.1204 30.0693 52.02 25.816 51.8776 24.4277" stroke="#061C8B" stroke-width="0.433546" stroke-linejoin="round"/>
<path d="M55.7866 31.7675C55.5303 29.5463 55.4299 25.293 55.2875 23.9047" stroke="#061C8B" stroke-width="0.433546" stroke-linejoin="round"/>
<path d="M58.953 32.1943C59.104 29.9533 58.953 25.5737 58.953 23.9047" stroke="#061C8B" stroke-width="0.433546" stroke-linejoin="round"/>
<mask id="mask1_1877_2851" style="mask-type:alpha" maskUnits="userSpaceOnUse" x="41" y="30" width="33" height="8">
<path d="M48.9412 31.3699C45.4618 31.9608 42.245 33.2738 41.5885 37.2783L69.3315 37.5643C70.585 37.7109 73.1799 37.8769 73.5315 37.369C73.9711 36.7341 72.5548 33.4375 68.7015 32.0264C62.2679 29.9257 52.4206 30.7791 48.9412 31.3699Z" fill="#FCFCFE"/>
</mask>
<g mask="url(#mask1_1877_2851)">
<path d="M48.9412 31.3699C45.4618 31.9608 42.245 33.2738 41.5885 37.2783L69.3315 37.5643C70.585 37.7109 73.1799 37.8769 73.5315 37.369C73.9711 36.7341 72.5548 33.4375 68.7015 32.0264C62.2679 29.9257 52.4206 30.7791 48.9412 31.3699Z" fill="#A4C3FF"/>
<path d="M44.9114 29.8119C41.9478 30.5337 39.208 32.1376 38.6488 37.0297L62.2787 37.3791C63.3464 37.558 65.5566 37.7609 65.8561 37.1404C66.2305 36.3648 65.0242 32.3377 61.7422 30.6139C56.2624 28.0476 47.875 29.0901 44.9114 29.8119Z" fill="#FCFCFE"/>
</g>
<path d="M73.1297 36.3852C71.7109 35.1241 65.2478 33.4689 56.4989 33.4689C55.515 33.4428 52.6018 33.5295 48.8199 34.0846C44.0924 34.7786 41.4035 36.4267 41.4902 37.4676C41.5769 38.5085 43.2684 39.6795 46.5212 40.1999C49.7741 40.7204 66.3513 40.0897 69.504 39.6168C72.6568 39.1439 74.5484 37.6463 73.1297 36.3852Z" fill="#061C8B"/>
<mask id="mask2_1877_2851" style="mask-type:alpha" maskUnits="userSpaceOnUse" x="33" y="34" width="49" height="113">
<path d="M41.7729 100.988C39.8521 124.175 36.422 129.8 33.5408 142.834C37.8877 144.849 51.8902 146.19 58.3006 146.104C64.711 146.017 72.5941 145.671 81.1702 144.285C77.3586 137.441 72.4043 100.909 71.6139 89.5273C70.8235 78.1459 70.5995 40.7312 70.6407 39.5798C70.6818 38.4285 72.7378 38.0584 71.2575 37.1949C69.7771 36.3314 63.1075 34.4526 57.8309 34.4526C52.5542 34.4526 47.9682 35.0533 45.6831 35.7638C43.3981 36.4743 42.9565 37.1079 42.8029 37.6648C42.6493 38.2216 44.051 39.1241 44.2622 40.0458C44.4734 40.9675 44.4817 43.3595 44.4252 46.9141C44.3688 50.4687 43.861 69.4263 43.6353 73.2629C43.4097 77.0996 43.6937 77.8006 41.7729 100.988Z" fill="#FCFCFE"/>
</mask>
<g mask="url(#mask2_1877_2851)">
<path d="M41.7729 100.988C39.8521 124.175 36.422 129.8 33.5408 142.834C37.8877 144.849 51.8902 146.19 58.3006 146.104C64.711 146.017 72.5941 145.671 81.1702 144.285C77.3586 137.441 72.4043 100.909 71.6139 89.5273C70.8235 78.1459 70.5995 40.7312 70.6407 39.5798C70.6818 38.4285 72.7378 38.0584 71.2575 37.1949C69.7771 36.3314 63.1075 34.4526 57.8309 34.4526C52.5542 34.4526 47.9682 35.0533 45.6831 35.7638C43.3981 36.4743 42.9565 37.1079 42.8029 37.6648C42.6493 38.2216 44.051 39.1241 44.2622 40.0458C44.4734 40.9675 44.4817 43.3595 44.4252 46.9141C44.3688 50.4687 43.861 69.4263 43.6353 73.2629C43.4097 77.0996 43.6937 77.8006 41.7729 100.988Z" fill="#D74035"/>
<path d="M63.0147 119.098C57.4902 119.098 45.198 118.684 37.7398 120.065C37.5556 113.988 37.7674 101.309 40.0877 99.2095C42.9881 96.5853 50.7225 96.4472 59.0094 96.5853C65.6389 96.6958 74.0178 98.2887 77.3786 99.0713L81.7983 120.755C77.3786 120.203 67.4344 119.098 63.0147 119.098Z" fill="white"/>
<path d="M60.18 53.1332C49.9497 52.7184 49.5349 53.9626 41.5165 56.5894L36.9543 63.64C38.0603 70.4603 40.4382 83.2437 41.1018 79.8151C41.9266 75.5534 45.6222 75.2561 57.49 74.3014L57.6916 74.2852C67.3137 73.511 75.6178 78.3865 78.5671 80.9211L80.5026 58.8013C77.1385 57.0502 68.3644 53.465 60.18 53.1332Z" fill="white"/>
<g style="mix-blend-mode:multiply">
<path d="M60.0942 109.818C61.3703 138.404 65.8983 144.907 82.2553 163.11C86.7912 165.591 97.7272 161.634 104.416 161.527C111.106 161.421 105.493 160.068 114.442 158.361C110.464 149.937 88.4099 107.469 87.5852 93.4577C86.7605 79.4468 86.5267 33.3878 86.5697 31.9705C86.6126 30.5531 88.7579 30.0976 87.2133 29.0345C85.6686 27.9715 78.7089 25.6586 73.2028 25.6586C67.6968 25.6586 62.9113 26.3982 60.5269 27.2728C58.1425 28.1474 57.6817 28.9275 57.5214 29.613C57.3611 30.2985 58.8238 31.4095 59.0442 32.5441C59.2646 33.6787 59.2732 36.6234 59.2143 40.9992C59.1554 45.375 59.2927 68.7468 59.0572 73.4698C58.8217 78.1929 58.7751 80.2699 60.0942 109.818Z" fill="#A4C3FF"/>
</g>
</g>
<mask id="mask3_1877_2851" style="mask-type:alpha" maskUnits="userSpaceOnUse" x="48" y="-2" width="19" height="10">
<path d="M53.2948 5.6632L48.1385 7.73718C48.1496 4.57987 49.984 3.06795 52.4846 2.47503C54.9853 1.88211 55.8567 -0.924368 56.0462 -1.35917C56.2356 -1.79398 58.13 -1.91257 58.2026 -1.40129C59.383 2.48742 63.421 2.22818 64.9741 3.71885C66.2166 4.91138 66.2784 6.34435 66.2474 7.22872L60.5633 5.46877L53.2948 5.6632Z" fill="#FCFCFE"/>
</mask>
<g mask="url(#mask3_1877_2851)">
<path d="M53.2948 5.6632L48.1385 7.73718C48.1496 4.57987 49.984 3.06795 52.4846 2.47503C54.9853 1.88211 55.8567 -0.924368 56.0462 -1.35917C56.2356 -1.79398 58.13 -1.91257 58.2026 -1.40129C59.383 2.48742 63.421 2.22818 64.9741 3.71885C66.2166 4.91138 66.2784 6.34435 66.2474 7.22872L60.5633 5.46877L53.2948 5.6632Z" fill="#A4C3FF"/>
<path d="M51.7983 7.25915L48.1387 7.73717C48.1463 4.57986 49.4102 3.06794 51.1332 2.47502C52.8562 1.8821 55.2187 -1.25523 55.3492 -1.69004C55.4798 -2.12484 56.7426 -2.31036 57.2844 -1.84181C57.3223 0.890128 58.1278 1.66534 59.1056 2.44581C60.253 3.36159 59.9617 6.07671 59.9404 6.96109L56.8064 7.06472L51.7983 7.25915Z" fill="#FCFCFE"/>
</g>
<rect x="59.9694" y="4.02112" width="0.650319" height="15.4643" fill="#A4C3FF"/>
<rect x="52.7544" y="4.87448" width="0.650319" height="14.8156" fill="#FCFCFE"/>
<path d="M64.9346 40.2804C66.0658 40.3076 66.6414 40.3792 67.3416 40.8234V45.6206C66.5263 45.1762 65.9854 45.082 64.9346 45.0776V40.2804Z" fill="#471315"/>
<path d="M49.5897 41.6393C48.4585 41.6664 47.9603 41.9051 47.2601 42.3493V47.1465C48.0754 46.702 48.6971 46.4948 49.7479 46.4904L49.5897 41.6393Z" fill="#471315"/>
<path d="M67.4895 54.152C67.0317 54.0376 65.879 53.7775 64.9301 53.6526C64.8573 54.2249 64.8989 55.619 64.8989 56.4929C65.0987 56.4929 66.6036 56.8616 67.4671 57.0073L67.4895 54.152Z" fill="#061C8B"/>
<path d="M47.4317 54.4936C47.8895 54.3792 49.4135 53.7617 50.3624 53.6368C50.4352 54.2091 50.3935 55.6032 50.3935 56.4771C50.1938 56.4771 48.3176 57.2032 47.4541 57.3489L47.4317 54.4936Z" fill="#061C8B"/>
<path d="M65.5851 69.3381C65.1273 69.2236 63.986 69.1457 63.0372 69.0209C62.9643 69.5931 63.006 70.9872 63.006 71.8611C63.2058 71.8611 64.6992 72.0477 65.5628 72.1933L65.5851 69.3381Z" fill="#061C8B"/>
<path d="M84.0094 38.5107C85.0315 38.3971 86.7418 39.3332 87.4692 39.8155C87.7258 39.6955 88.3066 39.4426 88.5772 39.3911C88.8477 39.3395 89.6131 39.638 89.9619 39.7936L88.9958 39.9546C89.0608 40.1358 88.9637 40.5833 88.0552 40.924C87.1467 41.2647 83.1813 41.8231 81.3121 42.0597L85.0031 40.6401L81.1702 38.9366C81.6907 38.8419 82.9872 38.6243 84.0094 38.5107Z" fill="#061C8B"/>
<path d="M96.922 29.3374C97.9248 29.1096 99.7296 29.8473 100.507 30.2447C100.748 30.0966 101.297 29.78 101.56 29.6984C101.823 29.6168 102.617 29.8272 102.981 29.9427L102.039 30.2113C102.124 30.384 102.078 30.8396 101.214 31.2803C100.349 31.721 96.4717 32.7219 94.641 33.1672L98.1489 31.3415L94.1487 30.0799C94.6553 29.9273 95.9191 29.5652 96.922 29.3374Z" fill="#061C8B"/>
<path d="M133.442 41.8316C134.43 41.6072 136.208 42.334 136.974 42.7255C137.212 42.5796 137.753 42.2677 138.012 42.1873C138.271 42.1069 139.053 42.3142 139.412 42.428L138.484 42.6926C138.568 42.8628 138.522 43.3116 137.671 43.7459C136.819 44.1801 132.999 45.1661 131.195 45.6049L134.651 43.8061L130.71 42.5631C131.209 42.4128 132.454 42.056 133.442 41.8316Z" fill="#061C8B"/>
</g>
<defs>
<clipPath id="clip0_1877_2851">
<rect width="189" height="125" rx="8" fill="white"/>
</clipPath>
</defs>
</svg>
