<svg width="188" height="125" viewBox="0 0 188 125" fill="none" xmlns="http://www.w3.org/2000/svg">
<g clip-path="url(#clip0_1877_2721)">
<rect width="188" height="125" rx="8" fill="white"/>
<g clip-path="url(#clip1_1877_2721)">
<rect width="225.626" height="126.915" transform="translate(-18.813 -0.957336)" fill="url(#paint0_linear_1877_2721)"/>
<mask id="mask0_1877_2721" style="mask-type:alpha" maskUnits="userSpaceOnUse" x="44" y="86" width="89" height="70">
<path d="M132.233 117.575C132.233 134.705 118.346 148.592 101.215 148.592C96.2984 148.592 91.6488 147.448 87.518 145.412C83.2625 151.732 76.0409 155.89 67.8483 155.89C54.7617 155.89 44.153 145.281 44.153 132.195C44.153 121.421 51.3431 112.327 61.1866 109.449C61.1722 109.24 61.1648 109.029 61.1648 108.817C61.1648 103.828 65.2092 99.7836 70.1981 99.7836C71.9293 99.7836 73.5467 100.271 74.9209 101.115C80.406 92.371 90.1318 86.5576 101.215 86.5576C118.346 86.5576 132.233 100.445 132.233 117.575Z" fill="#037207"/>
</mask>
<g mask="url(#mask0_1877_2721)">
<path d="M132.233 117.575C132.233 134.705 118.346 148.592 101.215 148.592C96.2984 148.592 91.6488 147.448 87.518 145.412C83.2625 151.732 76.0409 155.89 67.8483 155.89C54.7617 155.89 44.153 145.281 44.153 132.195C44.153 121.421 51.3431 112.327 61.1866 109.449C61.1722 109.24 61.1648 109.029 61.1648 108.817C61.1648 103.828 65.2092 99.7836 70.1981 99.7836C71.9293 99.7836 73.5467 100.271 74.9209 101.115C80.406 92.371 90.1318 86.5576 101.215 86.5576C118.346 86.5576 132.233 100.445 132.233 117.575Z" fill="#118316"/>
<path d="M132.233 117.575C132.233 134.705 118.979 148.592 102.629 148.592C97.9365 148.592 93.4988 147.448 89.5563 145.412C85.4947 151.732 78.6024 155.89 70.7831 155.89C58.2931 155.89 48.1678 145.281 48.1678 132.195C48.1678 121.421 55.0303 112.327 64.4251 109.449C64.4113 109.24 64.4043 109.029 64.4043 108.817C64.4043 103.828 68.2643 99.7836 73.0258 99.7836C74.6781 99.7836 76.2218 100.271 77.5334 101.115C82.7685 92.371 92.0509 86.5576 102.629 86.5576C118.979 86.5576 132.233 100.445 132.233 117.575Z" fill="#11040C"/>
</g>
<rect x="171.335" y="97.7732" width="1.89702" height="40.1538" fill="#171518"/>
<path d="M172.284 93.0661L172.659 96.5964H171.908L172.284 93.0661Z" fill="#171518"/>
<rect x="172.16" y="96.4243" width="0.246544" height="1.80084" fill="#171518"/>
<rect x="176.867" y="99.8452" width="1.67524" height="35.4595" fill="#171518"/>
<path d="M177.705 95.6884L178.036 98.8059H177.373L177.705 95.6884Z" fill="#171518"/>
<rect x="177.596" y="98.6541" width="0.217721" height="1.5903" fill="#171518"/>
<rect x="182.177" y="99.8452" width="1.67524" height="35.4595" fill="#171518"/>
<path d="M183.015 95.6884L183.347 98.8059H182.683L183.015 95.6884Z" fill="#171518"/>
<rect x="182.906" y="98.6541" width="0.217721" height="1.5903" fill="#171518"/>
<rect x="187.488" y="99.8452" width="1.67524" height="35.4595" fill="#171518"/>
<path d="M188.325 95.6884L188.657 98.8059H187.994L188.325 95.6884Z" fill="#171518"/>
<rect x="172.16" y="100.959" width="38.0449" height="0.903529" fill="#171518"/>
<rect x="172.16" y="119.719" width="38.0449" height="0.903529" fill="#171518"/>
<rect x="175.501" y="118.578" width="16.7265" height="0.903529" transform="rotate(90 175.501 118.578)" fill="#171518"/>
<rect x="180.812" y="118.578" width="16.7265" height="0.903529" transform="rotate(90 180.812 118.578)" fill="#171518"/>
<rect x="186.122" y="118.578" width="16.7265" height="0.903529" transform="rotate(90 186.122 118.578)" fill="#171518"/>
<rect x="15.4242" y="97.7732" width="1.89702" height="40.1538" fill="#171518"/>
<path d="M16.3727 93.0661L16.7484 96.5964H15.9971L16.3727 93.0661Z" fill="#171518"/>
<rect x="16.2495" y="96.4243" width="0.246544" height="1.80084" fill="#171518"/>
<rect x="-0.911011" y="99.8452" width="1.67524" height="35.4595" fill="#171518"/>
<path d="M-0.0734816 95.6884L0.258259 98.8059H-0.405222L-0.0734816 95.6884Z" fill="#171518"/>
<rect x="-0.182373" y="98.6541" width="0.217721" height="1.5903" fill="#171518"/>
<rect x="4.39917" y="99.8452" width="1.67524" height="35.4595" fill="#171518"/>
<path d="M5.2367 95.6884L5.56844 98.8059H4.90496L5.2367 95.6884Z" fill="#171518"/>
<rect x="5.12793" y="98.6541" width="0.217721" height="1.5903" fill="#171518"/>
<rect x="9.70947" y="99.8452" width="1.67524" height="35.4595" fill="#171518"/>
<path d="M10.547 95.6884L10.8787 98.8059H10.2153L10.547 95.6884Z" fill="#171518"/>
<rect x="10.4381" y="98.6541" width="0.217721" height="1.5903" fill="#171518"/>
<rect x="-21.5488" y="100.959" width="38.0449" height="0.903529" fill="#171518"/>
<rect x="-21.5488" y="119.719" width="38.0449" height="0.903529" fill="#171518"/>
<rect x="3.03357" y="118.578" width="16.7265" height="0.903529" transform="rotate(90 3.03357 118.578)" fill="#171518"/>
<rect x="8.34387" y="118.578" width="16.7265" height="0.903529" transform="rotate(90 8.34387 118.578)" fill="#171518"/>
<rect x="13.6543" y="118.578" width="16.7265" height="0.903529" transform="rotate(90 13.6543 118.578)" fill="#171518"/>
<g filter="url(#filter0_i_1877_2721)">
<path d="M-22.4357 84.15C20.5426 77.4642 144.036 49.1174 217.288 12.806L261.023 48.3598L165.768 60.6863C88.7074 70.7362 -56.8184 89.4987 -22.4357 84.15Z" fill="#C4EFFF"/>
</g>
<mask id="mask1_1877_2721" style="mask-type:alpha" maskUnits="userSpaceOnUse" x="101" y="27" width="69" height="31">
<rect x="101.215" y="27.9548" width="68.3197" height="29.5747" fill="#D82427"/>
</mask>
<g mask="url(#mask1_1877_2721)">
<rect x="101.215" y="27.9548" width="68.3197" height="29.5747" fill="#DC1A1A"/>
<rect x="105.431" y="27.9548" width="59.8891" height="29.5747" stroke="#C71012" stroke-width="1.24655"/>
<rect x="111.126" y="35.1992" width="48.4974" height="13.0795" fill="#131641"/>
<rect x="113.252" y="37.2552" width="44.2463" height="8.96747" fill="#F7F8FA"/>
<path d="M120.69 40.2893V39.6571H123.668V40.2893H122.558V43.2835H121.8V40.2893H120.69Z" fill="black"/>
<path d="M124.159 43.2835V39.6571H126.602V40.2893H124.926V41.1533H126.477V41.7855H124.926V42.6513H126.61V43.2835H124.159Z" fill="black"/>
<path d="M127.212 43.2835V39.6571H127.979V42.6513H129.533V43.2835H127.212Z" fill="black"/>
<path d="M130.041 43.2835V39.6571H132.485V40.2893H130.808V41.1533H132.359V41.7855H130.808V42.6513H132.492V43.2835H130.041Z" fill="black"/>
<path d="M133.094 43.2835V39.6571H134.525C134.8 39.6571 135.034 39.7097 135.228 39.8147C135.421 39.9186 135.569 40.0632 135.671 40.2485C135.773 40.4327 135.825 40.6452 135.825 40.886C135.825 41.1268 135.773 41.3393 135.669 41.5234C135.565 41.7076 135.414 41.851 135.217 41.9537C135.021 42.0564 134.784 42.1077 134.505 42.1077H133.594V41.4933H134.381C134.529 41.4933 134.651 41.4679 134.746 41.4172C134.843 41.3652 134.915 41.2938 134.962 41.2029C135.011 41.1108 135.035 41.0052 135.035 40.886C135.035 40.7656 135.011 40.6605 134.962 40.5708C134.915 40.4799 134.843 40.4097 134.746 40.3601C134.649 40.3093 134.527 40.2839 134.378 40.2839H133.861V43.2835H133.094Z" fill="black"/>
<path d="M136.323 43.2835V39.6571H137.089V41.1533H138.646V39.6571H139.411V43.2835H138.646V41.7855H137.089V43.2835H136.323Z" fill="black"/>
<path d="M143.375 41.4703C143.375 41.8657 143.3 42.2022 143.15 42.4796C143.002 42.757 142.799 42.9689 142.541 43.1152C142.285 43.2604 141.997 43.333 141.677 43.333C141.355 43.333 141.066 43.2599 140.809 43.1135C140.553 42.9671 140.351 42.7552 140.202 42.4778C140.053 42.2004 139.979 41.8646 139.979 41.4703C139.979 41.0748 140.053 40.7384 140.202 40.461C140.351 40.1836 140.553 39.9723 140.809 39.8271C141.066 39.6807 141.355 39.6075 141.677 39.6075C141.997 39.6075 142.285 39.6807 142.541 39.8271C142.799 39.9723 143.002 40.1836 143.15 40.461C143.3 40.7384 143.375 41.0748 143.375 41.4703ZM142.598 41.4703C142.598 41.2141 142.559 40.9981 142.483 40.8222C142.407 40.6463 142.3 40.5129 142.162 40.4221C142.024 40.3312 141.862 40.2857 141.677 40.2857C141.492 40.2857 141.33 40.3312 141.192 40.4221C141.054 40.5129 140.946 40.6463 140.87 40.8222C140.794 40.9981 140.756 41.2141 140.756 41.4703C140.756 41.7264 140.794 41.9425 140.87 42.1184C140.946 42.2942 141.054 42.4276 141.192 42.5185C141.33 42.6094 141.492 42.6549 141.677 42.6549C141.862 42.6549 142.024 42.6094 142.162 42.5185C142.3 42.4276 142.407 42.2942 142.483 42.1184C142.559 41.9425 142.598 41.7264 142.598 41.4703Z" fill="black"/>
<path d="M146.976 39.6571V43.2835H146.314L144.736 41.0011H144.71V43.2835H143.943V39.6571H144.616L146.181 41.9377H146.213V39.6571H146.976Z" fill="black"/>
<path d="M147.61 43.2835V39.6571H150.053V40.2893H148.376V41.1533H149.928V41.7855H148.376V42.6513H150.06V43.2835H147.61Z" fill="black"/>
<path d="M178.535 44.2912C158.528 41.6559 113.255 35.7076 92.2152 32.997V28.1566C100.229 27.7802 116.611 26.7691 118.031 25.7365C119.45 24.7038 154.764 22.7247 172.243 21.8642L178.535 44.2912Z" fill="#131641"/>
</g>
<mask id="mask2_1877_2721" style="mask-type:alpha" maskUnits="userSpaceOnUse" x="96" y="50" width="78" height="140">
<rect x="96.5002" y="50.7057" width="76.7896" height="139.181" fill="#F45C5E"/>
</mask>
<g mask="url(#mask2_1877_2721)">
<rect x="96.5002" y="50.7057" width="76.7896" height="139.181" fill="#F45C5E"/>
<rect x="97.7612" y="50.7057" width="75.5286" height="139.181" fill="#FC3E41"/>
<rect x="101.63" y="55.7105" width="66.529" height="134.176" stroke="#D61F21" stroke-width="0.415518"/>
<rect x="105.791" y="61.3662" width="58.2079" height="128.521" stroke="#D61F21" stroke-width="0.831035"/>
<rect x="115.311" y="68.3588" width="39.1685" height="84.3901" fill="#D61F21"/>
<rect x="157.089" y="105.247" width="3.86506" height="9.83832" fill="#10030A"/>
<mask id="mask3_1877_2721" style="mask-type:alpha" maskUnits="userSpaceOnUse" x="116" y="69" width="38" height="83">
<path d="M116.361 69.1862H127.799V84.6319H116.361V69.1862Z" fill="#F7F8FA"/>
<path d="M116.361 86.0086H127.799V101.454H116.361V86.0086Z" fill="#F7F8FA"/>
<path d="M127.799 102.831H116.361V118.277H127.799V102.831Z" fill="#F7F8FA"/>
<path d="M116.361 119.653H127.799V135.099H116.361V119.653Z" fill="#F7F8FA"/>
<path d="M127.799 136.476H116.361V151.922H127.799V136.476Z" fill="#F7F8FA"/>
<path d="M129.176 69.1862H140.614V84.6319H129.176V69.1862Z" fill="#F7F8FA"/>
<path d="M140.614 86.0086H129.176V101.454H140.614V86.0086Z" fill="#F7F8FA"/>
<path d="M129.176 102.831H140.614V118.277H129.176V102.831Z" fill="#F7F8FA"/>
<path d="M140.614 119.653H129.176V135.099H140.614V119.653Z" fill="#F7F8FA"/>
<path d="M129.176 136.476H140.614V151.922H129.176V136.476Z" fill="#F7F8FA"/>
<path d="M153.43 69.1862H141.991V84.6319H153.43V69.1862Z" fill="#F7F8FA"/>
<path d="M141.991 86.0086H153.43V101.454H141.991V86.0086Z" fill="#F7F8FA"/>
<path d="M153.43 102.831H141.991V118.277H153.43V102.831Z" fill="#F7F8FA"/>
<path d="M141.991 119.653H153.43V135.099H141.991V119.653Z" fill="#F7F8FA"/>
<path d="M153.43 136.476H141.991V151.922H153.43V136.476Z" fill="#F7F8FA"/>
</mask>
<g mask="url(#mask3_1877_2721)">
<path d="M116.361 69.1862H127.799V84.6319H116.361V69.1862Z" fill="#C9EEFB"/>
<path d="M116.361 86.0086H127.799V101.454H116.361V86.0086Z" fill="#C9EEFB"/>
<path d="M127.799 102.831H116.361V118.277H127.799V102.831Z" fill="#C9EEFB"/>
<path d="M116.361 119.653H127.799V135.099H116.361V119.653Z" fill="#C9EEFB"/>
<path d="M127.799 136.476H116.361V151.922H127.799V136.476Z" fill="#C9EEFB"/>
<path d="M129.176 69.1862H140.614V84.6319H129.176V69.1862Z" fill="#C9EEFB"/>
<path d="M140.614 86.0086H129.176V101.454H140.614V86.0086Z" fill="#C9EEFB"/>
<path d="M129.176 102.831H140.614V118.277H129.176V102.831Z" fill="#C9EEFB"/>
<path d="M140.614 119.653H129.176V135.099H140.614V119.653Z" fill="#C9EEFB"/>
<path d="M129.176 136.476H140.614V151.922H129.176V136.476Z" fill="#C9EEFB"/>
<path d="M153.43 69.1862H141.991V84.6319H153.43V69.1862Z" fill="#C9EEFB"/>
<path d="M141.991 86.0086H153.43V101.454H141.991V86.0086Z" fill="#C9EEFB"/>
<path d="M153.43 102.831H141.991V118.277H153.43V102.831Z" fill="#C9EEFB"/>
<path d="M141.991 119.653H153.43V135.099H141.991V119.653Z" fill="#C9EEFB"/>
<path d="M153.43 136.476H141.991V151.922H153.43V136.476Z" fill="#C9EEFB"/>
<rect x="70.7386" y="56.8342" width="102.156" height="35.999" transform="rotate(-13.1704 70.7386 56.8342)" fill="#F7F8FA"/>
</g>
<g style="mix-blend-mode:multiply">
<rect x="81.6254" y="132.111" width="163.655" height="44.2133" transform="rotate(-7.65638 81.6254 132.111)" fill="#131641"/>
</g>
</g>
<mask id="mask4_1877_2721" style="mask-type:alpha" maskUnits="userSpaceOnUse" x="96" y="9" width="78" height="25">
<path d="M96.5004 23.6972C122.506 4.80588 149.983 5.54195 173.29 23.6972V33.0199H96.5004V23.6972Z" fill="#DC1A1A"/>
</mask>
<g mask="url(#mask4_1877_2721)">
<path d="M96.5004 23.6972C122.506 4.80588 149.983 5.54195 173.29 23.6972V33.0199H96.5004V23.6972Z" fill="#131641"/>
<path d="M99.678 25.1678C124.607 9.25625 150.948 9.87621 173.29 25.1678V33.0199H99.678V25.1678Z" fill="#DC1A1A"/>
<path fill-rule="evenodd" clip-rule="evenodd" d="M135.08 16.4332C135.08 16.4394 135.098 16.5083 135.119 16.5862C135.168 16.7623 135.233 17.0726 135.223 17.082C135.212 17.0927 135.061 17.0562 134.877 16.9984C134.786 16.9698 134.7 16.9428 134.685 16.9383C134.661 16.9307 134.659 16.9545 134.659 17.2948C134.659 17.6208 134.661 17.6584 134.683 17.6503C134.78 17.6128 135.238 17.5174 135.252 17.5316C135.256 17.5354 135.256 17.5599 135.253 17.586C135.249 17.6122 135.239 17.6946 135.23 17.7691C135.221 17.8436 135.183 18.0551 135.147 18.2392C135.11 18.4232 135.08 18.5807 135.08 18.5892C135.08 18.5976 135.108 18.6045 135.143 18.6045H135.205L135.144 18.6707C135.08 18.7402 135.037 18.8146 135.006 18.9096C134.993 18.9504 134.974 18.972 134.94 18.9866C134.792 19.049 134.621 19.2383 134.573 19.3904C134.558 19.4381 134.542 19.4773 134.536 19.4773C134.531 19.4774 134.47 19.4456 134.401 19.4066C134.332 19.3676 134.194 19.3002 134.095 19.2568C133.941 19.1897 133.912 19.1716 133.901 19.1358C133.848 18.9699 133.665 18.8922 133.501 18.9663C133.465 18.9828 133.434 18.9945 133.433 18.9923C133.394 18.9189 133.337 18.8546 133.29 18.8305C133.181 18.7752 133.036 18.7972 132.959 18.8808L132.923 18.9202L132.87 18.8582C132.754 18.7231 132.57 18.718 132.45 18.8466C132.405 18.8938 132.401 18.8952 132.375 18.8715C132.334 18.8344 132.243 18.8001 132.187 18.8005C132.109 18.801 132.016 18.8516 131.967 18.9204C131.942 18.9547 131.919 18.9904 131.916 18.9997C131.912 19.0095 131.883 18.9948 131.845 18.9649C131.786 18.9173 131.773 18.913 131.68 18.913C131.595 18.913 131.569 18.9197 131.518 18.9534C131.43 19.0112 131.386 19.1081 131.397 19.2171L131.406 19.3004L131.373 19.2703C131.261 19.1677 131.094 19.1654 130.981 19.2648C130.938 19.3022 130.906 19.3724 130.897 19.4474C130.889 19.5141 130.888 19.5152 130.828 19.5191C130.731 19.5256 130.704 19.5355 130.647 19.5853C130.574 19.6497 130.55 19.7023 130.55 19.7985V19.8802L130.483 19.8727C130.446 19.8685 130.392 19.8697 130.362 19.8752C130.301 19.8868 130.213 19.9576 130.179 20.0229C130.153 20.074 130.149 20.2139 130.172 20.2582C130.195 20.2999 130.194 20.3004 130.141 20.3111C130.072 20.3249 129.994 20.3904 129.961 20.4616C129.923 20.5469 129.925 20.633 129.969 20.7146L130.004 20.7822L129.954 20.8228C129.83 20.9217 129.811 21.1032 129.913 21.2239L129.952 21.2707L129.897 21.3163C129.74 21.4456 129.747 21.6728 129.911 21.7762C129.971 21.8139 129.976 21.8225 129.968 21.8625C129.953 21.9358 129.96 22.033 129.984 22.0789C130.018 22.1453 130.106 22.2144 130.169 22.2249C130.266 22.241 130.265 22.2402 130.241 22.2986C130.196 22.4068 130.22 22.5316 130.303 22.6139C130.351 22.6619 130.393 22.6811 130.482 22.6965C130.538 22.7063 130.542 22.7104 130.553 22.7722C130.567 22.8541 130.624 22.9307 130.701 22.97C130.75 22.9951 130.76 23.008 130.76 23.0456C130.76 23.1029 130.797 23.1917 130.84 23.2386C130.858 23.2584 130.908 23.2901 130.95 23.3089L131.026 23.3431L131.177 23.6418C131.346 23.9736 131.508 24.3455 131.574 24.5537C131.599 24.629 131.618 24.6928 131.618 24.6955C131.618 24.6983 131.561 24.7006 131.491 24.7006H131.363V25.551V26.4015L135.389 26.4012L139.415 26.401V25.5508V24.7006H139.272C139.194 24.7006 139.129 24.6989 139.13 24.6968C139.13 24.6947 139.153 24.6219 139.183 24.535C139.259 24.3061 139.401 23.9817 139.566 23.6544C139.734 23.3241 139.784 23.2405 139.814 23.2405C139.848 23.2405 139.945 23.1485 139.967 23.0945C139.978 23.0677 139.987 23.022 139.987 22.9929C139.987 22.9467 139.995 22.9363 140.046 22.9103C140.122 22.8714 140.178 22.8028 140.198 22.7243C140.207 22.6895 140.218 22.6525 140.221 22.6422C140.224 22.6318 140.251 22.6234 140.281 22.6234C140.368 22.6234 140.464 22.556 140.512 22.4626C140.537 22.4156 140.533 22.2773 140.507 22.2265C140.477 22.1704 140.477 22.1718 140.53 22.1718C140.679 22.1718 140.818 22.005 140.794 21.8555C140.789 21.8239 140.781 21.7882 140.777 21.7762C140.771 21.7616 140.79 21.7414 140.833 21.7161C140.958 21.6433 141.004 21.4771 140.936 21.3448C140.908 21.2903 140.852 21.2338 140.811 21.2191C140.799 21.2148 140.804 21.2005 140.826 21.1765C140.938 21.0538 140.926 20.8519 140.799 20.7528L140.749 20.7134L140.782 20.6541C140.821 20.5853 140.826 20.4803 140.794 20.4051C140.767 20.3398 140.684 20.2635 140.627 20.2513C140.561 20.2371 140.559 20.2343 140.583 20.1776C140.622 20.0841 140.601 19.9749 140.527 19.891C140.468 19.8243 140.339 19.7822 140.264 19.8052C140.205 19.8234 140.197 19.8176 140.208 19.7645C140.238 19.6154 140.086 19.4488 139.92 19.4476C139.86 19.4472 139.859 19.4469 139.856 19.385C139.852 19.3128 139.794 19.2066 139.741 19.1714C139.641 19.1062 139.495 19.1137 139.402 19.1888L139.344 19.2349L139.351 19.169C139.363 19.0712 139.344 19.0015 139.292 18.942C139.229 18.8698 139.167 18.841 139.076 18.841C138.993 18.841 138.948 18.859 138.885 18.9175C138.862 18.9387 138.842 18.9531 138.84 18.9496C138.838 18.946 138.823 18.9168 138.806 18.8846C138.733 18.7418 138.513 18.6927 138.395 18.7926L138.351 18.8291L138.309 18.7852C138.25 18.7232 138.181 18.6948 138.092 18.6948C137.999 18.6948 137.946 18.7195 137.882 18.793L137.834 18.8475L137.784 18.8036C137.648 18.6844 137.422 18.7251 137.347 18.8821C137.333 18.9115 137.319 18.9356 137.316 18.9356C137.313 18.9356 137.286 18.9216 137.257 18.9044C137.197 18.8689 137.061 18.8618 137.004 18.8913C136.916 18.9367 136.857 19.0214 136.842 19.1222C136.834 19.179 136.83 19.1824 136.72 19.2287C136.591 19.2832 136.299 19.428 136.278 19.4487C136.248 19.4771 136.23 19.4597 136.188 19.3635C136.135 19.2427 136.028 19.1223 135.899 19.0389C135.846 19.0046 135.803 18.9703 135.803 18.9626C135.803 18.9245 135.695 18.7219 135.645 18.667C135.614 18.6326 135.595 18.6039 135.602 18.6032C135.609 18.6025 135.653 18.603 135.7 18.6042C135.747 18.6055 135.788 18.6009 135.792 18.5942C135.796 18.5874 135.78 18.4683 135.756 18.3294C135.708 18.0427 135.668 17.7135 135.667 17.6066L135.667 17.5344L135.716 17.5425C135.847 17.5643 136.266 17.6423 136.296 17.6505L136.33 17.6597V17.2967C136.33 17.097 136.325 16.9338 136.318 16.9338C136.312 16.9339 136.273 16.9445 136.232 16.9572C136.121 16.9917 135.748 17.0842 135.721 17.0842C135.707 17.0842 135.698 17.0709 135.698 17.05C135.698 17.0129 135.782 16.5109 135.797 16.4558L135.806 16.4219H135.443C135.244 16.4219 135.08 16.427 135.08 16.4332ZM133.025 19.5863C132.842 19.7352 132.647 19.9544 132.494 20.1816C132.238 20.562 132.137 20.9248 132.176 21.3186C132.207 21.6221 132.278 21.8536 132.554 22.5463C132.893 23.3971 132.973 23.6293 133.092 24.106C133.129 24.2541 133.214 24.6645 133.214 24.6933C133.214 24.6976 133.01 24.6992 132.761 24.697L132.309 24.693L132.257 24.4898C132.112 23.9245 131.899 23.4386 131.461 22.6761C130.991 21.8589 130.891 21.6118 130.892 21.2687C130.892 20.9173 131.033 20.6358 131.385 20.2815C131.755 19.9098 132.148 19.6748 132.553 19.5848C132.731 19.5451 132.752 19.5427 132.935 19.5399L133.085 19.5377L133.025 19.5863ZM138.092 19.5619C138.459 19.6247 138.812 19.798 139.152 20.082C139.677 20.5207 139.909 20.9537 139.855 21.3922C139.818 21.6911 139.686 21.9881 139.275 22.7032C138.853 23.4355 138.647 23.9065 138.499 24.4748L138.442 24.693L138 24.697C137.757 24.6992 137.553 24.6958 137.547 24.6895C137.528 24.6694 137.62 24.241 137.723 23.8727C137.823 23.5153 137.931 23.2099 138.178 22.5914C138.522 21.7317 138.58 21.5206 138.578 21.1407C138.576 20.8445 138.522 20.6513 138.358 20.3425C138.245 20.1318 137.906 19.7219 137.747 19.6054C137.713 19.5806 137.685 19.5552 137.685 19.549C137.684 19.5287 137.947 19.5371 138.092 19.5619ZM134.036 19.8252C134.153 19.8868 134.493 20.1127 134.529 20.1529C134.551 20.1771 134.566 20.244 134.592 20.4369C134.655 20.9038 134.796 21.6628 134.936 22.2846C134.981 22.4888 134.984 22.5157 134.966 22.5665C134.955 22.5974 134.942 22.6629 134.936 22.7121L134.926 22.8014L134.817 22.7932C134.609 22.7774 134.404 22.8471 134.058 23.0509C133.828 23.1869 133.703 23.2467 133.59 23.2761C133.545 23.2879 133.518 23.301 133.53 23.305C133.542 23.309 133.595 23.3234 133.648 23.337C133.764 23.367 133.936 23.4522 134.141 23.581C134.413 23.7518 134.577 23.8125 134.765 23.8125H134.855L134.855 23.9141C134.855 24.1038 134.933 24.3228 135.093 24.5854C135.127 24.6422 135.156 24.6913 135.156 24.6946C135.156 24.6979 134.805 24.7006 134.376 24.7006H133.596L133.577 24.5387C133.528 24.0973 133.39 23.4856 133.266 23.1577C133.248 23.108 133.217 23.02 133.199 22.962C133.18 22.9041 133.102 22.6941 133.026 22.4954C132.759 21.8039 132.711 21.6088 132.721 21.2687C132.727 21.0654 132.731 21.0391 132.783 20.8857C132.937 20.4295 133.328 19.9637 133.662 19.8384C133.849 19.7683 133.923 19.7656 134.036 19.8252ZM137.039 19.8181C137.201 19.8663 137.407 20.0178 137.57 20.2088C137.921 20.6196 138.075 21.0379 138.032 21.4596C138.01 21.6772 137.944 21.9106 137.797 22.301C137.556 22.9376 137.504 23.0814 137.437 23.3007C137.31 23.7118 137.231 24.079 137.18 24.4898C137.166 24.6016 137.153 24.6948 137.151 24.6969C137.149 24.6991 136.787 24.6991 136.347 24.6969L135.547 24.693L135.624 24.5726C135.78 24.3305 135.878 24.0912 135.878 23.9532V23.9078L135.999 23.9148C136.211 23.927 136.432 23.8494 136.781 23.6406C136.967 23.5297 137.098 23.4667 137.21 23.435C137.296 23.4109 137.298 23.409 137.255 23.399C137.055 23.3523 136.959 23.3088 136.691 23.1419C136.394 22.957 136.231 22.895 136.04 22.8945L135.953 22.8943V22.7917C135.953 22.6961 135.92 22.5406 135.878 22.4352C135.862 22.3966 135.867 22.3509 135.914 22.1191C136.034 21.5181 136.138 20.8857 136.195 20.4182C136.224 20.1843 136.233 20.1436 136.26 20.1205C136.322 20.069 136.579 19.9009 136.691 19.8395C136.795 19.7822 136.81 19.7782 136.885 19.7868C136.929 19.7919 136.998 19.806 137.039 19.8181ZM135.684 22.5409C135.721 22.6469 135.721 22.7805 135.685 22.8494C135.655 22.9046 135.598 22.9453 135.527 22.963C135.487 22.9729 135.485 22.9714 135.5 22.9425C135.532 22.8831 135.521 22.8053 135.473 22.7577C135.402 22.6863 135.274 22.7075 135.233 22.7976C135.186 22.9017 135.15 22.7062 135.193 22.5749C135.207 22.5312 135.259 22.4293 135.308 22.3484C135.358 22.2676 135.408 22.177 135.421 22.1472L135.444 22.0928L135.549 22.276C135.608 22.3767 135.668 22.4959 135.684 22.5409ZM134.825 23.0528C134.878 23.08 134.915 23.1245 134.937 23.1905C134.962 23.2607 134.953 23.2782 134.911 23.2482C134.817 23.1824 134.689 23.2581 134.689 23.3797C134.689 23.4511 134.722 23.4962 134.794 23.5242C134.832 23.5386 134.832 23.5389 134.772 23.5644C134.663 23.6109 134.517 23.5712 134.306 23.4378C134.256 23.4062 134.178 23.3618 134.134 23.3392L134.053 23.298L134.171 23.2317C134.392 23.1084 134.494 23.0591 134.573 23.0377C134.657 23.0148 134.762 23.021 134.825 23.0528ZM136.345 23.1994C136.413 23.2327 136.518 23.2922 136.703 23.4019C136.726 23.4151 136.413 23.5992 136.299 23.6398C136.211 23.6711 136.062 23.6722 136.003 23.6418C135.954 23.6164 135.915 23.5656 135.901 23.5088C135.892 23.4747 135.895 23.4732 135.953 23.4787C136.029 23.4859 136.083 23.4531 136.113 23.3823C136.132 23.3379 136.132 23.3238 136.113 23.2801C136.102 23.2522 136.076 23.2182 136.057 23.2044C136.026 23.1832 136.025 23.1772 136.044 23.1642C136.086 23.1358 136.256 23.1557 136.345 23.1994ZM135.555 23.2915C135.556 23.2924 135.554 23.3292 135.55 23.3732C135.545 23.4406 135.54 23.4516 135.519 23.4427C135.506 23.4369 135.438 23.4288 135.369 23.4247C135.268 23.4187 135.246 23.4131 135.253 23.3954C135.257 23.3833 135.261 23.3509 135.261 23.3233V23.273L135.408 23.2814C135.489 23.286 135.555 23.2905 135.555 23.2915ZM135.294 23.8347C135.289 23.8933 135.294 23.9081 135.334 23.9476C135.398 24.0121 135.486 24.0118 135.55 23.9469C135.607 23.8905 135.622 23.9055 135.622 24.0193C135.622 24.1194 135.588 24.2101 135.485 24.3785C135.44 24.4521 135.395 24.5314 135.385 24.5546C135.368 24.5922 135.336 24.5994 135.336 24.5654C135.336 24.5583 135.296 24.4825 135.246 24.397C135.139 24.2128 135.106 24.1203 135.106 24.0082C135.106 23.9083 135.139 23.8371 135.205 23.7968C135.283 23.7495 135.3 23.7567 135.294 23.8347ZM132.244 25.4465C132.272 25.509 132.296 25.5693 132.296 25.5804C132.296 25.6168 132.187 25.8316 132.174 25.8191C132.15 25.7941 132.055 25.6062 132.055 25.583C132.055 25.5509 132.164 25.3327 132.18 25.3327C132.186 25.3327 132.215 25.3839 132.244 25.4465ZM135.396 25.455L135.453 25.5773L135.401 25.6921C135.372 25.7552 135.343 25.8126 135.336 25.8195C135.324 25.8323 135.222 25.6537 135.206 25.5931C135.201 25.5709 135.219 25.5226 135.261 25.4464C135.295 25.3839 135.327 25.3327 135.331 25.3327C135.335 25.3327 135.364 25.3878 135.396 25.455ZM138.546 25.4545L138.601 25.5758L138.542 25.7038C138.51 25.7742 138.478 25.8285 138.471 25.8245C138.465 25.8205 138.433 25.7637 138.401 25.6983L138.344 25.5793L138.406 25.456C138.44 25.3882 138.472 25.3328 138.479 25.3329C138.485 25.333 138.515 25.3877 138.546 25.4545ZM133.867 25.4674C133.957 25.5571 133.919 25.6978 133.793 25.7392C133.707 25.7678 133.599 25.7021 133.582 25.6103C133.57 25.5483 133.61 25.4601 133.664 25.4298C133.724 25.3957 133.812 25.4119 133.867 25.4674ZM136.977 25.4308C137.109 25.4988 137.084 25.6913 136.938 25.7395C136.872 25.7612 136.793 25.7278 136.751 25.661C136.663 25.5202 136.827 25.3532 136.977 25.4308Z" fill="#C71012"/>
<path d="M97.5392 31.9811V24.2285C110.257 15.1016 123.266 10.7543 135.9 10.8435C148.526 10.9326 160.864 15.4531 172.251 24.2069V31.9811H97.5392Z" stroke="#FC3E41" stroke-width="2.07759"/>
</g>
</g>
</g>
<defs>
<filter id="filter0_i_1877_2721" x="-27.6055" y="12.806" width="297.77" height="81.8416" filterUnits="userSpaceOnUse" color-interpolation-filters="sRGB">
<feFlood flood-opacity="0" result="BackgroundImageFix"/>
<feBlend mode="normal" in="SourceGraphic" in2="BackgroundImageFix" result="shape"/>
<feColorMatrix in="SourceAlpha" type="matrix" values="0 0 0 0 0 0 0 0 0 0 0 0 0 0 0 0 0 0 127 0" result="hardAlpha"/>
<feOffset dx="9.14139" dy="9.55691"/>
<feGaussianBlur stdDeviation="5.19397"/>
<feComposite in2="hardAlpha" operator="arithmetic" k2="-1" k3="1"/>
<feColorMatrix type="matrix" values="0 0 0 0 1 0 0 0 0 1 0 0 0 0 1 0 0 0 1 0"/>
<feBlend mode="normal" in2="shape" result="effect1_innerShadow_1877_2721"/>
</filter>
<linearGradient id="paint0_linear_1877_2721" x1="112.813" y1="0" x2="112.813" y2="126.915" gradientUnits="userSpaceOnUse">
<stop stop-color="#09B2EF"/>
<stop offset="1" stop-color="#B6EBFF"/>
</linearGradient>
<clipPath id="clip0_1877_2721">
<rect width="188" height="125" rx="8" fill="white"/>
</clipPath>
<clipPath id="clip1_1877_2721">
<rect width="225.626" height="126.915" fill="white" transform="translate(-18.813 -0.957336)"/>
</clipPath>
</defs>
</svg>
